<?xml version="1.0" standalone="no"?>
<!DOCTYPE svg PUBLIC "-//W3C//DTD SVG 1.1//EN" "http://www.w3.org/Graphics/SVG/1.1/DTD/svg11.dtd" >
<svg xmlns="http://www.w3.org/2000/svg" xmlns:xlink="http://www.w3.org/1999/xlink" version="1.1">
<metadata>
Created by FontForge 20161116 at Fri Jul 11 03:03:59 2014
 By Jimmy Wärting
Copyright \(c\) 2010-2012 by The Entente \(AS&#38;EH\). All rights reserved.
</metadata>
<defs>
<font id="ApercuPro-RegularItalic" horiz-adv-x="560" >
  <font-face 
    font-family="Apercu Pro"
    font-weight="400"
    font-style="italic"
    font-stretch="normal"
    units-per-em="1000"
    panose-1="2 0 5 6 4 0 0 9 0 4"
    ascent="800"
    descent="-200"
    x-height="504"
    cap-height="700"
    bbox="-110 -268 1206 1102"
    underline-thickness="50"
    underline-position="-100"
    unicode-range="U+000D-FB02"
  />
<missing-glyph horiz-adv-x="621" 
d="M524 0h-427v700h427v-700zM181 624v-548h259v548h-259z" />
    <glyph glyph-name="uniFB01" unicode="fi" horiz-adv-x="521" 
d="M115 0h-85l83 428h-76l15 76h76l3 16c24 124 120 188 232 188c52 0 94 -10 123 -33l-32 -72c-28 19 -63 29 -106 29c-69 0 -117 -35 -132 -111l-3 -17h258l-98 -504h-85l83 428h-173z" />
    <glyph glyph-name="uniFB02" unicode="fl" horiz-adv-x="590" 
d="M115 0h-85l83 428h-77l15 76h77l5 26c26 135 116 178 220 178h202l-137 -708h-85l123 632h-118c-65 0 -107 -33 -120 -101l-5 -27h116l-15 -76h-116z" />
    <glyph glyph-name=".notdef" horiz-adv-x="621" 
d="M524 0h-427v700h427v-700zM181 624v-548h259v548h-259z" />
    <glyph glyph-name="uni0000" horiz-adv-x="0" 
 />
    <glyph glyph-name="uni0000" horiz-adv-x="0" 
 />
    <glyph glyph-name="uni000D" unicode="&#xd;" horiz-adv-x="232" 
 />
    <glyph glyph-name="space" unicode=" " horiz-adv-x="232" 
 />
    <glyph glyph-name="exclam" unicode="!" horiz-adv-x="347" 
d="M60 65c0 40 30 71 70 71s70 -31 70 -71c0 -39 -30 -68 -70 -68s-70 29 -70 68zM188 200h-66l73 500h114z" />
    <glyph glyph-name="quotedbl" unicode="&#x22;" horiz-adv-x="443" 
d="M192 476h-62l20 232h112zM345 476h-62l20 232h112z" />
    <glyph glyph-name="numbersign" unicode="#" horiz-adv-x="691" 
d="M154 208h-116l8 68h130l49 148h-120l8 68h134l68 208h76l-68 -208h137l68 208h75l-68 -208h117l-8 -68h-131l-49 -148h121l-8 -68h-135l-67 -208h-75l67 208h-137l-66 -208h-77zM301 424l-49 -148h137l49 148h-137z" />
    <glyph glyph-name="dollar" unicode="$" horiz-adv-x="523" 
d="M22 184l80 43c5 -83 45 -151 128 -151c75 0 140 43 140 131c0 68 -40 96 -107 128c-70 35 -137 85 -137 179c0 117 74 181 176 192l17 84h80l-18 -90c57 -19 93 -67 106 -116l-76 -42c-23 61 -53 83 -96 83c-63 0 -97 -38 -97 -98c0 -63 44 -90 111 -125
c80 -43 132 -78 132 -179c0 -79 -22 -127 -65 -166c-47 -44 -92 -60 -152 -64l-16 -83h-80l17 88c-80 21 -143 97 -143 186z" />
    <glyph glyph-name="percent" unicode="%" horiz-adv-x="878" 
d="M109 -29l-45 44l676 718l46 -43zM77 526c0 56 21 101 58 134c33 31 70 48 131 48c72 0 134 -53 134 -138c0 -56 -21 -101 -58 -134c-33 -31 -70 -48 -131 -48c-72 0 -134 53 -134 138zM151 536c0 -53 32 -78 72 -78c28 0 51 9 70 26c20 19 33 47 33 76
c0 53 -32 78 -72 78c-28 0 -51 -9 -70 -26c-20 -19 -33 -47 -33 -76zM447 130c0 56 21 101 58 134c33 31 70 48 131 48c72 0 134 -53 134 -138c0 -56 -21 -101 -58 -134c-33 -31 -70 -48 -131 -48c-72 0 -134 53 -134 138zM521 140c0 -53 32 -78 72 -78c28 0 51 9 70 26
c20 19 33 47 33 76c0 53 -32 78 -72 78c-28 0 -51 -9 -70 -26c-20 -19 -33 -47 -33 -76z" />
    <glyph glyph-name="ampersand" unicode="&#x26;" horiz-adv-x="621" 
d="M31 171c0 113 65 191 185 247c-19 31 -39 76 -39 119c0 108 69 171 180 171c92 0 139 -60 139 -132c0 -90 -83 -143 -174 -186l107 -182c23 35 45 74 72 122l47 -70c-24 -44 -49 -86 -77 -123l81 -137h-94l-43 74c-60 -56 -118 -82 -205 -82c-100 0 -179 70 -179 179z
M115 182c0 -79 49 -114 110 -114c60 0 102 22 150 73l-124 214c-67 -35 -136 -89 -136 -173zM258 541c0 -29 10 -62 27 -91c55 24 129 64 129 120c0 39 -19 66 -64 66c-47 0 -92 -30 -92 -95z" />
    <glyph glyph-name="quotesingle" unicode="'" horiz-adv-x="290" 
d="M192 476h-62l20 232h112z" />
    <glyph glyph-name="parenleft" unicode="(" horiz-adv-x="285" 
d="M50 193c0 217 67 403 202 557h89c-128 -157 -202 -329 -202 -556c0 -88 16 -176 47 -244h-89c-28 64 -47 148 -47 243z" />
    <glyph glyph-name="parenright" unicode=")" horiz-adv-x="285" 
d="M24 -50h-89c127 154 201 331 201 556c0 88 -16 176 -47 244h89c28 -64 47 -148 47 -243c0 -219 -67 -404 -201 -557z" />
    <glyph glyph-name="asterisk" unicode="*" horiz-adv-x="489" 
d="M206 505l-121 43l33 65l123 -43l27 138h68l-27 -138l139 43l13 -64l-143 -44l59 -111l-63 -39l-59 111l-99 -111l-51 39z" />
    <glyph glyph-name="plus" unicode="+" horiz-adv-x="577" 
d="M230 282h-182l15 74h182l35 183h75l-35 -183h182l-15 -74h-182l-35 -183h-75z" />
    <glyph glyph-name="comma" unicode="," horiz-adv-x="329" 
d="M59 -107h-63l102 217h117z" />
    <glyph glyph-name="hyphen" unicode="-" horiz-adv-x="479" 
d="M394 280h-339l15 74h339z" />
    <glyph glyph-name="period" unicode="." horiz-adv-x="275" 
d="M25 59c0 35 27 63 63 63c35 0 63 -28 63 -63c0 -36 -28 -63 -63 -63c-36 0 -63 27 -63 63z" />
    <glyph glyph-name="slash" unicode="/" horiz-adv-x="495" 
d="M-6 -50h-89l589 800h89z" />
    <glyph glyph-name="zero" unicode="0" 
d="M34 243c0 132 32 265 105 358c52 65 113 107 216 107c121 0 191 -84 191 -251c0 -132 -32 -265 -105 -358c-52 -67 -115 -107 -216 -107c-119 0 -191 84 -191 251zM123 254c0 -131 39 -182 114 -182c165 0 220 240 220 374c0 131 -39 182 -114 182
c-165 0 -220 -241 -220 -374z" />
    <glyph glyph-name="one" unicode="1" 
d="M312 574l-141 -74l18 92l199 108h32l-137 -700h-83z" />
    <glyph glyph-name="two" unicode="2" 
d="M435 0h-415l7 39l322 342c44 45 86 91 86 150c0 65 -30 97 -90 97c-63 0 -109 -49 -130 -120l-85 16c26 103 101 184 222 184c106 0 172 -68 172 -155c0 -83 -31 -133 -91 -196l-260 -277h277z" />
    <glyph glyph-name="three" unicode="3" 
d="M52 184v8l84 11v-6c0 -72 44 -125 124 -125c101 0 145 64 145 173c0 83 -43 123 -115 123c-21 0 -42 -2 -65 -13l-26 47l189 218h-243l15 80h381l-5 -27l-222 -241c7 3 19 3 26 3c96 0 154 -67 154 -188c0 -148 -88 -255 -244 -255c-121 0 -198 93 -198 192z" />
    <glyph glyph-name="four" unicode="4" 
d="M310 149h-293l7 35l386 516h97l-92 -471h83l-16 -80h-83l-29 -149h-89zM388 554l-241 -325h179z" />
    <glyph glyph-name="five" unicode="5" 
d="M38 173v11l82 15v-8c0 -68 36 -119 108 -119c96 0 163 75 163 186c0 91 -38 126 -107 126c-51 0 -111 -27 -156 -78l-53 12l105 382h343l-15 -80h-267l-60 -203c27 23 71 47 124 47c103 0 175 -57 175 -193c0 -165 -98 -279 -263 -279c-99 0 -179 73 -179 181z" />
    <glyph glyph-name="six" unicode="6" 
d="M44 178c0 64 25 127 66 182l266 348h102l-204 -267c11 5 23 7 36 7c100 0 175 -60 175 -188c0 -155 -106 -268 -261 -268c-115 0 -180 77 -180 186zM133 191c0 -75 32 -119 103 -119c93 0 160 80 160 176c0 83 -43 121 -108 121c-95 0 -155 -86 -155 -178z" />
    <glyph glyph-name="seven" unicode="7" 
d="M165 0h-91l374 620h-286l16 80h393l-8 -37z" />
    <glyph glyph-name="eight" unicode="8" 
d="M42 171c0 92 50 166 142 206c-31 23 -55 65 -55 121c0 68 25 118 72 157c41 35 92 53 160 53c104 0 163 -65 163 -161c0 -84 -50 -143 -118 -172c39 -20 78 -68 78 -144s-23 -131 -63 -171c-47 -47 -117 -68 -194 -68c-104 0 -185 72 -185 179zM131 185
c0 -71 42 -113 110 -113c88 0 154 57 154 148c0 68 -35 110 -107 110c-85 0 -157 -61 -157 -145zM214 503c0 -57 34 -93 89 -93c69 0 136 48 136 125c0 60 -30 97 -93 97c-72 0 -132 -54 -132 -129z" />
    <glyph glyph-name="nine" unicode="9" 
d="M88 440c0 155 106 268 261 268c115 0 180 -77 180 -186c0 -64 -25 -127 -66 -182l-266 -348h-102l204 267c-11 -5 -23 -7 -36 -7c-100 0 -175 60 -175 188zM177 452c0 -83 43 -121 108 -121c95 0 155 86 155 178c0 75 -32 119 -103 119c-93 0 -160 -80 -160 -176z" />
    <glyph glyph-name="colon" unicode=":" horiz-adv-x="297" 
d="M40 59c0 35 27 63 63 63c35 0 63 -28 63 -63c0 -36 -28 -63 -63 -63c-36 0 -63 27 -63 63zM106 403c0 35 27 63 63 63c35 0 63 -28 63 -63c0 -36 -28 -63 -63 -63c-36 0 -63 27 -63 63z" />
    <glyph glyph-name="semicolon" unicode=";" horiz-adv-x="297" 
d="M29 -107h-63l102 217h117zM106 403c0 35 27 63 63 63c35 0 63 -28 63 -63c0 -36 -28 -63 -63 -63c-36 0 -63 27 -63 63z" />
    <glyph glyph-name="less" unicode="&#x3c;" horiz-adv-x="457" 
d="M387 80l-349 186v88l349 186v-87l-267 -143l267 -143v-87z" />
    <glyph glyph-name="equal" unicode="=" horiz-adv-x="581" 
d="M481 190h-399v74h399v-74zM481 356h-399v74h399v-74z" />
    <glyph glyph-name="greater" unicode="&#x3e;" horiz-adv-x="457" 
d="M419 266l-349 -186v87l267 143l-267 143v87l349 -186v-88z" />
    <glyph glyph-name="question" unicode="?" horiz-adv-x="445" 
d="M76 315c0 75 47 110 112 138l98 43c31 15 61 34 61 77c0 44 -34 65 -74 65c-55 0 -93 -41 -116 -97l-77 21c29 84 100 146 203 146c91 0 147 -50 147 -130c0 -71 -39 -107 -98 -135l-119 -57c-33 -16 -61 -33 -61 -70c0 -31 21 -45 45 -45c39 0 58 28 79 65l65 -29
c-43 -83 -80 -106 -145 -106c-72 0 -120 47 -120 114zM91 63c0 39 29 68 66 68c39 0 68 -29 68 -68c0 -37 -29 -66 -68 -66c-37 0 -66 29 -66 66z" />
    <glyph glyph-name="at" unicode="@" horiz-adv-x="906" 
d="M60 262c0 281 181 456 453 456c189 0 334 -113 334 -320c0 -148 -52 -290 -200 -290c-56 0 -93 32 -106 68c-35 -44 -87 -68 -146 -68c-102 0 -156 73 -156 169c0 137 84 239 233 239c55 0 97 -22 116 -57l17 50h65l-54 -252c-3 -11 -6 -22 -6 -33c0 -29 14 -44 42 -44
c83 0 112 105 112 209c0 167 -91 257 -264 257c-209 0 -354 -150 -354 -378c0 -184 124 -290 288 -290c77 0 152 11 262 65l21 -70c-110 -48 -179 -67 -291 -67c-214 0 -366 141 -366 356zM322 283c0 -60 29 -103 90 -103c85 0 141 79 141 160c0 73 -32 104 -88 104
c-86 0 -143 -74 -143 -161z" />
    <glyph glyph-name="A" unicode="A" horiz-adv-x="574" 
d="M32 0h-89l372 700h85l106 -700h-89l-25 187h-261zM335 586l-160 -315h205z" />
    <glyph glyph-name="B" unicode="B" horiz-adv-x="609" 
d="M282 0h-247l137 700h222c113 0 173 -56 173 -156c0 -81 -47 -136 -111 -163c45 -21 89 -66 89 -142c0 -158 -114 -239 -263 -239zM189 331l-48 -247h145c96 0 167 45 167 138c0 72 -43 109 -119 109h-145zM244 616l-39 -201h140c67 0 133 34 133 113c0 63 -36 88 -96 88
h-138z" />
    <glyph glyph-name="C" unicode="C" horiz-adv-x="662" 
d="M39 272c0 221 143 436 388 436c138 0 219 -102 227 -212l-85 -23c-17 105 -69 151 -158 151c-184 0 -280 -175 -280 -342c0 -133 58 -206 173 -206c92 0 154 44 213 153l78 -25c-64 -139 -161 -212 -302 -212c-147 0 -254 97 -254 280z" />
    <glyph glyph-name="D" unicode="D" horiz-adv-x="669" 
d="M229 0h-194l137 700h180c162 0 276 -92 276 -279c0 -234 -159 -421 -399 -421zM244 616l-103 -532h89c188 0 303 145 303 328c0 137 -71 204 -200 204h-89z" />
    <glyph glyph-name="E" unicode="E" horiz-adv-x="563" 
d="M441 0h-406l137 700h396l-17 -84h-307l-39 -201h250l-16 -84h-250l-48 -247h317z" />
    <glyph glyph-name="F" unicode="F" horiz-adv-x="551" 
d="M124 0h-89l137 700h399l-17 -84h-310l-40 -209h250l-17 -84h-250z" />
    <glyph glyph-name="G" unicode="G" horiz-adv-x="698" 
d="M39 277c0 224 142 431 387 431c136 0 222 -89 230 -211l-88 -23c-13 99 -65 150 -158 150c-171 0 -279 -160 -279 -334c0 -140 60 -214 172 -214s192 77 224 193h-144l16 84h236l-69 -353h-76l9 96c-56 -73 -118 -104 -213 -104c-125 0 -247 90 -247 285z" />
    <glyph glyph-name="H" unicode="H" horiz-adv-x="695" 
d="M124 0h-89l137 700h89l-56 -286h310l56 286h89l-137 -700h-89l65 330h-310z" />
    <glyph glyph-name="I" unicode="I" horiz-adv-x="296" 
d="M124 0h-89l137 700h89z" />
    <glyph glyph-name="J" unicode="J" horiz-adv-x="541" 
d="M5 175l89 19c0 -73 31 -118 99 -118c69 0 116 40 136 143l93 481h89l-100 -515c-25 -131 -112 -193 -228 -193c-112 0 -178 91 -178 183z" />
    <glyph glyph-name="K" unicode="K" horiz-adv-x="597" 
d="M124 0h-89l137 700h89l-55 -281l298 281h120l-341 -318l224 -382h-108l-206 353z" />
    <glyph glyph-name="L" unicode="L" horiz-adv-x="506" 
d="M432 0h-397l137 700h89l-120 -616h308z" />
    <glyph glyph-name="M" unicode="M" horiz-adv-x="790" 
d="M124 0h-89l137 700h104l92 -493l279 493h108l-137 -700h-89l100 510l-254 -446h-66l-85 446z" />
    <glyph glyph-name="N" unicode="N" horiz-adv-x="706" 
d="M124 0h-89l137 700h99l204 -547l107 547h89l-137 -700h-99l-205 545z" />
    <glyph glyph-name="O" unicode="O" horiz-adv-x="713" 
d="M39 275c0 147 54 264 151 348c69 60 139 85 235 85c144 0 247 -103 247 -283c0 -147 -54 -264 -151 -348c-69 -60 -139 -85 -235 -85c-144 0 -247 103 -247 283zM131 283c0 -135 59 -207 170 -207c72 0 133 31 181 82c63 67 98 159 98 259c0 135 -59 207 -170 207
c-72 0 -133 -31 -181 -82c-63 -67 -98 -159 -98 -259z" />
    <glyph glyph-name="P" unicode="P" horiz-adv-x="584" 
d="M124 0h-89l137 700h224c113 0 187 -63 187 -166c0 -156 -103 -234 -258 -234h-142zM244 616l-45 -232h153c80 0 138 46 138 134c0 60 -31 98 -100 98h-146z" />
    <glyph glyph-name="Q" unicode="Q" horiz-adv-x="713" 
d="M39 275c0 147 54 264 151 348c69 60 139 85 235 85c144 0 247 -103 247 -283c0 -125 -40 -230 -112 -310l52 -64l-71 -59l-50 61c-60 -43 -122 -61 -205 -61c-144 0 -247 103 -247 283zM131 283c0 -135 59 -207 170 -207c51 0 96 14 137 43l-65 81l72 59l59 -74
c48 64 76 144 76 232c0 135 -59 207 -170 207c-72 0 -133 -31 -181 -82c-63 -67 -98 -159 -98 -259z" />
    <glyph glyph-name="R" unicode="R" horiz-adv-x="596" 
d="M124 0h-89l137 700h222c112 0 178 -60 178 -157c0 -117 -70 -192 -185 -207l143 -336h-99l-139 330h-103zM244 616l-39 -202h139c84 0 136 37 136 113c0 59 -33 89 -100 89h-136z" />
    <glyph glyph-name="S" unicode="S" horiz-adv-x="523" 
d="M22 184l80 43c5 -83 45 -151 128 -151c75 0 140 43 140 131c0 68 -40 96 -107 128c-70 35 -137 85 -137 179c0 127 88 194 205 194c85 0 140 -61 156 -124l-76 -42c-23 61 -53 82 -96 82c-63 0 -97 -37 -97 -97c0 -63 44 -90 111 -125c80 -43 133 -78 133 -179
c0 -79 -23 -127 -66 -166c-55 -51 -108 -65 -185 -65c-99 0 -189 85 -189 192z" />
    <glyph glyph-name="T" unicode="T" horiz-adv-x="507" 
d="M258 616h-197l17 84h483l-17 -84h-197l-120 -616h-89z" />
    <glyph glyph-name="U" unicode="U" horiz-adv-x="672" 
d="M70 171c0 19 2 46 6 67l89 462h89l-91 -468c-3 -13 -4 -28 -4 -40c0 -75 37 -116 122 -116c103 0 167 57 186 156l91 468h89l-89 -462c-34 -178 -141 -246 -288 -246c-120 0 -200 72 -200 179z" />
    <glyph glyph-name="V" unicode="V" horiz-adv-x="558" 
d="M158 0l-97 700h93l72 -575l300 575h95l-374 -700h-89z" />
    <glyph glyph-name="W" unicode="W" horiz-adv-x="886" 
d="M142 0l-52 700h93l28 -570l233 496h83l50 -496l249 570h94l-319 -700h-89l-55 480l-226 -480h-89z" />
    <glyph glyph-name="X" unicode="X" horiz-adv-x="531" 
d="M47 0h-101l291 384l-118 316h94l86 -234l177 234h98l-243 -321l142 -379h-92l-112 297z" />
    <glyph glyph-name="Y" unicode="Y" horiz-adv-x="484" 
d="M182 302l-126 398h94l91 -310l210 310h99l-279 -398l-59 -302h-89z" />
    <glyph glyph-name="Z" unicode="Z" horiz-adv-x="550" 
d="M434 0h-455l8 42l424 574h-310l17 84h435l-9 -42l-424 -574h331z" />
    <glyph glyph-name="bracketleft" unicode="[" horiz-adv-x="321" 
d="M210 -50h-188l154 800h189l-15 -76h-108l-125 -648h108z" />
    <glyph glyph-name="backslash" unicode="\" horiz-adv-x="495" 
d="M350 -50l-281 800h84l281 -800h-84z" />
    <glyph glyph-name="bracketright" unicode="]" horiz-adv-x="321" 
d="M145 -50h-188l14 76h108l125 648h-108l15 76h189z" />
    <glyph glyph-name="asciicircum" unicode="^" horiz-adv-x="568" 
d="M153 421h-83l186 279h68l186 -279h-83l-137 203z" />
    <glyph glyph-name="underscore" unicode="_" horiz-adv-x="453" 
d="M355 -74h-399l15 74h399z" />
    <glyph glyph-name="grave" unicode="`" horiz-adv-x="206" 
d="M156 560l-101 144h121l48 -144h-68z" />
    <glyph glyph-name="a" unicode="a" horiz-adv-x="586" 
d="M27 197c0 165 93 315 273 315c72 0 121 -39 134 -68l11 60h85l-97 -504h-85l12 62c-39 -43 -88 -70 -149 -70c-127 0 -184 90 -184 205zM116 220c0 -92 43 -152 119 -152c123 0 174 133 174 236c0 80 -40 132 -116 132c-123 0 -177 -116 -177 -216z" />
    <glyph glyph-name="b" unicode="b" horiz-adv-x="596" 
d="M115 0h-85l138 708h85l-51 -264c29 33 85 68 150 68c105 0 179 -67 179 -212c0 -161 -87 -308 -271 -308c-56 0 -116 34 -132 70zM152 211c0 -96 47 -143 115 -143c116 0 175 113 175 220c0 104 -41 148 -113 148c-104 0 -177 -114 -177 -225z" />
    <glyph glyph-name="c" unicode="c" horiz-adv-x="540" 
d="M27 203c0 151 100 309 287 309c103 0 158 -48 181 -140l-76 -29c-17 64 -56 93 -120 93c-112 0 -183 -107 -183 -224c0 -91 44 -144 113 -144c68 0 110 34 151 102l71 -37c-69 -109 -134 -141 -237 -141c-115 0 -187 85 -187 211z" />
    <glyph glyph-name="d" unicode="d" horiz-adv-x="612" 
d="M27 186c0 171 102 326 275 326c65 0 116 -29 139 -68l51 264h85l-138 -708h-85l13 62c-39 -43 -97 -70 -158 -70c-119 0 -182 78 -182 194zM116 208c0 -84 39 -140 116 -140c124 0 184 137 184 238c0 88 -49 130 -121 130c-122 0 -179 -128 -179 -228z" />
    <glyph glyph-name="e" unicode="e" horiz-adv-x="562" 
d="M25 204c0 151 120 308 292 308c116 0 186 -74 186 -189c0 -19 -1 -27 -5 -50l-8 -39h-373c-2 -13 -3 -25 -3 -36c0 -80 40 -130 117 -130c75 0 117 36 157 99l72 -35c-67 -99 -136 -140 -244 -140c-117 0 -191 87 -191 212zM136 310h278c0 79 -31 126 -112 126
c-76 0 -137 -53 -166 -126z" />
    <glyph glyph-name="f" unicode="f" horiz-adv-x="339" 
d="M115 0h-85l83 428h-72l15 76h72l6 33c23 121 82 171 187 171c27 0 51 -7 72 -18l-31 -72c-17 9 -34 14 -53 14c-48 0 -75 -23 -88 -88l-8 -40h112l-15 -76h-112z" />
    <glyph glyph-name="g" unicode="g" horiz-adv-x="510" 
d="M-23 -68c0 55 22 92 66 127c-13 15 -21 34 -21 63c0 55 35 88 84 113c-12 19 -22 44 -22 76c0 116 80 201 205 201c33 0 66 -8 91 -23l94 48l30 -66l-75 -38c7 -16 11 -44 11 -64c0 -114 -89 -195 -206 -195c-32 0 -58 8 -81 20c-24 -9 -47 -26 -47 -55
c0 -21 16 -38 45 -38h115c88 0 141 -36 141 -121c0 -132 -120 -192 -250 -192c-101 0 -180 55 -180 144zM62 -50c0 -46 30 -90 110 -90c67 0 146 25 146 105c0 43 -26 64 -77 64h-97c-13 0 -25 1 -36 2c-31 -16 -46 -43 -46 -81zM168 326c0 -55 33 -80 77 -80
c61 0 111 43 111 111c0 57 -33 83 -77 83c-60 0 -111 -47 -111 -114z" />
    <glyph glyph-name="h" unicode="h" horiz-adv-x="584" 
d="M115 0h-85l137 708h85l-58 -298c44 61 111 102 190 102c73 0 123 -39 123 -112c0 -15 -2 -31 -5 -50l-68 -350h-85l64 333c3 12 3 25 3 36c0 43 -21 67 -69 67c-70 0 -164 -82 -191 -222z" />
    <glyph glyph-name="i" unicode="i" horiz-adv-x="276" 
d="M115 0h-85l98 504h85zM132 644c0 36 27 64 63 64s63 -28 63 -64c0 -35 -27 -62 -63 -62s-63 27 -63 62z" />
    <glyph glyph-name="j" unicode="j" horiz-adv-x="276" 
d="M-80 -212l-8 82c61 16 99 36 115 112l101 522h85l-103 -530c-24 -120 -81 -170 -190 -186zM132 644c0 36 27 64 63 64s63 -28 63 -64c0 -35 -27 -62 -63 -62s-63 27 -63 62z" />
    <glyph glyph-name="k" unicode="k" horiz-adv-x="508" 
d="M115 0h-85l137 708h85l-80 -415l216 211h115l-249 -236l171 -268h-103l-158 253z" />
    <glyph glyph-name="l" unicode="l" horiz-adv-x="306" 
d="M134 0h-85l137 708h85z" />
    <glyph glyph-name="m" unicode="m" horiz-adv-x="856" 
d="M115 0h-85l98 504h85l-18 -93c44 64 100 101 171 101s112 -40 116 -105c48 67 106 105 179 105c78 0 117 -38 117 -113c0 -15 -1 -28 -4 -44l-69 -355h-85l65 337c3 12 4 27 4 38c0 41 -25 61 -64 61c-65 0 -146 -82 -175 -229l-40 -207h-85l65 337c3 12 3 27 3 38
c0 41 -24 61 -63 61c-65 0 -146 -82 -175 -229z" />
    <glyph glyph-name="n" unicode="n" horiz-adv-x="577" 
d="M115 0h-85l98 504h85l-18 -93c49 65 110 101 182 101c77 0 122 -39 122 -110c0 -24 0 -32 -3 -47l-69 -355h-85l64 333c3 12 4 24 4 35c0 43 -22 68 -67 68c-67 0 -160 -85 -187 -225z" />
    <glyph glyph-name="o" unicode="o" horiz-adv-x="573" 
d="M27 204c0 92 28 159 69 210c53 67 121 98 213 98c124 0 199 -77 199 -212c0 -92 -28 -159 -69 -210c-53 -67 -121 -98 -213 -98c-124 0 -199 77 -199 212zM116 216c0 -92 38 -148 118 -148c61 0 107 28 140 71s45 90 45 149c0 92 -38 148 -118 148
c-61 0 -107 -28 -140 -71s-45 -90 -45 -149z" />
    <glyph glyph-name="p" unicode="p" horiz-adv-x="605" 
d="M75 -204h-85l138 708h85l-13 -62c36 41 94 70 158 70c116 0 182 -73 182 -194c0 -171 -102 -326 -275 -326c-67 0 -114 29 -139 68zM151 198c0 -84 41 -130 121 -130c122 0 179 128 179 228c0 84 -39 140 -116 140c-124 0 -184 -137 -184 -238z" />
    <glyph glyph-name="q" unicode="q" horiz-adv-x="578" 
d="M27 204c0 161 87 308 271 308c56 0 116 -34 132 -70l13 62h85l-138 -708h-85l51 264c-29 -33 -85 -68 -150 -68c-105 0 -179 67 -179 212zM116 216c0 -104 41 -148 113 -148c104 0 177 114 177 225c0 96 -47 143 -115 143c-116 0 -175 -113 -175 -220z" />
    <glyph glyph-name="r" unicode="r" horiz-adv-x="437" 
d="M115 0h-85l98 504h85l-17 -86c40 64 99 94 163 94c28 0 56 -7 69 -15l-31 -75c-17 9 -34 14 -53 14c-60 0 -153 -49 -185 -213z" />
    <glyph glyph-name="s" unicode="s" horiz-adv-x="460" 
d="M16 135l74 36c12 -59 46 -103 114 -103c51 0 83 30 83 74c0 51 -36 68 -92 92c-55 24 -99 66 -99 134c0 92 64 144 163 144c64 0 118 -32 145 -84l-66 -49c-25 38 -55 57 -89 57c-36 0 -68 -22 -68 -63c0 -39 32 -58 69 -75c57 -24 126 -57 126 -140
c0 -104 -77 -166 -182 -166s-167 72 -178 143z" />
    <glyph glyph-name="t" unicode="t" horiz-adv-x="350" 
d="M116 428h-87l14 76h87l30 151l94 53l-40 -204h127l-14 -76h-127l-52 -268c-3 -11 -5 -28 -5 -36c0 -37 18 -56 54 -56c23 0 39 4 60 16l6 -73c-27 -15 -57 -19 -86 -19c-76 0 -119 40 -119 117c0 15 4 39 7 58z" />
    <glyph glyph-name="u" unicode="u" horiz-adv-x="577" 
d="M52 102c0 24 0 32 3 47l69 355h85l-64 -333c-3 -12 -4 -24 -4 -35c0 -43 22 -68 67 -68c66 0 161 85 187 225l41 211h85l-98 -504h-85l18 93c-49 -65 -110 -101 -182 -101c-77 0 -122 39 -122 110z" />
    <glyph glyph-name="v" unicode="v" horiz-adv-x="439" 
d="M99 0l-71 504h85l47 -397l200 397h89l-261 -504h-89z" />
    <glyph glyph-name="w" unicode="w" horiz-adv-x="723" 
d="M113 0l-58 504h86l31 -391l173 391h86l19 -391l176 391h89l-245 -504h-82l-22 381l-171 -381h-82z" />
    <glyph glyph-name="x" unicode="x" horiz-adv-x="462" 
d="M65 0h-101l215 275l-98 229h92l67 -160l126 160h98l-192 -238l107 -266h-89l-76 190z" />
    <glyph glyph-name="y" unicode="y" horiz-adv-x="466" 
d="M86 -204h-89l125 236l-81 472h89l58 -364l194 364h89z" />
    <glyph glyph-name="z" unicode="z" horiz-adv-x="468" 
d="M360 0h-365l7 36l307 392h-227l14 76h347l-7 -36l-310 -392h248z" />
    <glyph glyph-name="braceleft" unicode="{" horiz-adv-x="315" 
d="M33 312l15 76c60 0 83 20 95 80l36 182c12 60 52 100 120 100h48l-15 -76h-23c-32 0 -46 -13 -53 -45l-35 -181c-13 -68 -48 -89 -89 -98c31 -8 53 -23 53 -66c0 -9 -1 -20 -3 -32l-35 -181c-1 -7 -2 -11 -2 -15c0 -21 8 -30 39 -30h23l-15 -76h-48c-56 0 -84 30 -84 78
c0 7 1 14 2 22l36 182c3 12 4 22 4 31c0 36 -21 49 -69 49z" />
    <glyph glyph-name="bar" unicode="|" horiz-adv-x="245" 
d="M180 -50h-80v800h80v-800z" />
    <glyph glyph-name="braceright" unicode="}" horiz-adv-x="315" 
d="M15 -50h-47l14 76h23c32 0 46 13 53 45l35 181c14 69 47 87 90 98c-32 8 -54 25 -54 65c0 10 1 21 3 33l35 181c1 7 2 11 2 15c0 21 -10 30 -39 30h-23l15 76h48c56 0 83 -28 83 -77v-10c0 -3 -1 -8 -2 -13l-36 -182c-3 -12 -4 -22 -4 -31c0 -36 20 -49 69 -49l-15 -76
c-60 0 -84 -20 -95 -80l-36 -182c-12 -63 -54 -100 -119 -100z" />
    <glyph glyph-name="asciitilde" unicode="~" horiz-adv-x="627" 
d="M100 268l-40 54c39 53 93 85 149 85c85 0 111 -50 183 -50c35 0 72 17 101 45l40 -55c-40 -55 -93 -84 -149 -84c-85 0 -111 50 -183 50c-35 0 -72 -17 -101 -45z" />
    <glyph glyph-name="uni00A0" unicode="&#xa0;" horiz-adv-x="232" 
 />
    <glyph glyph-name="exclamdown" unicode="&#xa1;" horiz-adv-x="347" 
d="M259 429c0 -40 -30 -71 -70 -71s-70 31 -70 71c0 39 30 68 70 68s70 -29 70 -68zM131 294h66l-73 -500h-114z" />
    <glyph glyph-name="cent" unicode="&#xa2;" horiz-adv-x="553" 
d="M59 301c0 139 86 282 243 306l28 143h81l-27 -143c80 -11 124 -57 144 -137l-76 -29c-17 64 -56 93 -120 93c-112 0 -184 -107 -184 -224c0 -91 45 -144 114 -144c68 0 110 34 151 102l71 -37c-61 -95 -120 -132 -201 -140l-27 -141h-81l28 144c-89 19 -144 98 -144 207z
" />
    <glyph glyph-name="sterling" unicode="&#xa3;" horiz-adv-x="562" 
d="M35 -8l-44 62c74 61 152 134 152 243v13c0 5 0 9 -1 14h-80l16 80h53l-3 32v20c-1 6 -1 11 -1 15c0 148 90 237 238 237c84 0 154 -59 167 -138l-78 -31c-19 63 -48 89 -104 89c-92 0 -140 -67 -140 -172c0 -15 0 -40 3 -52h169l-16 -80h-143v-20
c0 -106 -47 -155 -114 -214c33 19 65 21 88 21c52 0 78 -39 115 -39c39 0 60 21 103 76l57 -52c-57 -79 -106 -104 -170 -104c-77 0 -84 40 -146 40c-44 0 -78 -12 -121 -40z" />
    <glyph glyph-name="currency" unicode="&#xa4;" horiz-adv-x="569" 
d="M87 56l-69 69l88 67c-23 32 -35 72 -35 115s12 83 35 115l-88 67l69 69l67 -87c32 24 71 38 115 38s83 -14 115 -38l67 87l69 -69l-88 -67c23 -32 35 -72 35 -115s-12 -83 -35 -115l88 -67l-69 -69l-67 87c-32 -24 -71 -38 -115 -38s-83 14 -115 38zM152 307
c0 -75 45 -126 117 -126s117 51 117 126s-45 126 -117 126s-117 -51 -117 -126z" />
    <glyph glyph-name="yen" unicode="&#xa5;" horiz-adv-x="561" 
d="M212 147h-156l16 80h156l15 80h-156l16 80h119l-97 313h96l82 -302l203 302h100l-218 -313h116l-16 -80h-156l-15 -80h156l-16 -80h-156l-29 -147h-89z" />
    <glyph glyph-name="brokenbar" unicode="&#xa6;" horiz-adv-x="245" 
d="M180 -50h-80v349h80v-349zM180 401h-80v349h80v-349z" />
    <glyph glyph-name="section" unicode="&#xa7;" horiz-adv-x="568" 
d="M24 -64l80 23c7 -61 34 -91 94 -91s106 38 106 102c0 100 -71 105 -158 158c-47 26 -83 64 -83 132c0 86 56 127 114 154c-20 27 -33 64 -33 95c0 115 83 199 211 199c87 0 153 -55 158 -148l-80 -23c-7 61 -34 91 -94 91s-106 -38 -106 -102c0 -99 71 -108 158 -158
c48 -29 85 -62 85 -132c0 -86 -58 -128 -116 -154c20 -27 33 -64 33 -95c0 -115 -83 -199 -211 -199c-87 0 -153 55 -158 148zM143 272c0 -81 93 -95 166 -143c47 17 85 46 85 95c0 81 -93 95 -166 143c-47 -17 -85 -46 -85 -95z" />
    <glyph glyph-name="dieresis" unicode="&#xa8;" horiz-adv-x="302" 
d="M58 651c0 32 25 57 56 57c33 0 57 -25 57 -57s-24 -56 -57 -56c-31 0 -56 24 -56 56zM224 651c0 32 25 57 56 57c33 0 57 -25 57 -57s-24 -56 -57 -56c-31 0 -56 24 -56 56z" />
    <glyph glyph-name="copyright" unicode="&#xa9;" horiz-adv-x="900" 
d="M70 350c0 222 161 390 380 390s380 -168 380 -390s-161 -390 -380 -390s-380 168 -380 390zM150 350c0 -176 119 -314 300 -314s300 138 300 314s-119 314 -300 314s-300 -138 -300 -314zM254 350c0 151 103 216 196 216c84 0 157 -48 173 -131l-70 -17
c-17 55 -51 78 -103 78c-66 0 -120 -42 -120 -146s54 -146 120 -146c52 0 86 23 103 78l70 -17c-16 -83 -89 -131 -173 -131c-93 0 -196 65 -196 216z" />
    <glyph glyph-name="ordfeminine" unicode="&#xaa;" horiz-adv-x="420" 
d="M58 414c0 89 77 130 194 130h50v18c0 60 -36 80 -84 80c-43 0 -70 -20 -81 -61l-65 16c17 68 69 107 146 107c91 0 155 -40 155 -143v-261h-56l-11 54c-25 -35 -63 -58 -123 -58c-70 0 -125 36 -125 118zM131 414c0 -40 25 -57 62 -57c47 0 109 30 109 111v18h-41
c-91 0 -130 -27 -130 -72z" />
    <glyph glyph-name="guillemotleft" unicode="&#xab;" horiz-adv-x="616" 
d="M274 80l-239 199l13 62l316 204l-21 -107l-222 -135l170 -135zM504 80l-239 199l13 62l316 204l-21 -107l-222 -135l170 -135z" />
    <glyph glyph-name="logicalnot" unicode="&#xac;" horiz-adv-x="542" 
d="M391 313h-349v76h433v-247h-84v171z" />
    <glyph glyph-name="uni00AD" unicode="&#xad;" horiz-adv-x="479" 
d="M394 280h-339l15 74h339z" />
    <glyph glyph-name="registered" unicode="&#xae;" horiz-adv-x="900" 
d="M70 350c0 222 161 390 380 390s380 -168 380 -390s-161 -390 -380 -390s-380 168 -380 390zM150 350c0 -176 119 -314 300 -314s300 138 300 314s-119 314 -300 314s-300 -138 -300 -314zM382 137h-72v426h153c88 0 132 -50 132 -122c0 -63 -39 -107 -94 -118l127 -186
h-82l-126 182h-38v-182zM382 493v-104h80c44 0 61 19 61 52s-17 52 -61 52h-80z" />
    <glyph glyph-name="overscore" unicode="&#xaf;" horiz-adv-x="286" 
d="M316 632h-249l15 76h249z" />
    <glyph glyph-name="degree" unicode="&#xb0;" horiz-adv-x="351" 
d="M100 593c0 64 47 111 112 111s112 -47 112 -111s-47 -111 -112 -111s-112 47 -112 111zM164 593c0 -29 17 -49 48 -49s48 20 48 49s-17 49 -48 49s-48 -20 -48 -49z" />
    <glyph glyph-name="plusminus" unicode="&#xb1;" horiz-adv-x="572" 
d="M506 0h-440v74h440v-74zM249 362h-183v74h183v183h74v-183h183v-74h-183v-183h-74v183z" />
    <glyph glyph-name="uni00B2" unicode="&#xb2;" horiz-adv-x="447" 
d="M335 300h-255l5 25l179 184c29 29 50 51 50 88c0 31 -15 47 -45 47c-31 0 -60 -25 -72 -69l-61 17c17 68 69 112 142 112c60 0 103 -35 103 -91c0 -54 -13 -85 -60 -132l-120 -121h146z" />
    <glyph glyph-name="uni00B3" unicode="&#xb3;" horiz-adv-x="429" 
d="M96 415l66 9c0 -44 23 -68 59 -68c48 0 79 36 79 88c0 35 -18 58 -54 58c-15 0 -31 -6 -39 -11l-23 41l99 108h-128l12 60h227l-5 -23l-118 -126c60 0 96 -37 96 -100c0 -92 -65 -155 -157 -155c-71 0 -114 47 -114 119z" />
    <glyph glyph-name="acute" unicode="&#xb4;" horiz-adv-x="210" 
d="M120 560h-72l97 144h123z" />
    <glyph glyph-name="uni00B5" unicode="&#xb5;" horiz-adv-x="578" 
d="M159 -204h-84v708h84v-333c0 -69 31 -103 87 -103c75 0 144 85 144 225v211h84v-504h-84v93c-37 -65 -96 -101 -167 -101c-24 0 -45 4 -64 11v-207z" />
    <glyph glyph-name="paragraph" unicode="&#xb6;" horiz-adv-x="686" 
d="M80 480c0 145 109 220 234 220h351l-14 -76h-62l-161 -828h-85l161 828h-119l-161 -828h-85l100 518c-88 0 -159 70 -159 166z" />
    <glyph glyph-name="middot" unicode="&#xb7;" horiz-adv-x="275" 
d="M80 349c0 35 27 63 63 63c35 0 63 -28 63 -63c0 -36 -28 -63 -63 -63c-36 0 -63 27 -63 63z" />
    <glyph glyph-name="cedilla" unicode="&#xb8;" horiz-adv-x="188" 
d="M29 -235l-89 45l126 130h74z" />
    <glyph glyph-name="uni00B9" unicode="&#xb9;" horiz-adv-x="332" 
d="M190 607l-94 -41l14 73l137 61h25l-77 -400h-65z" />
    <glyph glyph-name="ordmasculine" unicode="&#xba;" horiz-adv-x="420" 
d="M38 500c0 107 68 204 192 204c122 0 192 -97 192 -204c0 -108 -70 -204 -192 -204c-124 0 -192 96 -192 204zM111 500c0 -78 38 -142 119 -142s118 64 118 142c0 77 -37 143 -118 143s-119 -66 -119 -143z" />
    <glyph glyph-name="guillemotright" unicode="&#xbb;" horiz-adv-x="616" 
d="M334 284l-316 -204l21 107l222 135l-170 135l17 88l239 -199zM564 284l-316 -204l21 107l222 135l-170 135l17 88l239 -199z" />
    <glyph glyph-name="onequarter" unicode="&#xbc;" horiz-adv-x="902" 
d="M229 607l-94 -41l14 73l137 61h25l-77 -400h-65zM125 -29l-45 44l676 718l46 -43zM618 78h-177l5 26l217 297h81l-51 -263h51l-11 -60h-51l-15 -77h-64zM662 308l-121 -170h88z" />
    <glyph glyph-name="onehalf" unicode="&#xbd;" horiz-adv-x="918" 
d="M229 607l-94 -41l14 73l137 61h25l-77 -400h-65zM764 1h-255l5 25l179 184c29 29 50 51 50 88c0 31 -15 47 -45 47c-31 0 -60 -25 -72 -69l-61 17c17 68 69 112 142 112c60 0 103 -35 103 -91c0 -54 -13 -85 -60 -132l-120 -121h146zM125 -29l-45 44l676 718l46 -43z" />
    <glyph glyph-name="threequarters" unicode="&#xbe;" horiz-adv-x="973" 
d="M196 -29l-45 44l676 718l46 -43zM96 415l66 9c0 -44 23 -68 59 -68c48 0 79 36 79 88c0 35 -18 58 -54 58c-15 0 -31 -6 -39 -11l-23 41l99 108h-128l12 60h227l-5 -23l-118 -126c60 0 96 -37 96 -100c0 -92 -65 -155 -157 -155c-71 0 -114 47 -114 119zM686 78h-177
l5 26l217 297h81l-51 -263h51l-11 -60h-51l-15 -77h-64zM730 308l-121 -170h88z" />
    <glyph glyph-name="questiondown" unicode="&#xbf;" horiz-adv-x="445" 
d="M344 179c0 -75 -47 -110 -112 -138l-98 -43c-31 -15 -61 -34 -61 -77c0 -44 34 -65 74 -65c55 0 93 41 116 97l77 -21c-29 -84 -100 -146 -203 -146c-91 0 -147 50 -147 130c0 71 39 107 98 135l119 57c33 16 61 33 61 70c0 31 -21 45 -45 45c-39 0 -58 -28 -79 -65
l-65 29c43 83 80 106 145 106c72 0 120 -47 120 -114zM329 431c0 -39 -29 -68 -66 -68c-39 0 -68 29 -68 68c0 37 29 66 68 66c37 0 66 -29 66 -66z" />
    <glyph glyph-name="Agrave" unicode="&#xc0;" horiz-adv-x="574" 
d="M32 0h-89l372 700h85l106 -700h-89l-25 187h-261zM335 586l-160 -315h205zM330 756l-101 144h121l48 -144h-68z" />
    <glyph glyph-name="Aacute" unicode="&#xc1;" horiz-adv-x="574" 
d="M32 0h-89l372 700h85l106 -700h-89l-25 187h-261zM335 586l-160 -315h205zM371 756h-72l97 144h123z" />
    <glyph glyph-name="Acircumflex" unicode="&#xc2;" horiz-adv-x="574" 
d="M32 0h-89l372 700h85l106 -700h-89l-25 187h-261zM335 586l-160 -315h205zM295 762h-98l179 164h31l124 -164h-89l-61 80z" />
    <glyph glyph-name="Atilde" unicode="&#xc3;" horiz-adv-x="574" 
d="M32 0h-89l372 700h85l106 -700h-89l-25 187h-261zM335 586l-160 -315h205zM226 781l-41 42c32 43 77 73 121 73c67 0 70 -40 120 -40c28 0 50 12 73 35l41 -43c-32 -43 -77 -72 -121 -72c-68 0 -69 40 -120 40c-28 0 -50 -12 -73 -35z" />
    <glyph glyph-name="Adieresis" unicode="&#xc4;" horiz-adv-x="574" 
d="M32 0h-89l372 700h85l106 -700h-89l-25 187h-261zM335 586l-160 -315h205zM246 847c0 32 25 57 56 57c33 0 57 -25 57 -57s-24 -56 -57 -56c-31 0 -56 24 -56 56zM412 847c0 32 25 57 56 57c33 0 57 -25 57 -57s-24 -56 -57 -56c-31 0 -56 24 -56 56z" />
    <glyph glyph-name="Aring" unicode="&#xc5;" horiz-adv-x="574" 
d="M32 0h-89l372 700h85l106 -700h-89l-25 187h-261zM335 586l-160 -315h205zM289 849c0 56 43 100 99 100c59 0 99 -44 99 -100c0 -55 -40 -96 -99 -96c-56 0 -99 43 -99 96zM345 850c0 -25 18 -44 43 -44c27 0 43 19 43 44c0 27 -16 46 -43 46c-25 0 -43 -19 -43 -46z" />
    <glyph glyph-name="AE" unicode="&#xc6;" horiz-adv-x="836" 
d="M41 0h-99l444 700h455l-17 -84h-307l-39 -201h250l-16 -84h-250l-48 -247h317l-17 -84h-406l37 187h-187zM406 585l-196 -314h151l61 314h-16z" />
    <glyph glyph-name="Ccedilla" unicode="&#xc7;" horiz-adv-x="662" 
d="M39 272c0 221 143 436 388 436c138 0 219 -102 227 -212l-85 -23c-17 105 -69 151 -158 151c-184 0 -280 -175 -280 -342c0 -133 58 -206 173 -206c92 0 154 44 213 153l78 -25c-64 -139 -161 -212 -302 -212c-147 0 -254 97 -254 280zM211 -235l-89 45l126 130h74z" />
    <glyph glyph-name="Egrave" unicode="&#xc8;" horiz-adv-x="563" 
d="M441 0h-406l137 700h396l-17 -84h-307l-39 -201h250l-16 -84h-250l-48 -247h317zM394 756l-101 144h121l48 -144h-68z" />
    <glyph glyph-name="Eacute" unicode="&#xc9;" horiz-adv-x="563" 
d="M441 0h-406l137 700h396l-17 -84h-307l-39 -201h250l-16 -84h-250l-48 -247h317zM372 756h-72l97 144h123z" />
    <glyph glyph-name="Ecircumflex" unicode="&#xca;" horiz-adv-x="563" 
d="M441 0h-406l137 700h396l-17 -84h-307l-39 -201h250l-16 -84h-250l-48 -247h317zM310 762h-98l179 164h31l124 -164h-89l-61 80z" />
    <glyph glyph-name="Edieresis" unicode="&#xcb;" horiz-adv-x="563" 
d="M441 0h-406l137 700h396l-17 -84h-307l-39 -201h250l-16 -84h-250l-48 -247h317zM243 847c0 32 25 57 56 57c33 0 57 -25 57 -57s-24 -56 -57 -56c-31 0 -56 24 -56 56zM409 847c0 32 25 57 56 57c33 0 57 -25 57 -57s-24 -56 -57 -56c-31 0 -56 24 -56 56z" />
    <glyph glyph-name="Igrave" unicode="&#xcc;" horiz-adv-x="296" 
d="M124 0h-89l137 700h89zM215 756l-101 144h121l48 -144h-68z" />
    <glyph glyph-name="Iacute" unicode="&#xcd;" horiz-adv-x="296" 
d="M124 0h-89l137 700h89zM237 756h-72l97 144h123z" />
    <glyph glyph-name="Icircumflex" unicode="&#xce;" horiz-adv-x="296" 
d="M124 0h-89l137 700h89zM154 762h-98l179 164h31l124 -164h-89l-61 80z" />
    <glyph glyph-name="Idieresis" unicode="&#xcf;" horiz-adv-x="296" 
d="M124 0h-89l137 700h89zM100 847c0 32 25 57 56 57c33 0 57 -25 57 -57s-24 -56 -57 -56c-31 0 -56 24 -56 56zM266 847c0 32 25 57 56 57c33 0 57 -25 57 -57s-24 -56 -57 -56c-31 0 -56 24 -56 56z" />
    <glyph glyph-name="Eth" unicode="&#xd0;" horiz-adv-x="669" 
d="M229 0h-194l60 308h-58l17 84h57l61 308h180c162 0 276 -92 276 -279c0 -234 -159 -421 -399 -421zM184 308l-43 -224h89c188 0 303 145 303 328c0 137 -71 204 -200 204h-89l-44 -224h130l-17 -84h-129z" />
    <glyph glyph-name="Ntilde" unicode="&#xd1;" horiz-adv-x="706" 
d="M124 0h-89l137 700h99l204 -547l107 547h89l-137 -700h-99l-205 545zM304 781l-41 42c32 43 77 73 121 73c67 0 70 -40 120 -40c28 0 50 12 73 35l41 -43c-32 -43 -77 -72 -121 -72c-68 0 -69 40 -120 40c-28 0 -50 -12 -73 -35z" />
    <glyph glyph-name="Ograve" unicode="&#xd2;" horiz-adv-x="713" 
d="M39 275c0 147 54 264 151 348c69 60 139 85 235 85c144 0 247 -103 247 -283c0 -147 -54 -264 -151 -348c-69 -60 -139 -85 -235 -85c-144 0 -247 103 -247 283zM131 283c0 -135 59 -207 170 -207c72 0 133 31 181 82c63 67 98 159 98 259c0 135 -59 207 -170 207
c-72 0 -133 -31 -181 -82c-63 -67 -98 -159 -98 -259zM415 756l-101 144h121l48 -144h-68z" />
    <glyph glyph-name="Oacute" unicode="&#xd3;" horiz-adv-x="713" 
d="M39 275c0 147 54 264 151 348c69 60 139 85 235 85c144 0 247 -103 247 -283c0 -147 -54 -264 -151 -348c-69 -60 -139 -85 -235 -85c-144 0 -247 103 -247 283zM131 283c0 -135 59 -207 170 -207c72 0 133 31 181 82c63 67 98 159 98 259c0 135 -59 207 -170 207
c-72 0 -133 -31 -181 -82c-63 -67 -98 -159 -98 -259zM427 756h-72l97 144h123z" />
    <glyph glyph-name="Ocircumflex" unicode="&#xd4;" horiz-adv-x="713" 
d="M39 275c0 147 54 264 151 348c69 60 139 85 235 85c144 0 247 -103 247 -283c0 -147 -54 -264 -151 -348c-69 -60 -139 -85 -235 -85c-144 0 -247 103 -247 283zM131 283c0 -135 59 -207 170 -207c72 0 133 31 181 82c63 67 98 159 98 259c0 135 -59 207 -170 207
c-72 0 -133 -31 -181 -82c-63 -67 -98 -159 -98 -259zM357 762h-98l179 164h31l124 -164h-89l-61 80z" />
    <glyph glyph-name="Otilde" unicode="&#xd5;" horiz-adv-x="713" 
d="M39 275c0 147 54 264 151 348c69 60 139 85 235 85c144 0 247 -103 247 -283c0 -147 -54 -264 -151 -348c-69 -60 -139 -85 -235 -85c-144 0 -247 103 -247 283zM131 283c0 -135 59 -207 170 -207c72 0 133 31 181 82c63 67 98 159 98 259c0 135 -59 207 -170 207
c-72 0 -133 -31 -181 -82c-63 -67 -98 -159 -98 -259zM308 781l-41 42c32 43 77 73 121 73c67 0 70 -40 120 -40c28 0 50 12 73 35l41 -43c-32 -43 -77 -72 -121 -72c-68 0 -69 40 -120 40c-28 0 -50 -12 -73 -35z" />
    <glyph glyph-name="Odieresis" unicode="&#xd6;" horiz-adv-x="713" 
d="M39 275c0 147 54 264 151 348c69 60 139 85 235 85c144 0 247 -103 247 -283c0 -147 -54 -264 -151 -348c-69 -60 -139 -85 -235 -85c-144 0 -247 103 -247 283zM131 283c0 -135 59 -207 170 -207c72 0 133 31 181 82c63 67 98 159 98 259c0 135 -59 207 -170 207
c-72 0 -133 -31 -181 -82c-63 -67 -98 -159 -98 -259zM305 847c0 32 25 57 56 57c33 0 57 -25 57 -57s-24 -56 -57 -56c-31 0 -56 24 -56 56zM471 847c0 32 25 57 56 57c33 0 57 -25 57 -57s-24 -56 -57 -56c-31 0 -56 24 -56 56z" />
    <glyph glyph-name="multiply" unicode="&#xd7;" horiz-adv-x="552" 
d="M118 109l-52 52l158 158l-158 158l52 52l158 -158l158 158l52 -52l-158 -158l158 -158l-52 -52l-158 158z" />
    <glyph glyph-name="Oslash" unicode="&#xd8;" horiz-adv-x="713" 
d="M39 -29l-50 48l88 92c-24 44 -37 97 -37 164c0 147 54 264 151 348c69 60 139 85 235 85c67 0 123 -21 167 -63l81 84l50 -48l-89 -92c24 -44 38 -99 38 -164c0 -147 -54 -264 -151 -348c-69 -60 -139 -85 -235 -85c-67 0 -123 21 -167 63zM132 283c0 -39 5 -73 15 -101
l382 397c-28 30 -67 45 -118 45c-72 0 -133 -31 -181 -82c-63 -67 -98 -159 -98 -259zM566 517l-383 -397c29 -29 69 -44 119 -44c72 0 133 31 181 82c63 67 98 159 98 259c0 39 -6 72 -15 100z" />
    <glyph glyph-name="Ugrave" unicode="&#xd9;" horiz-adv-x="672" 
d="M70 171c0 19 2 46 6 67l89 462h89l-91 -468c-3 -13 -4 -28 -4 -40c0 -75 37 -116 122 -116c103 0 167 57 186 156l91 468h89l-89 -462c-34 -178 -141 -246 -288 -246c-120 0 -200 72 -200 179zM407 756l-101 144h121l48 -144h-68z" />
    <glyph glyph-name="Uacute" unicode="&#xda;" horiz-adv-x="672" 
d="M70 171c0 19 2 46 6 67l89 462h89l-91 -468c-3 -13 -4 -28 -4 -40c0 -75 37 -116 122 -116c103 0 167 57 186 156l91 468h89l-89 -462c-34 -178 -141 -246 -288 -246c-120 0 -200 72 -200 179zM412 756h-72l97 144h123z" />
    <glyph glyph-name="Ucircumflex" unicode="&#xdb;" horiz-adv-x="672" 
d="M70 171c0 19 2 46 6 67l89 462h89l-91 -468c-3 -13 -4 -28 -4 -40c0 -75 37 -116 122 -116c103 0 167 57 186 156l91 468h89l-89 -462c-34 -178 -141 -246 -288 -246c-120 0 -200 72 -200 179zM342 762h-98l179 164h31l124 -164h-89l-61 80z" />
    <glyph glyph-name="Udieresis" unicode="&#xdc;" horiz-adv-x="671" 
d="M70 171c0 19 2 46 6 67l89 462h89l-91 -468c-3 -13 -4 -28 -4 -40c0 -75 37 -116 122 -116c103 0 167 57 186 156l91 468h89l-89 -462c-34 -178 -141 -246 -288 -246c-120 0 -200 72 -200 179zM288 847c0 32 25 57 56 57c33 0 57 -25 57 -57s-24 -56 -57 -56
c-31 0 -56 24 -56 56zM454 847c0 32 25 57 56 57c33 0 57 -25 57 -57s-24 -56 -57 -56c-31 0 -56 24 -56 56z" />
    <glyph glyph-name="Yacute" unicode="&#xdd;" horiz-adv-x="484" 
d="M182 302l-126 398h94l91 -310l210 310h99l-279 -398l-59 -302h-89zM309 756h-72l97 144h123z" />
    <glyph glyph-name="Thorn" unicode="&#xde;" horiz-adv-x="578" 
d="M124 0h-89l136 700h89l-29 -150h135c113 0 187 -63 187 -166c0 -156 -103 -234 -258 -234h-142zM214 466l-45 -232h153c80 0 138 46 138 134c0 60 -31 98 -100 98h-146z" />
    <glyph glyph-name="germandbls" unicode="&#xdf;" horiz-adv-x="578" 
d="M121 0h-83l67 344h-50l14 76h50l17 85c27 136 121 203 228 203c97 0 155 -59 155 -152c0 -83 -39 -143 -116 -171c51 -16 102 -64 102 -158c0 -155 -113 -235 -249 -235c-44 0 -67 3 -83 7l15 76c19 -4 39 -7 70 -7c104 0 162 52 162 147c0 87 -50 129 -126 129h-27
l14 76h35c72 0 122 43 122 118c0 61 -33 94 -89 94c-64 0 -114 -46 -130 -130z" />
    <glyph glyph-name="agrave" unicode="&#xe0;" horiz-adv-x="586" 
d="M27 197c0 165 93 315 273 315c72 0 121 -39 134 -68l11 60h85l-97 -504h-85l12 62c-39 -43 -88 -70 -149 -70c-127 0 -184 90 -184 205zM116 220c0 -92 43 -152 119 -152c123 0 174 133 174 236c0 80 -40 132 -116 132c-123 0 -177 -116 -177 -216zM312 560l-101 144h121
l48 -144h-68z" />
    <glyph glyph-name="aacute" unicode="&#xe1;" horiz-adv-x="586" 
d="M27 197c0 165 93 315 273 315c72 0 121 -39 134 -68l11 60h85l-97 -504h-85l12 62c-39 -43 -88 -70 -149 -70c-127 0 -184 90 -184 205zM116 220c0 -92 43 -152 119 -152c123 0 174 133 174 236c0 80 -40 132 -116 132c-123 0 -177 -116 -177 -216zM322 560h-72l97 144
h123z" />
    <glyph glyph-name="acircumflex" unicode="&#xe2;" horiz-adv-x="586" 
d="M27 197c0 165 93 315 273 315c72 0 121 -39 134 -68l11 60h85l-97 -504h-85l12 62c-39 -43 -88 -70 -149 -70c-127 0 -184 90 -184 205zM116 220c0 -92 43 -152 119 -152c123 0 174 133 174 236c0 80 -40 132 -116 132c-123 0 -177 -116 -177 -216zM268 566h-98l179 164
h31l124 -164h-89l-61 80z" />
    <glyph glyph-name="atilde" unicode="&#xe3;" horiz-adv-x="586" 
d="M27 197c0 165 93 315 273 315c72 0 121 -39 134 -68l11 60h85l-97 -504h-85l12 62c-39 -43 -88 -70 -149 -70c-127 0 -184 90 -184 205zM116 220c0 -92 43 -152 119 -152c123 0 174 133 174 236c0 80 -40 132 -116 132c-123 0 -177 -116 -177 -216zM214 585l-41 42
c32 43 77 73 121 73c67 0 70 -40 120 -40c28 0 50 12 73 35l41 -43c-32 -43 -77 -72 -121 -72c-68 0 -69 40 -120 40c-28 0 -50 -12 -73 -35z" />
    <glyph glyph-name="adieresis" unicode="&#xe4;" horiz-adv-x="586" 
d="M27 197c0 165 93 315 273 315c72 0 121 -39 134 -68l11 60h85l-97 -504h-85l12 62c-39 -43 -88 -70 -149 -70c-127 0 -184 90 -184 205zM116 220c0 -92 43 -152 119 -152c123 0 174 133 174 236c0 80 -40 132 -116 132c-123 0 -177 -116 -177 -216zM215 651
c0 32 25 57 56 57c33 0 57 -25 57 -57s-24 -56 -57 -56c-31 0 -56 24 -56 56zM381 651c0 32 25 57 56 57c33 0 57 -25 57 -57s-24 -56 -57 -56c-31 0 -56 24 -56 56z" />
    <glyph glyph-name="aring" unicode="&#xe5;" horiz-adv-x="586" 
d="M27 197c0 165 93 315 273 315c72 0 121 -39 134 -68l11 60h85l-97 -504h-85l12 62c-39 -43 -88 -70 -149 -70c-127 0 -184 90 -184 205zM116 220c0 -92 43 -152 119 -152c123 0 174 133 174 236c0 80 -40 132 -116 132c-123 0 -177 -116 -177 -216zM253 653
c0 56 43 100 99 100c59 0 99 -44 99 -100c0 -55 -40 -96 -99 -96c-56 0 -99 43 -99 96zM309 654c0 -25 18 -44 43 -44c27 0 43 19 43 44c0 27 -16 46 -43 46c-25 0 -43 -19 -43 -46z" />
    <glyph glyph-name="ae" unicode="&#xe6;" horiz-adv-x="891" 
d="M27 131c0 132 102 179 224 179h122l5 22c1 5 2 10 2 14v10c0 57 -36 80 -93 80c-53 0 -92 -30 -113 -81l-76 19c31 85 104 138 204 138c68 0 125 -27 149 -83c51 51 116 83 195 83c116 0 186 -74 186 -189c0 -19 -1 -27 -5 -50l-8 -39h-374c-2 -13 -3 -25 -3 -36
c0 -80 41 -130 118 -130c75 0 117 36 157 99l72 -35c-67 -99 -136 -140 -244 -140c-83 0 -142 41 -171 109c-47 -76 -108 -109 -187 -109c-104 0 -160 59 -160 139zM116 143c0 -48 33 -75 81 -75c64 0 136 39 157 154l2 12h-123c-64 0 -117 -26 -117 -91zM465 310h278
c0 76 -31 126 -112 126c-76 0 -137 -53 -166 -126z" />
    <glyph glyph-name="ccedilla" unicode="&#xe7;" horiz-adv-x="540" 
d="M27 203c0 151 100 309 287 309c103 0 158 -48 181 -140l-76 -29c-17 64 -56 93 -120 93c-112 0 -183 -107 -183 -224c0 -91 44 -144 113 -144c68 0 110 34 151 102l71 -37c-69 -109 -134 -141 -237 -141c-115 0 -187 85 -187 211zM164 -235l-89 45l126 130h74z" />
    <glyph glyph-name="egrave" unicode="&#xe8;" horiz-adv-x="562" 
d="M25 204c0 151 120 308 292 308c116 0 186 -74 186 -189c0 -19 -1 -27 -5 -50l-8 -39h-373c-2 -13 -3 -25 -3 -36c0 -80 40 -130 117 -130c75 0 117 36 157 99l72 -35c-67 -99 -136 -140 -244 -140c-117 0 -191 87 -191 212zM136 310h278c0 79 -31 126 -112 126
c-76 0 -137 -53 -166 -126zM326 560l-101 144h121l48 -144h-68z" />
    <glyph glyph-name="eacute" unicode="&#xe9;" horiz-adv-x="562" 
d="M25 204c0 151 120 308 292 308c116 0 186 -74 186 -189c0 -19 -1 -27 -5 -50l-8 -39h-373c-2 -13 -3 -25 -3 -36c0 -80 40 -130 117 -130c75 0 117 36 157 99l72 -35c-67 -99 -136 -140 -244 -140c-117 0 -191 87 -191 212zM136 310h278c0 79 -31 126 -112 126
c-76 0 -137 -53 -166 -126zM330 560h-72l97 144h123z" />
    <glyph glyph-name="ecircumflex" unicode="&#xea;" horiz-adv-x="562" 
d="M25 204c0 151 120 308 292 308c116 0 186 -74 186 -189c0 -19 -1 -27 -5 -50l-8 -39h-373c-2 -13 -3 -25 -3 -36c0 -80 40 -130 117 -130c75 0 117 36 157 99l72 -35c-67 -99 -136 -140 -244 -140c-117 0 -191 87 -191 212zM136 310h278c0 79 -31 126 -112 126
c-76 0 -137 -53 -166 -126zM267 566h-98l179 164h31l124 -164h-89l-61 80z" />
    <glyph glyph-name="edieresis" unicode="&#xeb;" horiz-adv-x="562" 
d="M25 204c0 151 120 308 292 308c116 0 186 -74 186 -189c0 -19 -1 -27 -5 -50l-8 -39h-373c-2 -13 -3 -25 -3 -36c0 -80 40 -130 117 -130c75 0 117 36 157 99l72 -35c-67 -99 -136 -140 -244 -140c-117 0 -191 87 -191 212zM136 310h278c0 79 -31 126 -112 126
c-76 0 -137 -53 -166 -126zM198 651c0 32 25 57 56 57c33 0 57 -25 57 -57s-24 -56 -57 -56c-31 0 -56 24 -56 56zM364 651c0 32 25 57 56 57c33 0 57 -25 57 -57s-24 -56 -57 -56c-31 0 -56 24 -56 56z" />
    <glyph glyph-name="igrave" unicode="&#xec;" horiz-adv-x="276" 
d="M115 0h-85l98 504h85zM176 560l-101 144h121l48 -144h-68z" />
    <glyph glyph-name="iacute" unicode="&#xed;" horiz-adv-x="276" 
d="M115 0h-85l98 504h85zM197 560h-72l97 144h123z" />
    <glyph glyph-name="icircumflex" unicode="&#xee;" horiz-adv-x="276" 
d="M115 0h-85l98 504h85zM110 566h-98l179 164h31l124 -164h-89l-61 80z" />
    <glyph glyph-name="idieresis" unicode="&#xef;" horiz-adv-x="276" 
d="M115 0h-85l98 504h85zM55 651c0 32 25 57 56 57c33 0 57 -25 57 -57s-24 -56 -57 -56c-31 0 -56 24 -56 56zM221 651c0 32 25 57 56 57c33 0 57 -25 57 -57s-24 -56 -57 -56c-31 0 -56 24 -56 56z" />
    <glyph glyph-name="eth" unicode="&#xf0;" horiz-adv-x="575" 
d="M27 207c0 161 105 305 277 305c44 0 92 -16 111 -44c-11 57 -35 100 -82 136l-53 -62l-51 42l51 60c-23 15 -46 27 -71 38l49 58c27 -12 51 -24 72 -39l48 54l49 -42l-43 -51c83 -65 126 -179 126 -292c0 -207 -88 -378 -295 -378c-123 0 -188 97 -188 215zM116 208
c0 -79 32 -140 114 -140c117 0 185 114 185 223c0 88 -32 145 -119 145c-118 0 -180 -118 -180 -228z" />
    <glyph glyph-name="ntilde" unicode="&#xf1;" horiz-adv-x="577" 
d="M115 0h-85l98 504h85l-18 -93c49 65 110 101 182 101c77 0 122 -39 122 -110c0 -24 0 -32 -3 -47l-69 -355h-85l64 333c3 12 4 24 4 35c0 43 -22 68 -67 68c-67 0 -160 -85 -187 -225zM207 585l-41 42c32 43 77 73 121 73c67 0 70 -40 120 -40c28 0 50 12 73 35l41 -43
c-32 -43 -77 -72 -121 -72c-68 0 -69 40 -120 40c-28 0 -50 -12 -73 -35z" />
    <glyph glyph-name="ograve" unicode="&#xf2;" horiz-adv-x="573" 
d="M27 204c0 92 28 159 69 210c53 67 121 98 213 98c124 0 199 -77 199 -212c0 -92 -28 -159 -69 -210c-53 -67 -121 -98 -213 -98c-124 0 -199 77 -199 212zM116 216c0 -92 38 -148 118 -148c61 0 107 28 140 71s45 90 45 149c0 92 -38 148 -118 148
c-61 0 -107 -28 -140 -71s-45 -90 -45 -149zM325 560l-101 144h121l48 -144h-68z" />
    <glyph glyph-name="oacute" unicode="&#xf3;" horiz-adv-x="573" 
d="M27 204c0 92 28 159 69 210c53 67 121 98 213 98c124 0 199 -77 199 -212c0 -92 -28 -159 -69 -210c-53 -67 -121 -98 -213 -98c-124 0 -199 77 -199 212zM116 216c0 -92 38 -148 118 -148c61 0 107 28 140 71s45 90 45 149c0 92 -38 148 -118 148
c-61 0 -107 -28 -140 -71s-45 -90 -45 -149zM332 560h-72l97 144h123z" />
    <glyph glyph-name="ocircumflex" unicode="&#xf4;" horiz-adv-x="573" 
d="M27 204c0 92 28 159 69 210c53 67 121 98 213 98c124 0 199 -77 199 -212c0 -92 -28 -159 -69 -210c-53 -67 -121 -98 -213 -98c-124 0 -199 77 -199 212zM116 216c0 -92 38 -148 118 -148c61 0 107 28 140 71s45 90 45 149c0 92 -38 148 -118 148
c-61 0 -107 -28 -140 -71s-45 -90 -45 -149zM247 566h-98l179 164h31l124 -164h-89l-61 80z" />
    <glyph glyph-name="otilde" unicode="&#xf5;" horiz-adv-x="573" 
d="M27 204c0 92 28 159 69 210c53 67 121 98 213 98c124 0 199 -77 199 -212c0 -92 -28 -159 -69 -210c-53 -67 -121 -98 -213 -98c-124 0 -199 77 -199 212zM116 216c0 -92 38 -148 118 -148c61 0 107 28 140 71s45 90 45 149c0 92 -38 148 -118 148
c-61 0 -107 -28 -140 -71s-45 -90 -45 -149zM200 585l-41 42c32 43 77 73 121 73c67 0 70 -40 120 -40c28 0 50 12 73 35l41 -43c-32 -43 -77 -72 -121 -72c-68 0 -69 40 -120 40c-28 0 -50 -12 -73 -35z" />
    <glyph glyph-name="odieresis" unicode="&#xf6;" horiz-adv-x="573" 
d="M27 204c0 92 28 159 69 210c53 67 121 98 213 98c124 0 199 -77 199 -212c0 -92 -28 -159 -69 -210c-53 -67 -121 -98 -213 -98c-124 0 -199 77 -199 212zM116 216c0 -92 38 -148 118 -148c61 0 107 28 140 71s45 90 45 149c0 92 -38 148 -118 148
c-61 0 -107 -28 -140 -71s-45 -90 -45 -149zM207 651c0 32 25 57 56 57c33 0 57 -25 57 -57s-24 -56 -57 -56c-31 0 -56 24 -56 56zM373 651c0 32 25 57 56 57c33 0 57 -25 57 -57s-24 -56 -57 -56c-31 0 -56 24 -56 56z" />
    <glyph glyph-name="divide" unicode="&#xf7;" horiz-adv-x="576" 
d="M510 280h-440v74h440v-74zM227 128c0 35 27 63 63 63c35 0 63 -28 63 -63c0 -36 -28 -63 -63 -63c-36 0 -63 27 -63 63zM227 502c0 35 27 63 63 63c35 0 63 -28 63 -63c0 -36 -28 -63 -63 -63c-36 0 -63 27 -63 63z" />
    <glyph glyph-name="oslash" unicode="&#xf8;" horiz-adv-x="573" 
d="M27 -45l-51 48l79 81c-19 33 -28 73 -28 120c0 92 28 159 69 210c53 67 126 98 213 98c51 0 93 -13 127 -39l74 76l51 -48l-80 -82c18 -32 27 -72 27 -119c0 -92 -24 -154 -68 -210c-53 -67 -127 -98 -214 -98c-51 0 -92 13 -125 39zM116 216c0 -24 -1 -45 6 -64l254 259
c-19 17 -44 25 -75 25c-64 0 -107 -28 -140 -71s-45 -90 -45 -149zM413 350l-253 -259c19 -15 44 -23 74 -23c61 0 107 28 140 71s45 90 45 149c0 23 -1 43 -6 62z" />
    <glyph glyph-name="ugrave" unicode="&#xf9;" horiz-adv-x="577" 
d="M52 102c0 24 0 32 3 47l69 355h85l-64 -333c-3 -12 -4 -24 -4 -35c0 -43 22 -68 67 -68c66 0 161 85 187 225l41 211h85l-98 -504h-85l18 93c-49 -65 -110 -101 -182 -101c-77 0 -122 39 -122 110zM337 560l-101 144h121l48 -144h-68z" />
    <glyph glyph-name="uacute" unicode="&#xfa;" horiz-adv-x="577" 
d="M52 102c0 24 0 32 3 47l69 355h85l-64 -333c-3 -12 -4 -24 -4 -35c0 -43 22 -68 67 -68c66 0 161 85 187 225l41 211h85l-98 -504h-85l18 93c-49 -65 -110 -101 -182 -101c-77 0 -122 39 -122 110zM327 560h-72l97 144h123z" />
    <glyph glyph-name="ucircumflex" unicode="&#xfb;" horiz-adv-x="577" 
d="M52 102c0 24 0 32 3 47l69 355h85l-64 -333c-3 -12 -4 -24 -4 -35c0 -43 22 -68 67 -68c66 0 161 85 187 225l41 211h85l-98 -504h-85l18 93c-49 -65 -110 -101 -182 -101c-77 0 -122 39 -122 110zM273 566h-98l179 164h31l124 -164h-89l-61 80z" />
    <glyph glyph-name="udieresis" unicode="&#xfc;" horiz-adv-x="577" 
d="M52 102c0 24 0 32 3 47l69 355h85l-64 -333c-3 -12 -4 -24 -4 -35c0 -43 22 -68 67 -68c66 0 161 85 187 225l41 211h85l-98 -504h-85l18 93c-49 -65 -110 -101 -182 -101c-77 0 -122 39 -122 110zM202 651c0 32 25 57 56 57c33 0 57 -25 57 -57s-24 -56 -57 -56
c-31 0 -56 24 -56 56zM368 651c0 32 25 57 56 57c33 0 57 -25 57 -57s-24 -56 -57 -56c-31 0 -56 24 -56 56z" />
    <glyph glyph-name="yacute" unicode="&#xfd;" horiz-adv-x="472" 
d="M86 -204h-89l125 236l-81 472h89l58 -364l194 364h89zM259 560h-72l97 144h123z" />
    <glyph glyph-name="thorn" unicode="&#xfe;" horiz-adv-x="594" 
d="M74 -204h-84l176 912h85l-51 -264c29 33 85 68 150 68c105 0 179 -67 179 -212c0 -161 -87 -308 -271 -308c-56 0 -116 34 -132 70zM150 211c0 -96 47 -143 115 -143c116 0 175 113 175 220c0 104 -41 148 -113 148c-104 0 -177 -114 -177 -225z" />
    <glyph glyph-name="ydieresis" unicode="&#xff;" horiz-adv-x="466" 
d="M86 -204h-89l125 236l-81 472h89l58 -364l194 364h89zM133 651c0 32 25 57 56 57c33 0 57 -25 57 -57s-24 -56 -57 -56c-31 0 -56 24 -56 56zM299 651c0 32 25 57 56 57c33 0 57 -25 57 -57s-24 -56 -57 -56c-31 0 -56 24 -56 56z" />
    <glyph glyph-name="Amacron" unicode="&#x100;" horiz-adv-x="574" 
d="M32 0h-89l372 700h85l106 -700h-89l-25 187h-261zM335 586l-160 -315h205zM492 808h-249l15 76h249z" />
    <glyph glyph-name="amacron" unicode="&#x101;" horiz-adv-x="586" 
d="M27 197c0 165 93 315 273 315c72 0 121 -39 134 -68l11 60h85l-97 -504h-85l12 62c-39 -43 -88 -70 -149 -70c-127 0 -184 90 -184 205zM116 220c0 -92 43 -152 119 -152c123 0 174 133 174 236c0 80 -40 132 -116 132c-123 0 -177 -116 -177 -216zM453 613h-249l15 76
h249z" />
    <glyph glyph-name="Abreve" unicode="&#x102;" horiz-adv-x="574" 
d="M32 0h-89l372 700h85l106 -700h-89l-25 187h-261zM335 586l-160 -315h205zM274 874c0 7 1 15 2 22h67c-1 -3 -1 -6 -1 -10c0 -21 13 -35 36 -35c29 0 48 18 53 45h67c-17 -71 -67 -109 -132 -109c-53 0 -92 35 -92 87z" />
    <glyph glyph-name="abreve" unicode="&#x103;" horiz-adv-x="586" 
d="M27 197c0 165 93 315 273 315c72 0 121 -39 134 -68l11 60h85l-97 -504h-85l12 62c-39 -43 -88 -70 -149 -70c-127 0 -184 90 -184 205zM116 220c0 -92 43 -152 119 -152c123 0 174 133 174 236c0 80 -40 132 -116 132c-123 0 -177 -116 -177 -216zM234 678
c0 7 1 15 2 22h67c-1 -3 -1 -6 -1 -10c0 -21 13 -35 36 -35c29 0 48 18 53 45h67c-17 -71 -67 -109 -132 -109c-53 0 -92 35 -92 87z" />
    <glyph glyph-name="Aogonek" unicode="&#x104;" horiz-adv-x="574" 
d="M32 0h-89l372 700h85l106 -700c-29 -18 -73 -50 -73 -85c0 -15 8 -25 25 -25c23 0 38 14 63 41l36 -35c-41 -51 -74 -71 -122 -71c-43 0 -71 26 -71 67c0 49 37 81 80 108h-27l-25 187h-261zM335 586l-160 -315h205z" />
    <glyph glyph-name="aogonek" unicode="&#x105;" horiz-adv-x="586" 
d="M27 197c0 165 93 315 273 315c72 0 121 -39 134 -68l11 60h85l-97 -504c-29 -18 -73 -50 -73 -85c0 -15 8 -25 25 -25c23 0 38 14 63 41l36 -35c-41 -51 -74 -71 -122 -71c-43 0 -71 26 -71 67c0 49 37 81 80 108h-23l12 62c-39 -43 -88 -70 -149 -70
c-127 0 -184 90 -184 205zM116 220c0 -92 43 -152 119 -152c123 0 174 133 174 236c0 80 -40 132 -116 132c-123 0 -177 -116 -177 -216z" />
    <glyph glyph-name="Cacute" unicode="&#x106;" horiz-adv-x="662" 
d="M39 272c0 221 143 436 388 436c138 0 219 -102 227 -212l-85 -23c-17 105 -69 151 -158 151c-184 0 -280 -175 -280 -342c0 -133 58 -206 173 -206c92 0 154 44 213 153l78 -25c-64 -139 -161 -212 -302 -212c-147 0 -254 97 -254 280zM443 756h-72l97 144h123z" />
    <glyph glyph-name="cacute" unicode="&#x107;" horiz-adv-x="540" 
d="M27 203c0 151 100 309 287 309c103 0 158 -48 181 -140l-76 -29c-17 64 -56 93 -120 93c-112 0 -183 -107 -183 -224c0 -91 44 -144 113 -144c68 0 110 34 151 102l71 -37c-69 -109 -134 -141 -237 -141c-115 0 -187 85 -187 211zM330 560h-72l97 144h123z" />
    <glyph glyph-name="Ccircumflex" unicode="&#x108;" horiz-adv-x="662" 
d="M39 272c0 221 143 436 388 436c138 0 219 -102 227 -212l-85 -23c-17 105 -69 151 -158 151c-184 0 -280 -175 -280 -342c0 -133 58 -206 173 -206c92 0 154 44 213 153l78 -25c-64 -139 -161 -212 -302 -212c-147 0 -254 97 -254 280zM362 762h-98l179 164h31l124 -164
h-89l-61 80z" />
    <glyph glyph-name="ccircumflex" unicode="&#x109;" horiz-adv-x="540" 
d="M27 203c0 151 100 309 287 309c103 0 158 -48 181 -140l-76 -29c-17 64 -56 93 -120 93c-112 0 -183 -107 -183 -224c0 -91 44 -144 113 -144c68 0 110 34 151 102l71 -37c-69 -109 -134 -141 -237 -141c-115 0 -187 85 -187 211zM249 566h-98l179 164h31l124 -164h-89
l-61 80z" />
    <glyph glyph-name="Cdotaccent" unicode="&#x10a;" horiz-adv-x="662" 
d="M39 272c0 221 143 436 388 436c138 0 219 -102 227 -212l-85 -23c-17 105 -69 151 -158 151c-184 0 -280 -175 -280 -342c0 -133 58 -206 173 -206c92 0 154 44 213 153l78 -25c-64 -139 -161 -212 -302 -212c-147 0 -254 97 -254 280zM388 840c0 36 28 64 63 64
c36 0 63 -28 63 -64c0 -35 -27 -62 -63 -62c-35 0 -63 27 -63 62z" />
    <glyph glyph-name="cdotaccent" unicode="&#x10b;" horiz-adv-x="540" 
d="M27 203c0 151 100 309 287 309c103 0 158 -48 181 -140l-76 -29c-17 64 -56 93 -120 93c-112 0 -183 -107 -183 -224c0 -91 44 -144 113 -144c68 0 110 34 151 102l71 -37c-69 -109 -134 -141 -237 -141c-115 0 -187 85 -187 211zM267 644c0 36 28 64 63 64
c36 0 63 -28 63 -64c0 -35 -27 -62 -63 -62c-35 0 -63 27 -63 62z" />
    <glyph glyph-name="Ccaron" unicode="&#x10c;" horiz-adv-x="662" 
d="M39 272c0 221 143 436 388 436c138 0 219 -102 227 -212l-85 -23c-17 105 -69 151 -158 151c-184 0 -280 -175 -280 -342c0 -133 58 -206 173 -206c92 0 154 44 213 153l78 -25c-64 -139 -161 -212 -302 -212c-147 0 -254 97 -254 280zM408 762l-124 164h89l61 -80l86 80
h98l-179 -164h-31z" />
    <glyph glyph-name="ccaron" unicode="&#x10d;" horiz-adv-x="540" 
d="M27 203c0 151 100 309 287 309c103 0 158 -48 181 -140l-76 -29c-17 64 -56 93 -120 93c-112 0 -183 -107 -183 -224c0 -91 44 -144 113 -144c68 0 110 34 151 102l71 -37c-69 -109 -134 -141 -237 -141c-115 0 -187 85 -187 211zM300 566l-124 164h89l61 -80l86 80h98
l-179 -164h-31z" />
    <glyph glyph-name="Dcaron" unicode="&#x10e;" horiz-adv-x="669" 
d="M229 0h-194l137 700h180c162 0 276 -92 276 -279c0 -234 -159 -421 -399 -421zM244 616l-103 -532h89c188 0 303 145 303 328c0 137 -71 204 -200 204h-89zM351 762l-124 164h89l61 -80l86 80h98l-179 -164h-31z" />
    <glyph glyph-name="dcaron" unicode="&#x10f;" horiz-adv-x="770" 
d="M27 186c0 171 102 326 275 326c65 0 116 -29 139 -68l51 264h85l-138 -708h-85l13 62c-39 -43 -97 -70 -158 -70c-119 0 -182 78 -182 194zM116 208c0 -84 39 -140 116 -140c124 0 184 137 184 238c0 88 -49 130 -121 130c-122 0 -179 -128 -179 -228zM667 503h-64
l103 205h125z" />
    <glyph glyph-name="Dcroat" unicode="&#x110;" horiz-adv-x="669" 
d="M229 0h-194l60 308h-58l17 84h57l61 308h180c162 0 276 -92 276 -279c0 -234 -159 -421 -399 -421zM184 308l-43 -224h89c188 0 303 145 303 328c0 137 -71 204 -200 204h-89l-44 -224h130l-17 -84h-129z" />
    <glyph glyph-name="dslash" unicode="&#x111;" horiz-adv-x="612" 
d="M27 186c0 171 102 326 275 326c65 0 116 -29 139 -68l24 128h-125l14 68h125l13 68h85l-13 -68h73l-14 -68h-73l-111 -572h-85l13 62c-39 -43 -97 -70 -158 -70c-119 0 -182 78 -182 194zM116 208c0 -84 39 -140 116 -140c124 0 184 137 184 238c0 88 -49 130 -121 130
c-122 0 -179 -128 -179 -228z" />
    <glyph glyph-name="Emacron" unicode="&#x112;" horiz-adv-x="563" 
d="M441 0h-406l137 700h396l-17 -84h-307l-39 -201h250l-16 -84h-250l-48 -247h317zM504 808h-249l15 76h249z" />
    <glyph glyph-name="emacron" unicode="&#x113;" horiz-adv-x="562" 
d="M25 204c0 151 120 308 292 308c116 0 186 -74 186 -189c0 -19 -1 -27 -5 -50l-8 -39h-373c-2 -13 -3 -25 -3 -36c0 -80 40 -130 117 -130c75 0 117 36 157 99l72 -35c-67 -99 -136 -140 -244 -140c-117 0 -191 87 -191 212zM136 310h278c0 79 -31 126 -112 126
c-76 0 -137 -53 -166 -126zM466 613h-249l15 76h249z" />
    <glyph glyph-name="Ebreve" unicode="&#x114;" horiz-adv-x="563" 
d="M441 0h-406l137 700h396l-17 -84h-307l-39 -201h250l-16 -84h-250l-48 -247h317zM284 874c0 7 1 15 2 22h67c-1 -3 -1 -6 -1 -10c0 -21 13 -35 36 -35c29 0 48 18 53 45h67c-17 -71 -67 -109 -132 -109c-53 0 -92 35 -92 87z" />
    <glyph glyph-name="ebreve" unicode="&#x115;" horiz-adv-x="562" 
d="M25 204c0 151 120 308 292 308c116 0 186 -74 186 -189c0 -19 -1 -27 -5 -50l-8 -39h-373c-2 -13 -3 -25 -3 -36c0 -80 40 -130 117 -130c75 0 117 36 157 99l72 -35c-67 -99 -136 -140 -244 -140c-117 0 -191 87 -191 212zM136 310h278c0 79 -31 126 -112 126
c-76 0 -137 -53 -166 -126zM241 678c0 7 1 15 2 22h67c-1 -3 -1 -6 -1 -10c0 -21 13 -35 36 -35c29 0 48 18 53 45h67c-17 -71 -67 -109 -132 -109c-53 0 -92 35 -92 87z" />
    <glyph glyph-name="Edotaccent" unicode="&#x116;" horiz-adv-x="563" 
d="M441 0h-406l137 700h396l-17 -84h-307l-39 -201h250l-16 -84h-250l-48 -247h317zM326 840c0 36 28 64 63 64c36 0 63 -28 63 -64c0 -35 -27 -62 -63 -62c-35 0 -63 27 -63 62z" />
    <glyph glyph-name="edotaccent" unicode="&#x117;" horiz-adv-x="562" 
d="M25 204c0 151 120 308 292 308c116 0 186 -74 186 -189c0 -19 -1 -27 -5 -50l-8 -39h-373c-2 -13 -3 -25 -3 -36c0 -80 40 -130 117 -130c75 0 117 36 157 99l72 -35c-67 -99 -136 -140 -244 -140c-117 0 -191 87 -191 212zM136 310h278c0 79 -31 126 -112 126
c-76 0 -137 -53 -166 -126zM291 644c0 36 28 64 63 64c36 0 63 -28 63 -64c0 -35 -27 -62 -63 -62c-35 0 -63 27 -63 62z" />
    <glyph glyph-name="Eogonek" unicode="&#x118;" horiz-adv-x="563" 
d="M379 0h-344l137 700h396l-17 -84h-307l-39 -201h250l-16 -84h-250l-48 -247h317l-17 -84c-29 -18 -73 -50 -73 -85c0 -15 8 -25 25 -25c23 0 38 14 63 41l36 -35c-41 -51 -74 -71 -122 -71c-43 0 -71 26 -71 67c0 49 37 81 80 108z" />
    <glyph glyph-name="eogonek" unicode="&#x119;" horiz-adv-x="562" 
d="M25 204c0 151 120 308 292 308c116 0 186 -74 186 -189c0 -19 -1 -27 -5 -50l-8 -39h-373c-2 -13 -3 -25 -3 -36c0 -80 40 -130 117 -130c75 0 117 36 157 99l72 -35c-56 -84 -115 -126 -198 -137c-28 -18 -65 -48 -65 -80c0 -15 8 -25 25 -25c23 0 38 14 63 41l36 -35
c-41 -51 -74 -71 -122 -71c-43 0 -71 26 -71 67c0 45 30 76 69 101c-107 9 -172 92 -172 211zM136 310h278c0 79 -31 126 -112 126c-76 0 -137 -53 -166 -126z" />
    <glyph glyph-name="Ecaron" unicode="&#x11a;" horiz-adv-x="563" 
d="M441 0h-406l137 700h396l-17 -84h-307l-39 -201h250l-16 -84h-250l-48 -247h317zM357 762l-124 164h89l61 -80l86 80h98l-179 -164h-31z" />
    <glyph glyph-name="ecaron" unicode="&#x11b;" horiz-adv-x="562" 
d="M25 204c0 151 120 308 292 308c116 0 186 -74 186 -189c0 -19 -1 -27 -5 -50l-8 -39h-373c-2 -13 -3 -25 -3 -36c0 -80 40 -130 117 -130c75 0 117 36 157 99l72 -35c-67 -99 -136 -140 -244 -140c-117 0 -191 87 -191 212zM136 310h278c0 79 -31 126 -112 126
c-76 0 -137 -53 -166 -126zM305 566l-124 164h89l61 -80l86 80h98l-179 -164h-31z" />
    <glyph glyph-name="Gcircumflex" unicode="&#x11c;" horiz-adv-x="698" 
d="M39 277c0 224 142 431 387 431c136 0 222 -89 230 -211l-88 -23c-13 99 -65 150 -158 150c-171 0 -279 -160 -279 -334c0 -140 60 -214 172 -214s192 77 224 193h-144l16 84h236l-69 -353h-76l9 96c-56 -73 -118 -104 -213 -104c-125 0 -247 90 -247 285zM357 762h-98
l179 164h31l124 -164h-89l-61 80z" />
    <glyph glyph-name="gcircumflex" unicode="&#x11d;" horiz-adv-x="510" 
d="M-23 -68c0 55 22 92 66 127c-13 15 -21 34 -21 63c0 55 35 88 84 113c-12 19 -22 44 -22 76c0 116 80 201 205 201c33 0 66 -8 91 -23l94 48l30 -66l-75 -38c7 -16 11 -44 11 -64c0 -114 -89 -195 -206 -195c-32 0 -58 8 -81 20c-24 -9 -47 -26 -47 -55
c0 -21 16 -38 45 -38h115c88 0 141 -36 141 -121c0 -132 -120 -192 -250 -192c-101 0 -180 55 -180 144zM62 -50c0 -46 30 -90 110 -90c67 0 146 25 146 105c0 43 -26 64 -77 64h-97c-13 0 -25 1 -36 2c-31 -16 -46 -43 -46 -81zM168 326c0 -55 33 -80 77 -80
c61 0 111 43 111 111c0 57 -33 83 -77 83c-60 0 -111 -47 -111 -114zM216 566h-98l179 164h31l124 -164h-89l-61 80z" />
    <glyph glyph-name="Gbreve" unicode="&#x11e;" horiz-adv-x="698" 
d="M39 277c0 224 142 431 387 431c136 0 222 -89 230 -211l-88 -23c-13 99 -65 150 -158 150c-171 0 -279 -160 -279 -334c0 -140 60 -214 172 -214s192 77 224 193h-144l16 84h236l-69 -353h-76l9 96c-56 -73 -118 -104 -213 -104c-125 0 -247 90 -247 285zM331 874
c0 7 1 15 2 22h67c-1 -3 -1 -6 -1 -10c0 -21 13 -35 36 -35c29 0 48 18 53 45h67c-17 -71 -67 -109 -132 -109c-53 0 -92 35 -92 87z" />
    <glyph glyph-name="gbreve" unicode="&#x11f;" horiz-adv-x="510" 
d="M-23 -68c0 55 22 92 66 127c-13 15 -21 34 -21 63c0 55 35 88 84 113c-12 19 -22 44 -22 76c0 116 80 201 205 201c33 0 66 -8 91 -23l94 48l30 -66l-75 -38c7 -16 11 -44 11 -64c0 -114 -89 -195 -206 -195c-32 0 -58 8 -81 20c-24 -9 -47 -26 -47 -55
c0 -21 16 -38 45 -38h115c88 0 141 -36 141 -121c0 -132 -120 -192 -250 -192c-101 0 -180 55 -180 144zM62 -50c0 -46 30 -90 110 -90c67 0 146 25 146 105c0 43 -26 64 -77 64h-97c-13 0 -25 1 -36 2c-31 -16 -46 -43 -46 -81zM168 326c0 -55 33 -80 77 -80
c61 0 111 43 111 111c0 57 -33 83 -77 83c-60 0 -111 -47 -111 -114zM207 678c0 7 1 15 2 22h67c-1 -3 -1 -6 -1 -10c0 -21 13 -35 36 -35c29 0 48 18 53 45h67c-17 -71 -67 -109 -132 -109c-53 0 -92 35 -92 87z" />
    <glyph glyph-name="Gdotaccent" unicode="&#x120;" horiz-adv-x="698" 
d="M39 277c0 224 142 431 387 431c136 0 222 -89 230 -211l-88 -23c-13 99 -65 150 -158 150c-171 0 -279 -160 -279 -334c0 -140 60 -214 172 -214s192 77 224 193h-144l16 84h236l-69 -353h-76l9 96c-56 -73 -118 -104 -213 -104c-125 0 -247 90 -247 285zM385 840
c0 36 28 64 63 64c36 0 63 -28 63 -64c0 -35 -27 -62 -63 -62c-35 0 -63 27 -63 62z" />
    <glyph glyph-name="gdotaccent" unicode="&#x121;" horiz-adv-x="510" 
d="M-23 -68c0 55 22 92 66 127c-13 15 -21 34 -21 63c0 55 35 88 84 113c-12 19 -22 44 -22 76c0 116 80 201 205 201c33 0 66 -8 91 -23l94 48l30 -66l-75 -38c7 -16 11 -44 11 -64c0 -114 -89 -195 -206 -195c-32 0 -58 8 -81 20c-24 -9 -47 -26 -47 -55
c0 -21 16 -38 45 -38h115c88 0 141 -36 141 -121c0 -132 -120 -192 -250 -192c-101 0 -180 55 -180 144zM62 -50c0 -46 30 -90 110 -90c67 0 146 25 146 105c0 43 -26 64 -77 64h-97c-13 0 -25 1 -36 2c-31 -16 -46 -43 -46 -81zM168 326c0 -55 33 -80 77 -80
c61 0 111 43 111 111c0 57 -33 83 -77 83c-60 0 -111 -47 -111 -114zM244 644c0 36 28 64 63 64c36 0 63 -28 63 -64c0 -35 -27 -62 -63 -62c-35 0 -63 27 -63 62z" />
    <glyph glyph-name="Gcommaaccent" unicode="&#x122;" horiz-adv-x="698" 
d="M39 277c0 224 142 431 387 431c136 0 222 -89 230 -211l-88 -23c-13 99 -65 150 -158 150c-171 0 -279 -160 -279 -334c0 -140 60 -214 172 -214s192 77 224 193h-144l16 84h236l-69 -353h-76l9 96c-56 -73 -118 -104 -213 -104c-125 0 -247 90 -247 285zM195 -268h-63
l102 217h117z" />
    <glyph glyph-name="gcommaaccent" unicode="&#x123;" horiz-adv-x="510" 
d="M-23 -68c0 55 22 92 66 127c-13 15 -21 34 -21 63c0 55 35 88 84 113c-12 19 -22 44 -22 76c0 116 80 201 205 201c33 0 66 -8 91 -23l94 48l30 -66l-75 -38c7 -16 11 -44 11 -64c0 -114 -89 -195 -206 -195c-32 0 -58 8 -81 20c-24 -9 -47 -26 -47 -55
c0 -21 16 -38 45 -38h115c88 0 141 -36 141 -121c0 -132 -120 -192 -250 -192c-101 0 -180 55 -180 144zM62 -50c0 -46 30 -90 110 -90c67 0 146 25 146 105c0 43 -26 64 -77 64h-97c-13 0 -25 1 -36 2c-31 -16 -46 -43 -46 -81zM168 326c0 -55 33 -80 77 -80
c61 0 111 43 111 111c0 57 -33 83 -77 83c-60 0 -111 -47 -111 -114zM270 576l-87 205h119l29 -205h-61z" />
    <glyph glyph-name="Hcircumflex" unicode="&#x124;" horiz-adv-x="695" 
d="M124 0h-89l137 700h89l-56 -286h310l56 286h89l-137 -700h-89l65 330h-310zM351 762h-98l179 164h31l124 -164h-89l-61 80z" />
    <glyph glyph-name="hcircumflex" unicode="&#x125;" horiz-adv-x="584" 
d="M115 0h-85l137 708h85l-58 -298c44 61 111 102 190 102c73 0 123 -39 123 -112c0 -15 -2 -31 -5 -50l-68 -350h-85l64 333c3 12 3 25 3 36c0 43 -21 67 -69 67c-70 0 -164 -82 -191 -222zM263 762h-98l179 164h31l124 -164h-89l-61 80z" />
    <glyph glyph-name="Hbar" unicode="&#x126;" horiz-adv-x="695" 
d="M124 0h-89l101 516h-75l15 76h75l21 108h89l-21 -108h310l21 108h89l-21 -108h75l-15 -76h-75l-101 -516h-89l65 330h-310zM225 516l-20 -102h310l20 102h-310z" />
    <glyph glyph-name="hbar" unicode="&#x127;" horiz-adv-x="584" 
d="M115 0h-85l110 572h-71l14 68h70l14 68h85l-14 -68h127l-14 -68h-126l-31 -162c44 61 111 102 190 102c73 0 123 -39 123 -112c0 -15 -2 -31 -5 -50l-68 -350h-85l64 333c3 12 3 25 3 36c0 43 -21 67 -69 67c-70 0 -164 -82 -191 -222z" />
    <glyph glyph-name="Itilde" unicode="&#x128;" horiz-adv-x="296" 
d="M124 0h-89l137 700h89zM108 781l-41 42c32 43 77 73 121 73c67 0 70 -40 120 -40c28 0 50 12 73 35l41 -43c-32 -43 -77 -72 -121 -72c-68 0 -69 40 -120 40c-28 0 -50 -12 -73 -35z" />
    <glyph glyph-name="itilde" unicode="&#x129;" horiz-adv-x="276" 
d="M115 0h-85l98 504h85zM65 585l-41 42c32 43 77 73 121 73c67 0 70 -40 120 -40c28 0 50 12 73 35l41 -43c-32 -43 -77 -72 -121 -72c-68 0 -69 40 -120 40c-28 0 -50 -12 -73 -35z" />
    <glyph glyph-name="Imacron" unicode="&#x12a;" horiz-adv-x="296" 
d="M124 0h-89l137 700h89zM362 808h-249l15 76h249z" />
    <glyph glyph-name="imacron" unicode="&#x12b;" horiz-adv-x="276" 
d="M115 0h-85l98 504h85zM314 613h-249l15 76h249z" />
    <glyph glyph-name="Ibreve" unicode="&#x12c;" horiz-adv-x="296" 
d="M124 0h-89l137 700h89zM139 874c0 7 1 15 2 22h67c-1 -3 -1 -6 -1 -10c0 -21 13 -35 36 -35c29 0 48 18 53 45h67c-17 -71 -67 -109 -132 -109c-53 0 -92 35 -92 87z" />
    <glyph glyph-name="ibreve" unicode="&#x12d;" horiz-adv-x="276" 
d="M115 0h-85l98 504h85zM104 678c0 7 1 15 2 22h67c-1 -3 -1 -6 -1 -10c0 -21 13 -35 36 -35c29 0 48 18 53 45h67c-17 -71 -67 -109 -132 -109c-53 0 -92 35 -92 87z" />
    <glyph glyph-name="Iogonek" unicode="&#x12e;" horiz-adv-x="296" 
d="M-18 -108c0 49 37 81 80 108h-27l137 700h89l-137 -700c-29 -18 -73 -50 -73 -85c0 -15 8 -25 25 -25c23 0 38 14 63 41l36 -35c-41 -51 -74 -71 -122 -71c-43 0 -71 26 -71 67z" />
    <glyph glyph-name="iogonek" unicode="&#x12f;" horiz-adv-x="276" 
d="M-27 -108c0 49 37 81 80 108h-23l98 504h85l-98 -504c-29 -18 -73 -50 -73 -85c0 -15 8 -25 25 -25c23 0 38 14 63 41l36 -35c-41 -51 -74 -71 -122 -71c-43 0 -71 26 -71 67zM132 644c0 36 27 64 63 64s63 -28 63 -64c0 -35 -27 -62 -63 -62s-63 27 -63 62z" />
    <glyph glyph-name="Idot" unicode="&#x130;" horiz-adv-x="296" 
d="M124 0h-89l137 700h89zM174 840c0 36 28 64 63 64c36 0 63 -28 63 -64c0 -35 -27 -62 -63 -62c-35 0 -63 27 -63 62z" />
    <glyph glyph-name="dotlessi" unicode="&#x131;" horiz-adv-x="276" 
d="M115 0h-85l98 504h85z" />
    <glyph glyph-name="IJ" unicode="&#x132;" horiz-adv-x="837" 
d="M124 0h-89l137 700h89zM301 175l89 19c0 -73 31 -118 99 -118c69 0 116 40 136 143l93 481h89l-100 -515c-25 -131 -112 -193 -228 -193c-112 0 -178 91 -178 183z" />
    <glyph glyph-name="ij" unicode="&#x133;" horiz-adv-x="521" 
d="M115 0h-85l98 504h85zM132 644c0 36 27 64 63 64s63 -28 63 -64c0 -35 -27 -62 -63 -62s-63 27 -63 62zM165 -212l-8 82c61 16 99 36 115 112l101 522h85l-103 -530c-24 -120 -81 -170 -190 -186zM377 644c0 36 27 64 63 64s63 -28 63 -64c0 -35 -27 -62 -63 -62
s-63 27 -63 62z" />
    <glyph glyph-name="Jcircumflex" unicode="&#x134;" horiz-adv-x="541" 
d="M5 175l89 19c0 -73 31 -118 99 -118c69 0 116 40 136 143l93 481h89l-100 -515c-25 -131 -112 -193 -228 -193c-112 0 -178 91 -178 183zM401 762h-98l179 164h31l124 -164h-89l-61 80z" />
    <glyph glyph-name="jcircumflex" unicode="&#x135;" horiz-adv-x="276" 
d="M-80 -212l-8 82c61 16 99 36 115 112l101 522h85l-103 -530c-24 -120 -81 -170 -190 -186zM107 566h-98l179 164h31l124 -164h-89l-61 80z" />
    <glyph glyph-name="Kcommaaccent" unicode="&#x136;" horiz-adv-x="597" 
d="M124 0h-89l137 700h89l-55 -281l298 281h120l-341 -318l224 -382h-108l-206 353zM174 -268h-63l102 217h117z" />
    <glyph glyph-name="kcommaaccent" unicode="&#x137;" horiz-adv-x="508" 
d="M115 0h-85l137 708h85l-80 -415l216 211h115l-249 -236l171 -268h-103l-158 253zM124 -268h-63l102 217h117z" />
    <glyph glyph-name="kgreenlandic" unicode="&#x138;" horiz-adv-x="508" 
d="M115 0h-85l98 504h85l-41 -211l216 211h115l-249 -236l171 -268h-103l-158 253z" />
    <glyph glyph-name="Lacute" unicode="&#x139;" horiz-adv-x="506" 
d="M432 0h-397l137 700h89l-120 -616h308zM252 756h-72l97 144h123z" />
    <glyph glyph-name="lacute" unicode="&#x13a;" horiz-adv-x="306" 
d="M134 0h-85l137 708h85zM265 756h-72l97 144h123z" />
    <glyph glyph-name="Lcommaaccent" unicode="&#x13b;" horiz-adv-x="506" 
d="M432 0h-397l137 700h89l-120 -616h308zM153 -268h-63l102 217h117z" />
    <glyph glyph-name="lcommaaccent" unicode="&#x13c;" horiz-adv-x="306" 
d="M134 0h-85l137 708h85zM-13 -268h-63l102 217h117z" />
    <glyph glyph-name="Lcaron" unicode="&#x13d;" horiz-adv-x="506" 
d="M432 0h-397l137 700h89l-120 -616h308zM403 496h-64l103 205h125z" />
    <glyph glyph-name="lcaron" unicode="&#x13e;" horiz-adv-x="470" 
d="M134 0h-85l137 708h85zM367 503h-64l103 205h125z" />
    <glyph glyph-name="Ldot" unicode="&#x13f;" horiz-adv-x="506" 
d="M432 0h-397l137 700h89l-120 -616h308zM339 369c0 35 27 63 63 63c35 0 63 -28 63 -63c0 -36 -28 -63 -63 -63c-36 0 -63 27 -63 63z" />
    <glyph glyph-name="ldot" unicode="&#x140;" horiz-adv-x="487" 
d="M134 0h-85l137 708h85zM292 369c0 35 27 63 63 63c35 0 63 -28 63 -63c0 -36 -28 -63 -63 -63c-36 0 -63 27 -63 63z" />
    <glyph glyph-name="Lslash" unicode="&#x141;" horiz-adv-x="506" 
d="M15 228l-23 65l111 56l69 351h89l-59 -302l129 65l24 -65l-170 -85l-44 -229h308l-17 -84h-397l52 264z" />
    <glyph glyph-name="lslash" unicode="&#x142;" horiz-adv-x="324" 
d="M40 259l-22 65l112 56l63 328h85l-55 -282l74 37l23 -65l-113 -56l-66 -342h-85l57 295z" />
    <glyph glyph-name="Nacute" unicode="&#x143;" horiz-adv-x="706" 
d="M124 0h-89l137 700h99l204 -547l107 547h89l-137 -700h-99l-205 545zM421 756h-72l97 144h123z" />
    <glyph glyph-name="nacute" unicode="&#x144;" horiz-adv-x="577" 
d="M115 0h-85l98 504h85l-18 -93c49 65 110 101 182 101c77 0 122 -39 122 -110c0 -24 0 -32 -3 -47l-69 -355h-85l64 333c3 12 4 24 4 35c0 43 -22 68 -67 68c-67 0 -160 -85 -187 -225zM342 560h-72l97 144h123z" />
    <glyph glyph-name="Ncommaaccent" unicode="&#x145;" horiz-adv-x="706" 
d="M124 0h-89l137 700h99l204 -547l107 547h89l-137 -700h-99l-205 545zM187 -268h-63l102 217h117z" />
    <glyph glyph-name="ncommaaccent" unicode="&#x146;" horiz-adv-x="577" 
d="M115 0h-85l98 504h85l-18 -93c49 65 110 101 182 101c77 0 122 -39 122 -110c0 -24 0 -32 -3 -47l-69 -355h-85l64 333c3 12 4 24 4 35c0 43 -22 68 -67 68c-67 0 -160 -85 -187 -225zM135 -268h-63l102 217h117z" />
    <glyph glyph-name="Ncaron" unicode="&#x147;" horiz-adv-x="706" 
d="M124 0h-89l137 700h99l204 -547l107 547h89l-137 -700h-99l-205 545zM392 766l-124 164h89l61 -80l86 80h98l-179 -164h-31z" />
    <glyph glyph-name="ncaron" unicode="&#x148;" horiz-adv-x="577" 
d="M115 0h-85l98 504h85l-18 -93c49 65 110 101 182 101c77 0 122 -39 122 -110c0 -24 0 -32 -3 -47l-69 -355h-85l64 333c3 12 4 24 4 35c0 43 -22 68 -67 68c-67 0 -160 -85 -187 -225zM314 566l-124 164h89l61 -80l86 80h98l-179 -164h-31z" />
    <glyph glyph-name="napostrophe" unicode="&#x149;" horiz-adv-x="687" 
d="M225 0h-85l98 504h85l-18 -93c49 65 110 101 182 101c77 0 122 -39 122 -110c0 -24 0 -32 -3 -47l-69 -355h-85l64 333c3 12 4 24 4 35c0 43 -22 68 -67 68c-67 0 -160 -85 -187 -225zM140 503h-64l103 205h125z" />
    <glyph glyph-name="Eng" unicode="&#x14a;" horiz-adv-x="706" 
d="M124 0h-89l137 700h99l204 -547l107 547h89l-137 -700c-29 -144 -121 -212 -239 -212l17 84c65 0 113 37 133 128l-215 545z" />
    <glyph glyph-name="eng" unicode="&#x14b;" horiz-adv-x="577" 
d="M115 0h-85l98 504h85l-18 -93c49 65 110 101 182 101c77 0 122 -39 122 -110c0 -24 0 -32 -3 -47l-74 -381c-24 -120 -81 -170 -190 -186l-8 82c61 16 99 36 115 112l67 351c3 12 4 24 4 35c0 43 -22 68 -67 68c-67 0 -160 -85 -187 -225z" />
    <glyph glyph-name="Omacron" unicode="&#x14c;" horiz-adv-x="713" 
d="M39 275c0 147 54 264 151 348c69 60 139 85 235 85c144 0 247 -103 247 -283c0 -147 -54 -264 -151 -348c-69 -60 -139 -85 -235 -85c-144 0 -247 103 -247 283zM131 283c0 -135 59 -207 170 -207c72 0 133 31 181 82c63 67 98 159 98 259c0 135 -59 207 -170 207
c-72 0 -133 -31 -181 -82c-63 -67 -98 -159 -98 -259zM577 808h-249l15 76h249z" />
    <glyph glyph-name="omacron" unicode="&#x14d;" horiz-adv-x="573" 
d="M27 204c0 92 28 159 69 210c53 67 121 98 213 98c124 0 199 -77 199 -212c0 -92 -28 -159 -69 -210c-53 -67 -121 -98 -213 -98c-124 0 -199 77 -199 212zM116 216c0 -92 38 -148 118 -148c61 0 107 28 140 71s45 90 45 149c0 92 -38 148 -118 148
c-61 0 -107 -28 -140 -71s-45 -90 -45 -149zM449 613h-249l15 76h249z" />
    <glyph glyph-name="Obreve" unicode="&#x14e;" horiz-adv-x="713" 
d="M39 275c0 147 54 264 151 348c69 60 139 85 235 85c144 0 247 -103 247 -283c0 -147 -54 -264 -151 -348c-69 -60 -139 -85 -235 -85c-144 0 -247 103 -247 283zM131 283c0 -135 59 -207 170 -207c72 0 133 31 181 82c63 67 98 159 98 259c0 135 -59 207 -170 207
c-72 0 -133 -31 -181 -82c-63 -67 -98 -159 -98 -259zM354 874c0 7 1 15 2 22h67c-1 -3 -1 -6 -1 -10c0 -21 13 -35 36 -35c29 0 48 18 53 45h67c-17 -71 -67 -109 -132 -109c-53 0 -92 35 -92 87z" />
    <glyph glyph-name="obreve" unicode="&#x14f;" horiz-adv-x="573" 
d="M27 204c0 92 28 159 69 210c53 67 121 98 213 98c124 0 199 -77 199 -212c0 -92 -28 -159 -69 -210c-53 -67 -121 -98 -213 -98c-124 0 -199 77 -199 212zM116 216c0 -92 38 -148 118 -148c61 0 107 28 140 71s45 90 45 149c0 92 -38 148 -118 148
c-61 0 -107 -28 -140 -71s-45 -90 -45 -149zM235 678c0 7 1 15 2 22h67c-1 -3 -1 -6 -1 -10c0 -21 13 -35 36 -35c29 0 48 18 53 45h67c-17 -71 -67 -109 -132 -109c-53 0 -92 35 -92 87z" />
    <glyph glyph-name="Ohungarumlaut" unicode="&#x150;" horiz-adv-x="713" 
d="M39 275c0 147 54 264 151 348c69 60 139 85 235 85c144 0 247 -103 247 -283c0 -147 -54 -264 -151 -348c-69 -60 -139 -85 -235 -85c-144 0 -247 103 -247 283zM131 283c0 -135 59 -207 170 -207c72 0 133 31 181 82c63 67 98 159 98 259c0 135 -59 207 -170 207
c-72 0 -133 -31 -181 -82c-63 -67 -98 -159 -98 -259zM348 756h-72l97 144h123zM528 756h-72l97 144h123z" />
    <glyph glyph-name="ohungarumlaut" unicode="&#x151;" horiz-adv-x="573" 
d="M27 204c0 92 28 159 69 210c53 67 121 98 213 98c124 0 199 -77 199 -212c0 -92 -28 -159 -69 -210c-53 -67 -121 -98 -213 -98c-124 0 -199 77 -199 212zM116 216c0 -92 38 -148 118 -148c61 0 107 28 140 71s45 90 45 149c0 92 -38 148 -118 148
c-61 0 -107 -28 -140 -71s-45 -90 -45 -149zM228 560h-72l97 144h123zM408 560h-72l97 144h123z" />
    <glyph glyph-name="OE" unicode="&#x152;" horiz-adv-x="1038" 
d="M39 275c0 147 54 264 151 348c69 60 139 85 235 85c88 0 159 -37 202 -108l20 100h396l-17 -84h-307l-39 -201h250l-16 -84h-250l-48 -247h317l-17 -84h-406l16 81l-5 -4c-69 -60 -139 -85 -235 -85c-144 0 -247 103 -247 283zM131 283c0 -135 59 -207 170 -207
c76 0 135 30 183 81c63 67 96 160 96 260c0 135 -59 207 -170 207c-72 0 -133 -31 -181 -82c-63 -67 -98 -159 -98 -259z" />
    <glyph glyph-name="oe" unicode="&#x153;" horiz-adv-x="950" 
d="M27 204c0 92 28 159 69 210c53 67 126 98 213 98s148 -39 179 -108c52 64 126 108 217 108c116 0 186 -74 186 -189c0 -19 -1 -27 -5 -50l-8 -39h-374c-2 -13 -3 -25 -3 -36c0 -80 41 -130 118 -130c75 0 117 36 157 99l72 -35c-67 -99 -136 -140 -244 -140
c-77 0 -134 37 -165 97c-53 -65 -126 -97 -213 -97c-117 0 -199 79 -199 212zM116 216c0 -96 42 -148 118 -148c61 0 108 28 141 71s44 90 44 149c0 96 -42 148 -118 148c-64 0 -107 -28 -140 -71s-45 -90 -45 -149zM524 310h278c0 76 -31 126 -112 126
c-76 0 -137 -53 -166 -126z" />
    <glyph glyph-name="Racute" unicode="&#x154;" horiz-adv-x="596" 
d="M124 0h-89l137 700h222c112 0 178 -60 178 -157c0 -117 -70 -192 -185 -207l143 -336h-99l-139 330h-103zM244 616l-39 -202h139c84 0 136 37 136 113c0 59 -33 89 -100 89h-136zM350 756h-72l97 144h123z" />
    <glyph glyph-name="racute" unicode="&#x155;" horiz-adv-x="437" 
d="M115 0h-85l98 504h85l-17 -86c40 64 99 94 163 94c28 0 56 -7 69 -15l-31 -75c-17 9 -34 14 -53 14c-60 0 -153 -49 -185 -213zM277 560h-72l97 144h123z" />
    <glyph glyph-name="Rcommaaccent" unicode="&#x156;" horiz-adv-x="596" 
d="M124 0h-89l137 700h222c112 0 178 -60 178 -157c0 -117 -70 -192 -185 -207l143 -336h-99l-139 330h-103zM244 616l-39 -202h139c84 0 136 37 136 113c0 59 -33 89 -100 89h-136zM180 -268h-63l102 217h117z" />
    <glyph glyph-name="rcommaaccent" unicode="&#x157;" horiz-adv-x="437" 
d="M115 0h-85l98 504h85l-17 -86c40 64 99 94 163 94c28 0 56 -7 69 -15l-31 -75c-17 9 -34 14 -53 14c-60 0 -153 -49 -185 -213zM-2 -268h-63l102 217h117z" />
    <glyph glyph-name="Rcaron" unicode="&#x158;" horiz-adv-x="596" 
d="M124 0h-89l137 700h222c112 0 178 -60 178 -157c0 -117 -70 -192 -185 -207l143 -336h-99l-139 330h-103zM244 616l-39 -202h139c84 0 136 37 136 113c0 59 -33 89 -100 89h-136zM346 762l-124 164h89l61 -80l86 80h98l-179 -164h-31z" />
    <glyph glyph-name="rcaron" unicode="&#x159;" horiz-adv-x="437" 
d="M115 0h-85l98 504h85l-17 -86c40 64 99 94 163 94c28 0 56 -7 69 -15l-31 -75c-17 9 -34 14 -53 14c-60 0 -153 -49 -185 -213zM264 566l-124 164h89l61 -80l86 80h98l-179 -164h-31z" />
    <glyph glyph-name="Sacute" unicode="&#x15a;" horiz-adv-x="523" 
d="M22 184l80 43c5 -83 45 -151 128 -151c75 0 140 43 140 131c0 68 -40 96 -107 128c-70 35 -137 85 -137 179c0 127 88 194 205 194c85 0 140 -61 156 -124l-76 -42c-23 61 -53 82 -96 82c-63 0 -97 -37 -97 -97c0 -63 44 -90 111 -125c80 -43 133 -78 133 -179
c0 -79 -23 -127 -66 -166c-55 -51 -108 -65 -185 -65c-99 0 -189 85 -189 192zM333 756h-72l97 144h123z" />
    <glyph glyph-name="sacute" unicode="&#x15b;" horiz-adv-x="460" 
d="M16 135l74 36c12 -59 46 -103 114 -103c51 0 83 30 83 74c0 51 -36 68 -92 92c-55 24 -99 66 -99 134c0 92 64 144 163 144c64 0 118 -32 145 -84l-66 -49c-25 38 -55 57 -89 57c-36 0 -68 -22 -68 -63c0 -39 32 -58 69 -75c57 -24 126 -57 126 -140
c0 -104 -77 -166 -182 -166s-167 72 -178 143zM274 560h-72l97 144h123z" />
    <glyph glyph-name="Scircumflex" unicode="&#x15c;" horiz-adv-x="523" 
d="M22 184l80 43c5 -83 45 -151 128 -151c75 0 140 43 140 131c0 68 -40 96 -107 128c-70 35 -137 85 -137 179c0 127 88 194 205 194c85 0 140 -61 156 -124l-76 -42c-23 61 -53 82 -96 82c-63 0 -97 -37 -97 -97c0 -63 44 -90 111 -125c80 -43 133 -78 133 -179
c0 -79 -23 -127 -66 -166c-55 -51 -108 -65 -185 -65c-99 0 -189 85 -189 192zM269 762h-98l179 164h31l124 -164h-89l-61 80z" />
    <glyph glyph-name="scircumflex" unicode="&#x15d;" horiz-adv-x="460" 
d="M16 135l74 36c12 -59 46 -103 114 -103c51 0 83 30 83 74c0 51 -36 68 -92 92c-55 24 -99 66 -99 134c0 92 64 144 163 144c64 0 118 -32 145 -84l-66 -49c-25 38 -55 57 -89 57c-36 0 -68 -22 -68 -63c0 -39 32 -58 69 -75c57 -24 126 -57 126 -140
c0 -104 -77 -166 -182 -166s-167 72 -178 143zM213 566h-98l179 164h31l124 -164h-89l-61 80z" />
    <glyph glyph-name="Scedilla" unicode="&#x15e;" horiz-adv-x="523" 
d="M22 184l80 43c5 -83 45 -151 128 -151c75 0 140 43 140 131c0 68 -40 96 -107 128c-70 35 -137 85 -137 179c0 127 88 194 205 194c85 0 140 -61 156 -124l-76 -42c-23 61 -53 82 -96 82c-63 0 -97 -37 -97 -97c0 -63 44 -90 111 -125c80 -43 133 -78 133 -179
c0 -79 -23 -127 -66 -166c-55 -51 -108 -65 -185 -65c-99 0 -189 85 -189 192zM160 -235l-89 45l126 130h74z" />
    <glyph glyph-name="scedilla" unicode="&#x15f;" horiz-adv-x="460" 
d="M16 135l74 36c12 -59 46 -103 114 -103c51 0 83 30 83 74c0 51 -36 68 -92 92c-55 24 -99 66 -99 134c0 92 64 144 163 144c64 0 118 -32 145 -84l-66 -49c-25 38 -55 57 -89 57c-36 0 -68 -22 -68 -63c0 -39 32 -58 69 -75c57 -24 126 -57 126 -140
c0 -104 -77 -166 -182 -166s-167 72 -178 143zM111 -235l-89 45l126 130h74z" />
    <glyph glyph-name="Scaron" unicode="&#x160;" horiz-adv-x="523" 
d="M22 184l80 43c5 -83 45 -151 128 -151c75 0 140 43 140 131c0 68 -40 96 -107 128c-70 35 -137 85 -137 179c0 127 88 194 205 194c85 0 140 -61 156 -124l-76 -42c-23 61 -53 82 -96 82c-63 0 -97 -37 -97 -97c0 -63 44 -90 111 -125c80 -43 133 -78 133 -179
c0 -79 -23 -127 -66 -166c-55 -51 -108 -65 -185 -65c-99 0 -189 85 -189 192zM318 762l-124 164h89l61 -80l86 80h98l-179 -164h-31z" />
    <glyph glyph-name="scaron" unicode="&#x161;" horiz-adv-x="460" 
d="M16 135l74 36c12 -59 46 -103 114 -103c51 0 83 30 83 74c0 51 -36 68 -92 92c-55 24 -99 66 -99 134c0 92 64 144 163 144c64 0 118 -32 145 -84l-66 -49c-25 38 -55 57 -89 57c-36 0 -68 -22 -68 -63c0 -39 32 -58 69 -75c57 -24 126 -57 126 -140
c0 -104 -77 -166 -182 -166s-167 72 -178 143zM265 566l-124 164h89l61 -80l86 80h98l-179 -164h-31z" />
    <glyph glyph-name="Tcommaaccent" unicode="&#x162;" horiz-adv-x="507" 
d="M258 616h-197l17 84h483l-17 -84h-197l-120 -616h-89zM79 -268h-63l102 217h117z" />
    <glyph glyph-name="tcommaaccent" unicode="&#x163;" horiz-adv-x="350" 
d="M116 428h-87l14 76h87l30 151l94 53l-40 -204h127l-14 -76h-127l-52 -268c-3 -11 -5 -28 -5 -36c0 -37 18 -56 54 -56c23 0 39 4 60 16l6 -73c-27 -15 -57 -19 -86 -19c-76 0 -119 40 -119 117c0 15 4 39 7 58zM58 -268h-63l102 217h117z" />
    <glyph glyph-name="Tcaron" unicode="&#x164;" horiz-adv-x="507" 
d="M258 616h-197l17 84h483l-17 -84h-197l-120 -616h-89zM311 762l-124 164h89l61 -80l86 80h98l-179 -164h-31z" />
    <glyph glyph-name="tcaron" unicode="&#x165;" horiz-adv-x="567" 
d="M116 428h-87l14 76h87l30 151l94 53l-40 -204h127l-14 -76h-127l-52 -268c-3 -11 -5 -28 -5 -36c0 -37 18 -56 54 -56c23 0 39 4 60 16l6 -73c-27 -15 -57 -19 -86 -19c-76 0 -119 40 -119 117c0 15 4 39 7 58zM464 503h-64l103 205h125z" />
    <glyph glyph-name="Tbar" unicode="&#x166;" horiz-adv-x="507" 
d="M214 392h-170l14 76h171l29 148h-197l17 84h483l-17 -84h-197l-29 -148h170l-14 -76h-171l-76 -392h-89z" />
    <glyph glyph-name="tbar" unicode="&#x167;" horiz-adv-x="350" 
d="M83 259h-71l13 68h71l20 101h-87l14 76h87l30 151l94 53l-40 -204h127l-14 -76h-127l-20 -101h115l-13 -68h-115l-19 -99c-3 -11 -5 -28 -5 -36c0 -37 18 -56 54 -56c23 0 39 4 60 16l6 -73c-27 -15 -57 -19 -86 -19c-76 0 -119 40 -119 117c0 15 4 39 7 58z" />
    <glyph glyph-name="Utilde" unicode="&#x168;" horiz-adv-x="672" 
d="M70 171c0 19 2 46 6 67l89 462h89l-91 -468c-3 -13 -4 -28 -4 -40c0 -75 37 -116 122 -116c103 0 167 57 186 156l91 468h89l-89 -462c-34 -178 -141 -246 -288 -246c-120 0 -200 72 -200 179zM286 781l-41 42c32 43 77 73 121 73c67 0 70 -40 120 -40c28 0 50 12 73 35
l41 -43c-32 -43 -77 -72 -121 -72c-68 0 -69 40 -120 40c-28 0 -50 -12 -73 -35z" />
    <glyph glyph-name="utilde" unicode="&#x169;" horiz-adv-x="577" 
d="M52 102c0 24 0 32 3 47l69 355h85l-64 -333c-3 -12 -4 -24 -4 -35c0 -43 22 -68 67 -68c66 0 161 85 187 225l41 211h85l-98 -504h-85l18 93c-49 -65 -110 -101 -182 -101c-77 0 -122 39 -122 110zM203 585l-41 42c32 43 77 73 121 73c67 0 70 -40 120 -40
c28 0 50 12 73 35l41 -43c-32 -43 -77 -72 -121 -72c-68 0 -69 40 -120 40c-28 0 -50 -12 -73 -35z" />
    <glyph glyph-name="Umacron" unicode="&#x16a;" horiz-adv-x="672" 
d="M70 171c0 19 2 46 6 67l89 462h89l-91 -468c-3 -13 -4 -28 -4 -40c0 -75 37 -116 122 -116c103 0 167 57 186 156l91 468h89l-89 -462c-34 -178 -141 -246 -288 -246c-120 0 -200 72 -200 179zM548 808h-249l15 76h249z" />
    <glyph glyph-name="umacron" unicode="&#x16b;" horiz-adv-x="577" 
d="M52 102c0 24 0 32 3 47l69 355h85l-64 -333c-3 -12 -4 -24 -4 -35c0 -43 22 -68 67 -68c66 0 161 85 187 225l41 211h85l-98 -504h-85l18 93c-49 -65 -110 -101 -182 -101c-77 0 -122 39 -122 110zM465 613h-249l15 76h249z" />
    <glyph glyph-name="Ubreve" unicode="&#x16c;" horiz-adv-x="672" 
d="M70 171c0 19 2 46 6 67l89 462h89l-91 -468c-3 -13 -4 -28 -4 -40c0 -75 37 -116 122 -116c103 0 167 57 186 156l91 468h89l-89 -462c-34 -178 -141 -246 -288 -246c-120 0 -200 72 -200 179zM324 874c0 7 1 15 2 22h67c-1 -3 -1 -6 -1 -10c0 -21 13 -35 36 -35
c29 0 48 18 53 45h67c-17 -71 -67 -109 -132 -109c-53 0 -92 35 -92 87z" />
    <glyph glyph-name="ubreve" unicode="&#x16d;" horiz-adv-x="577" 
d="M52 102c0 24 0 32 3 47l69 355h85l-64 -333c-3 -12 -4 -24 -4 -35c0 -43 22 -68 67 -68c66 0 161 85 187 225l41 211h85l-98 -504h-85l18 93c-49 -65 -110 -101 -182 -101c-77 0 -122 39 -122 110zM238 678c0 7 1 15 2 22h67c-1 -3 -1 -6 -1 -10c0 -21 13 -35 36 -35
c29 0 48 18 53 45h67c-17 -71 -67 -109 -132 -109c-53 0 -92 35 -92 87z" />
    <glyph glyph-name="Uring" unicode="&#x16e;" horiz-adv-x="672" 
d="M70 171c0 19 2 46 6 67l89 462h89l-91 -468c-3 -13 -4 -28 -4 -40c0 -75 37 -116 122 -116c103 0 167 57 186 156l91 468h89l-89 -462c-34 -178 -141 -246 -288 -246c-120 0 -200 72 -200 179zM310 849c0 56 43 100 99 100c59 0 99 -44 99 -100c0 -55 -40 -96 -99 -96
c-56 0 -99 43 -99 96zM366 850c0 -25 18 -44 43 -44c27 0 43 19 43 44c0 27 -16 46 -43 46c-25 0 -43 -19 -43 -46z" />
    <glyph glyph-name="uring" unicode="&#x16f;" horiz-adv-x="577" 
d="M52 102c0 24 0 32 3 47l69 355h85l-64 -333c-3 -12 -4 -24 -4 -35c0 -43 22 -68 67 -68c66 0 161 85 187 225l41 211h85l-98 -504h-85l18 93c-49 -65 -110 -101 -182 -101c-77 0 -122 39 -122 110zM241 653c0 56 43 100 99 100c59 0 99 -44 99 -100
c0 -55 -40 -96 -99 -96c-56 0 -99 43 -99 96zM297 654c0 -25 18 -44 43 -44c27 0 43 19 43 44c0 27 -16 46 -43 46c-25 0 -43 -19 -43 -46z" />
    <glyph glyph-name="Uhungarumlaut" unicode="&#x170;" horiz-adv-x="672" 
d="M70 171c0 19 2 46 6 67l89 462h89l-91 -468c-3 -13 -4 -28 -4 -40c0 -75 37 -116 122 -116c103 0 167 57 186 156l91 468h89l-89 -462c-34 -178 -141 -246 -288 -246c-120 0 -200 72 -200 179zM306 756h-72l97 144h123zM486 756h-72l97 144h123z" />
    <glyph glyph-name="uhungarumlaut" unicode="&#x171;" horiz-adv-x="577" 
d="M52 102c0 24 0 32 3 47l69 355h85l-64 -333c-3 -12 -4 -24 -4 -35c0 -43 22 -68 67 -68c66 0 161 85 187 225l41 211h85l-98 -504h-85l18 93c-49 -65 -110 -101 -182 -101c-77 0 -122 39 -122 110zM220 560h-72l97 144h123zM400 560h-72l97 144h123z" />
    <glyph glyph-name="Uogonek" unicode="&#x172;" horiz-adv-x="672" 
d="M70 171c0 19 2 46 6 67l89 462h89l-91 -468c-3 -13 -4 -28 -4 -40c0 -75 37 -116 122 -116c103 0 167 57 186 156l91 468h89l-89 -462c-28 -144 -103 -217 -207 -238c-29 -18 -73 -50 -73 -85c0 -15 8 -25 25 -25c23 0 38 14 63 41l36 -35c-41 -51 -74 -71 -122 -71
c-43 0 -71 26 -71 67c0 44 30 75 67 100h-6c-120 0 -200 72 -200 179z" />
    <glyph glyph-name="uogonek" unicode="&#x173;" horiz-adv-x="577" 
d="M52 102c0 24 0 32 3 47l69 355h85l-64 -333c-3 -12 -4 -24 -4 -35c0 -43 22 -68 67 -68c66 0 161 85 187 225l41 211h85l-98 -504c-29 -18 -73 -50 -73 -85c0 -15 8 -25 25 -25c23 0 38 14 63 41l36 -35c-41 -51 -74 -71 -122 -71c-43 0 -71 26 -71 67c0 49 37 81 80 108
h-23l18 93c-49 -65 -110 -101 -182 -101c-77 0 -122 39 -122 110z" />
    <glyph glyph-name="Wcircumflex" unicode="&#x174;" horiz-adv-x="886" 
d="M142 0l-52 700h93l28 -570l233 496h83l50 -496l249 570h94l-319 -700h-89l-55 480l-226 -480h-89zM438 762h-98l179 164h31l124 -164h-89l-61 80z" />
    <glyph glyph-name="wcircumflex" unicode="&#x175;" horiz-adv-x="723" 
d="M113 0l-58 504h86l31 -391l173 391h86l19 -391l176 391h89l-245 -504h-82l-22 381l-171 -381h-82zM321 566h-98l179 164h31l124 -164h-89l-61 80z" />
    <glyph glyph-name="Ycircumflex" unicode="&#x176;" horiz-adv-x="484" 
d="M182 302l-126 398h94l91 -310l210 310h99l-279 -398l-59 -302h-89zM224 762h-98l179 164h31l124 -164h-89l-61 80z" />
    <glyph glyph-name="ycircumflex" unicode="&#x177;" horiz-adv-x="466" 
d="M86 -204h-89l125 236l-81 472h89l58 -364l194 364h89zM181 566h-98l179 164h31l124 -164h-89l-61 80z" />
    <glyph glyph-name="Ydieresis" unicode="&#x178;" horiz-adv-x="484" 
d="M182 302l-126 398h94l91 -310l210 310h99l-279 -398l-59 -302h-89zM175 847c0 32 25 57 56 57c33 0 57 -25 57 -57s-24 -56 -57 -56c-31 0 -56 24 -56 56zM341 847c0 32 25 57 56 57c33 0 57 -25 57 -57s-24 -56 -57 -56c-31 0 -56 24 -56 56z" />
    <glyph glyph-name="Zacute" unicode="&#x179;" horiz-adv-x="550" 
d="M434 0h-455l8 42l424 574h-310l17 84h435l-9 -42l-424 -574h331zM332 756h-72l97 144h123z" />
    <glyph glyph-name="zacute" unicode="&#x17a;" horiz-adv-x="468" 
d="M360 0h-365l7 36l307 392h-227l14 76h347l-7 -36l-310 -392h248zM263 560h-72l97 144h123z" />
    <glyph glyph-name="Zdotaccent" unicode="&#x17b;" horiz-adv-x="550" 
d="M434 0h-455l8 42l424 574h-310l17 84h435l-9 -42l-424 -574h331zM276 840c0 36 28 64 63 64c36 0 63 -28 63 -64c0 -35 -27 -62 -63 -62c-35 0 -63 27 -63 62z" />
    <glyph glyph-name="zdotaccent" unicode="&#x17c;" horiz-adv-x="468" 
d="M360 0h-365l7 36l307 392h-227l14 76h347l-7 -36l-310 -392h248zM231 644c0 36 28 64 63 64c36 0 63 -28 63 -64c0 -35 -27 -62 -63 -62c-35 0 -63 27 -63 62z" />
    <glyph glyph-name="Zcaron" unicode="&#x17d;" horiz-adv-x="550" 
d="M434 0h-455l8 42l424 574h-310l17 84h435l-9 -42l-424 -574h331zM316 762l-124 164h89l61 -80l86 80h98l-179 -164h-31z" />
    <glyph glyph-name="zcaron" unicode="&#x17e;" horiz-adv-x="468" 
d="M360 0h-365l7 36l307 392h-227l14 76h347l-7 -36l-310 -392h248zM260 566l-124 164h89l61 -80l86 80h98l-179 -164h-31z" />
    <glyph glyph-name="longs" unicode="&#x17f;" horiz-adv-x="339" 
d="M115 0h-85l83 428h-72l15 76h72l6 33c23 121 82 171 187 171c27 0 51 -7 72 -18l-31 -72c-17 9 -34 14 -53 14c-48 0 -75 -23 -88 -88z" />
    <glyph glyph-name="uni018E" unicode="&#x18e;" horiz-adv-x="563" 
d="M122 700h406l-137 -700h-396l17 84h307l39 201h-250l16 84h250l48 247h-317z" />
    <glyph glyph-name="uni018F" unicode="&#x18f;" horiz-adv-x="562" 
d="M537 300c0 -151 -120 -308 -292 -308c-116 0 -186 74 -186 189c0 19 1 27 5 50l8 39h373c2 13 3 25 3 36c0 80 -40 130 -117 130c-75 0 -117 -36 -157 -99l-72 35c67 99 136 140 244 140c117 0 191 -87 191 -212zM426 194h-278c0 -79 31 -126 112 -126
c76 0 137 53 166 126z" />
    <glyph glyph-name="florin" unicode="&#x192;" horiz-adv-x="438" 
d="M-60 -196l31 74c15 -8 35 -14 54 -14c56 0 83 30 96 95l91 469h-89l14 76h89l7 33c25 124 93 171 196 171c28 0 53 -7 69 -16l-31 -74c-15 8 -35 14 -54 14c-56 0 -83 -30 -96 -95l-7 -33h114l-14 -76h-114l-91 -469c-24 -125 -99 -171 -196 -171c-28 0 -53 7 -69 16z
" />
    <glyph glyph-name="uni01B5" unicode="&#x1b5;" horiz-adv-x="550" 
d="M434 0h-455l8 42l207 281h-126l15 76h167l161 217h-310l17 84h435l-9 -42l-192 -259h118l-15 -76h-159l-176 -239h331z" />
    <glyph glyph-name="uni01B6" unicode="&#x1b6;" horiz-adv-x="468" 
d="M360 0h-365l7 36l152 194h-87l13 68h127l102 130h-227l14 76h347l-7 -36l-135 -170h83l-13 -68h-124l-121 -154h248z" />
    <glyph glyph-name="Aringacute" unicode="&#x1fa;" horiz-adv-x="574" 
d="M32 0h-89l372 700h85l106 -700h-89l-25 187h-261zM335 586l-160 -315h205zM273 823c0 56 43 100 99 100c59 0 99 -44 99 -100c0 -55 -40 -96 -99 -96c-56 0 -99 43 -99 96zM329 824c0 -25 18 -44 43 -44c27 0 43 19 43 44c0 27 -16 46 -43 46c-25 0 -43 -19 -43 -46z
M415 958h-72l97 144h123z" />
    <glyph glyph-name="aringacute" unicode="&#x1fb;" horiz-adv-x="586" 
d="M27 197c0 165 93 315 273 315c72 0 121 -39 134 -68l11 60h85l-97 -504h-85l12 62c-39 -43 -88 -70 -149 -70c-127 0 -184 90 -184 205zM116 220c0 -92 43 -152 119 -152c123 0 174 133 174 236c0 80 -40 132 -116 132c-123 0 -177 -116 -177 -216zM236 653
c0 56 43 100 99 100c59 0 99 -44 99 -100c0 -55 -40 -96 -99 -96c-56 0 -99 43 -99 96zM292 654c0 -25 18 -44 43 -44c27 0 43 19 43 44c0 27 -16 46 -43 46c-25 0 -43 -19 -43 -46zM380 786h-72l97 144h123z" />
    <glyph glyph-name="AEacute" unicode="&#x1fc;" horiz-adv-x="836" 
d="M41 0h-99l444 700h455l-17 -84h-307l-39 -201h250l-16 -84h-250l-48 -247h317l-17 -84h-406l37 187h-187zM406 585l-196 -314h151l61 314h-16zM610 756h-72l97 144h123z" />
    <glyph glyph-name="aeacute" unicode="&#x1fd;" horiz-adv-x="891" 
d="M27 131c0 132 102 179 224 179h122l5 22c1 5 2 10 2 14v10c0 57 -36 80 -93 80c-53 0 -92 -30 -113 -81l-76 19c31 85 104 138 204 138c68 0 125 -27 149 -83c51 51 116 83 195 83c116 0 186 -74 186 -189c0 -19 -1 -27 -5 -50l-8 -39h-374c-2 -13 -3 -25 -3 -36
c0 -80 41 -130 118 -130c75 0 117 36 157 99l72 -35c-67 -99 -136 -140 -244 -140c-83 0 -142 41 -171 109c-47 -76 -108 -109 -187 -109c-104 0 -160 59 -160 139zM116 143c0 -48 33 -75 81 -75c64 0 136 39 157 154l2 12h-123c-64 0 -117 -26 -117 -91zM465 310h278
c0 76 -31 126 -112 126c-76 0 -137 -53 -166 -126zM487 560h-72l97 144h123z" />
    <glyph glyph-name="circumflex" unicode="&#x2c6;" horiz-adv-x="396" 
d="M166 566h-98l179 164h31l124 -164h-89l-61 80z" />
    <glyph glyph-name="caron" unicode="&#x2c7;" horiz-adv-x="373" 
d="M208 566l-124 164h89l61 -80l86 80h98l-179 -164h-31z" />
    <glyph glyph-name="breve" unicode="&#x2d8;" horiz-adv-x="245" 
d="M70 678c0 7 1 15 2 22h67c-1 -3 -1 -6 -1 -10c0 -21 13 -35 36 -35c29 0 48 18 53 45h67c-17 -71 -67 -109 -132 -109c-53 0 -92 35 -92 87z" />
    <glyph glyph-name="dotaccent" unicode="&#x2d9;" horiz-adv-x="276" 
d="M132 644c0 36 28 64 63 64c36 0 63 -28 63 -64c0 -35 -27 -62 -63 -62c-35 0 -63 27 -63 62z" />
    <glyph glyph-name="ring" unicode="&#x2da;" horiz-adv-x="209" 
d="M58 653c0 56 43 100 99 100c59 0 99 -44 99 -100c0 -55 -40 -96 -99 -96c-56 0 -99 43 -99 96zM114 654c0 -25 18 -44 43 -44c27 0 43 19 43 44c0 27 -16 46 -43 46c-25 0 -43 -19 -43 -46z" />
    <glyph glyph-name="ogonek" unicode="&#x2db;" horiz-adv-x="225" 
d="M-36 -168c0 49 37 81 80 108h62c-29 -18 -73 -50 -73 -85c0 -15 8 -25 25 -25c23 0 38 14 63 41l36 -35c-41 -51 -74 -71 -122 -71c-43 0 -71 26 -71 67z" />
    <glyph glyph-name="tilde" unicode="&#x2dc;" horiz-adv-x="387" 
d="M108 585l-41 42c32 43 77 73 121 73c67 0 70 -40 120 -40c28 0 50 12 73 35l41 -43c-32 -43 -77 -72 -121 -72c-68 0 -69 40 -120 40c-28 0 -50 -12 -73 -35z" />
    <glyph glyph-name="hungarumlaut" unicode="&#x2dd;" horiz-adv-x="395" 
d="M120 560h-72l97 144h123zM300 560h-72l97 144h123z" />
    <glyph glyph-name="pi" unicode="&#x3c0;" horiz-adv-x="559" 
d="M126 428h-88v76h494v-76h-88v-428h-84v428h-150v-428h-84v428z" />
    <glyph glyph-name="uni0400" unicode="&#x400;" horiz-adv-x="563" 
d="M441 0h-406l137 700h396l-17 -84h-307l-39 -201h250l-16 -84h-250l-48 -247h317zM394 756l-101 144h121l48 -144h-68z" />
    <glyph glyph-name="afii10023" unicode="&#x401;" horiz-adv-x="563" 
d="M441 0h-406l137 700h396l-17 -84h-307l-39 -201h250l-16 -84h-250l-48 -247h317zM243 847c0 32 25 57 56 57c33 0 57 -25 57 -57s-24 -56 -57 -56c-31 0 -56 24 -56 56zM409 847c0 32 25 57 56 57c33 0 57 -25 57 -57s-24 -56 -57 -56c-31 0 -56 24 -56 56z" />
    <glyph glyph-name="afii10051" unicode="&#x402;" horiz-adv-x="696" 
d="M258 616h-197l17 84h483l-17 -84h-197l-40 -205c44 60 110 101 189 101c73 0 123 -39 123 -112c0 -15 -2 -31 -5 -50l-34 -172c-24 -120 -81 -170 -190 -186l-8 82c61 16 99 36 115 112l28 147c3 12 3 25 3 36c0 43 -21 67 -69 67c-70 0 -164 -82 -191 -222l-41 -214h-89
z" />
    <glyph glyph-name="afii10052" unicode="&#x403;" horiz-adv-x="529" 
d="M123 0h-88l137 700h411l-17 -84h-323zM386 756h-72l97 144h123z" />
    <glyph glyph-name="afii10053" unicode="&#x404;" horiz-adv-x="662" 
d="M39 275c0 194 131 433 374 433c139 0 225 -90 241 -212l-84 -23c-19 108 -82 151 -178 151c-112 0 -206 -88 -241 -232h330l-17 -84h-330c-3 -20 -4 -34 -4 -49c0 -116 60 -183 160 -183c96 0 176 50 227 153l80 -25c-56 -123 -170 -212 -313 -212
c-137 0 -245 92 -245 283z" />
    <glyph glyph-name="afii10054" unicode="&#x405;" horiz-adv-x="523" 
d="M22 184l80 43c5 -83 45 -151 128 -151c75 0 140 43 140 131c0 68 -40 96 -107 128c-70 35 -137 85 -137 179c0 127 88 194 205 194c85 0 140 -61 156 -124l-76 -42c-23 61 -53 82 -96 82c-63 0 -97 -37 -97 -97c0 -63 44 -90 111 -125c80 -43 133 -78 133 -179
c0 -79 -23 -127 -66 -166c-55 -51 -108 -65 -185 -65c-99 0 -189 85 -189 192z" />
    <glyph glyph-name="afii10055" unicode="&#x406;" horiz-adv-x="296" 
d="M124 0h-89l137 700h89z" />
    <glyph glyph-name="afii10056" unicode="&#x407;" horiz-adv-x="296" 
d="M124 0h-89l137 700h89zM100 847c0 32 25 57 56 57c33 0 57 -25 57 -57s-24 -56 -57 -56c-31 0 -56 24 -56 56zM266 847c0 32 25 57 56 57c33 0 57 -25 57 -57s-24 -56 -57 -56c-31 0 -56 24 -56 56z" />
    <glyph glyph-name="afii10057" unicode="&#x408;" horiz-adv-x="541" 
d="M5 175l89 19c0 -73 31 -118 99 -118c69 0 116 40 136 143l93 481h89l-100 -515c-25 -131 -112 -193 -228 -193c-112 0 -178 91 -178 183z" />
    <glyph glyph-name="afii10058" unicode="&#x409;" horiz-adv-x="893" 
d="M-55 0l17 84c56 0 103 20 127 105l137 511h318l-55 -285h140c125 0 200 -63 200 -176c0 -158 -114 -239 -263 -239h-247l120 616h-147l-114 -430c-33 -125 -104 -186 -233 -186zM473 331l-48 -247h145c96 0 167 45 167 138c0 72 -43 109 -119 109h-145z" />
    <glyph glyph-name="afii10059" unicode="&#x40a;" horiz-adv-x="944" 
d="M124 0h-89l137 700h89l-56 -285h246l55 285h89l-55 -285h140c125 0 200 -63 200 -176c0 -158 -114 -239 -263 -239h-247l65 331h-246zM524 331l-48 -247h145c96 0 167 45 167 138c0 72 -43 109 -119 109h-145z" />
    <glyph glyph-name="afii10060" unicode="&#x40b;" horiz-adv-x="696" 
d="M258 616h-197l17 84h483l-17 -84h-197l-41 -206c44 61 111 102 190 102c73 0 123 -39 123 -112c0 -15 -2 -31 -5 -50l-68 -350h-85l64 333c3 12 3 25 3 36c0 43 -21 67 -69 67c-70 0 -164 -82 -191 -222l-41 -214h-89z" />
    <glyph glyph-name="afii10061" unicode="&#x40c;" horiz-adv-x="597" 
d="M124 0h-89l137 700h89l-55 -281l298 281h120l-341 -318l224 -382h-108l-206 353zM400 756h-72l97 144h123z" />
    <glyph glyph-name="uni040D" unicode="&#x40d;" horiz-adv-x="706" 
d="M138 0h-103l137 700h88l-107 -547l415 547h103l-137 -700h-88l106 545zM386 756l-101 144h121l48 -144h-68z" />
    <glyph glyph-name="afii10062" unicode="&#x40e;" horiz-adv-x="524" 
d="M139 -8h-89l129 216l-108 492h89l81 -385l230 385h95zM231 874c0 7 1 15 2 22h67c-1 -3 -1 -6 -1 -10c0 -21 13 -35 36 -35c29 0 48 18 53 45h67c-17 -71 -67 -109 -132 -109c-53 0 -92 35 -92 87z" />
    <glyph glyph-name="afii10145" unicode="&#x40f;" horiz-adv-x="702" 
d="M239 0h-204l136 700h89l-120 -616h318l120 616h89l-136 -700h-204l-25 -124h-88z" />
    <glyph glyph-name="afii10017" unicode="&#x410;" horiz-adv-x="574" 
d="M32 0h-89l372 700h85l106 -700h-89l-25 187h-261zM335 586l-160 -315h205z" />
    <glyph glyph-name="afii10018" unicode="&#x411;" horiz-adv-x="609" 
d="M282 0h-247l137 700h389l-16 -84h-301l-39 -201h140c125 0 200 -63 200 -176c0 -158 -114 -239 -263 -239zM189 331l-48 -247h145c96 0 167 45 167 138c0 72 -43 109 -119 109h-145z" />
    <glyph glyph-name="afii10019" unicode="&#x412;" horiz-adv-x="609" 
d="M282 0h-247l137 700h222c113 0 173 -56 173 -156c0 -81 -47 -136 -111 -163c45 -21 89 -66 89 -142c0 -158 -114 -239 -263 -239zM189 331l-48 -247h145c96 0 167 45 167 138c0 72 -43 109 -119 109h-145zM244 616l-39 -201h140c67 0 133 34 133 113c0 63 -36 88 -96 88
h-138z" />
    <glyph glyph-name="afii10020" unicode="&#x413;" horiz-adv-x="529" 
d="M123 0h-88l137 700h411l-17 -84h-323z" />
    <glyph glyph-name="afii10021" unicode="&#x414;" horiz-adv-x="680" 
d="M52 -124h-83l26 208h56l223 616h371l-120 -616h63l-50 -208h-84l22 124h-401zM333 616l-190 -532h293l104 532h-207z" />
    <glyph glyph-name="afii10022" unicode="&#x415;" horiz-adv-x="563" 
d="M441 0h-406l137 700h396l-17 -84h-307l-39 -201h250l-16 -84h-250l-48 -247h317z" />
    <glyph glyph-name="afii10024" unicode="&#x416;" horiz-adv-x="847" 
d="M1 0h-111l382 386l-222 314h112l205 -280l55 280h89l-55 -281l298 281h120l-341 -318l224 -382h-108l-206 353l-69 -353h-89l69 352z" />
    <glyph glyph-name="afii10025" unicode="&#x417;" 
d="M52 184v8l84 11v-6c0 -72 44 -125 124 -125c101 0 145 64 145 173c0 83 -43 123 -115 123c-21 0 -42 -2 -65 -13l-26 47l189 218h-243l15 80h381l-5 -27l-222 -241c7 3 19 3 26 3c96 0 154 -67 154 -188c0 -148 -88 -255 -244 -255c-121 0 -198 93 -198 192z" />
    <glyph glyph-name="afii10026" unicode="&#x418;" horiz-adv-x="706" 
d="M138 0h-103l137 700h88l-107 -547l415 547h103l-137 -700h-88l106 545z" />
    <glyph glyph-name="afii10027" unicode="&#x419;" horiz-adv-x="706" 
d="M138 0h-103l137 700h88l-107 -547l415 547h103l-137 -700h-88l106 545zM331 874c0 7 1 15 2 22h67c-1 -3 -1 -6 -1 -10c0 -21 13 -35 36 -35c29 0 48 18 53 45h67c-17 -71 -67 -109 -132 -109c-53 0 -92 35 -92 87z" />
    <glyph glyph-name="afii10028" unicode="&#x41a;" horiz-adv-x="597" 
d="M124 0h-89l137 700h89l-55 -281l298 281h120l-341 -318l224 -382h-108l-206 353z" />
    <glyph glyph-name="afii10029" unicode="&#x41b;" horiz-adv-x="649" 
d="M-55 0l17 84c60 0 103 20 127 105l137 511h388l-137 -700h-88l120 616h-219l-113 -430c-33 -125 -103 -186 -232 -186z" />
    <glyph glyph-name="afii10030" unicode="&#x41c;" horiz-adv-x="790" 
d="M124 0h-89l137 700h104l92 -493l279 493h108l-137 -700h-89l100 510l-254 -446h-66l-85 446z" />
    <glyph glyph-name="afii10031" unicode="&#x41d;" horiz-adv-x="695" 
d="M124 0h-89l137 700h89l-56 -286h310l56 286h89l-137 -700h-89l65 330h-310z" />
    <glyph glyph-name="afii10032" unicode="&#x41e;" horiz-adv-x="713" 
d="M39 275c0 147 54 264 151 348c69 60 139 85 235 85c144 0 247 -103 247 -283c0 -147 -54 -264 -151 -348c-69 -60 -139 -85 -235 -85c-144 0 -247 103 -247 283zM131 283c0 -135 59 -207 170 -207c72 0 133 31 181 82c63 67 98 159 98 259c0 135 -59 207 -170 207
c-72 0 -133 -31 -181 -82c-63 -67 -98 -159 -98 -259z" />
    <glyph glyph-name="afii10033" unicode="&#x41f;" horiz-adv-x="699" 
d="M124 0h-89l137 700h492l-137 -700h-89l120 616h-314z" />
    <glyph glyph-name="afii10034" unicode="&#x420;" horiz-adv-x="584" 
d="M124 0h-89l137 700h224c113 0 187 -63 187 -166c0 -156 -103 -234 -258 -234h-142zM244 616l-45 -232h153c80 0 138 46 138 134c0 60 -31 98 -100 98h-146z" />
    <glyph glyph-name="afii10035" unicode="&#x421;" horiz-adv-x="662" 
d="M39 272c0 221 143 436 388 436c138 0 219 -102 227 -212l-85 -23c-17 105 -69 151 -158 151c-184 0 -280 -175 -280 -342c0 -133 58 -206 173 -206c92 0 154 44 213 153l78 -25c-64 -139 -161 -212 -302 -212c-147 0 -254 97 -254 280z" />
    <glyph glyph-name="afii10036" unicode="&#x422;" horiz-adv-x="507" 
d="M258 616h-197l17 84h483l-17 -84h-197l-120 -616h-89z" />
    <glyph glyph-name="afii10037" unicode="&#x423;" horiz-adv-x="524" 
d="M139 -8h-89l129 216l-108 492h89l81 -385l230 385h95z" />
    <glyph glyph-name="afii10038" unicode="&#x424;" horiz-adv-x="802" 
d="M52 311c0 168 150 317 344 317h8l14 72h89l-14 -72h5c136 0 238 -88 238 -239c0 -168 -150 -317 -344 -317h-8l-14 -72h-89l14 72h-5c-136 0 -238 88 -238 239zM145 325c0 -108 54 -169 157 -169h10l75 388h-10c-133 0 -232 -107 -232 -219zM476 544l-75 -388h10
c133 0 232 107 232 219c0 108 -54 169 -157 169h-10z" />
    <glyph glyph-name="afii10039" unicode="&#x425;" horiz-adv-x="531" 
d="M47 0h-101l291 384l-118 316h94l86 -234l177 234h98l-243 -321l142 -379h-92l-112 297z" />
    <glyph glyph-name="afii10040" unicode="&#x426;" horiz-adv-x="698" 
d="M499 0h-464l136 700h89l-120 -616h314l120 616h89l-120 -616h68l-53 -208h-84z" />
    <glyph glyph-name="afii10041" unicode="&#x427;" horiz-adv-x="655" 
d="M88 365c0 21 2 43 7 70l52 265h88l-52 -263c-4 -21 -6 -40 -6 -55c0 -77 52 -102 120 -102c59 0 119 29 166 72l68 348h89l-137 -700h-89l49 251c-68 -43 -126 -55 -175 -55c-112 0 -180 57 -180 169z" />
    <glyph glyph-name="afii10042" unicode="&#x428;" horiz-adv-x="985" 
d="M813 0h-778l137 700h89l-120 -616h256l120 616h89l-120 -616h256l120 616h88z" />
    <glyph glyph-name="afii10043" unicode="&#x429;" horiz-adv-x="985" 
d="M785 0h-750l137 700h89l-120 -616h256l120 616h88l-119 -616h256l120 616h88l-121 -616h68l-53 -208h-84z" />
    <glyph glyph-name="afii10044" unicode="&#x42a;" horiz-adv-x="609" 
d="M156 616h-128l17 84h215l-55 -285h140c125 0 200 -63 200 -176c0 -158 -114 -239 -263 -239h-247zM189 331l-48 -247h145c96 0 167 45 167 138c0 72 -43 109 -119 109h-145z" />
    <glyph glyph-name="afii10045" unicode="&#x42b;" horiz-adv-x="891" 
d="M282 0h-247l137 700h88l-55 -285h140c125 0 200 -63 200 -176c0 -158 -114 -239 -263 -239zM189 331l-48 -247h145c96 0 167 45 167 138c0 72 -43 109 -119 109h-145zM719 0h-85l137 708h85z" />
    <glyph glyph-name="afii10046" unicode="&#x42c;" horiz-adv-x="609" 
d="M282 0h-247l137 700h88l-55 -285h140c125 0 200 -63 200 -176c0 -158 -114 -239 -263 -239zM189 331l-48 -247h145c96 0 167 45 167 138c0 72 -43 109 -119 109h-145z" />
    <glyph glyph-name="afii10047" unicode="&#x42d;" horiz-adv-x="682" 
d="M30 205l86 24c15 -108 71 -153 167 -153c123 0 207 81 246 232h-330l17 84h330c3 20 4 35 4 47c0 123 -53 185 -160 185c-96 0 -176 -50 -227 -153l-80 25c56 123 174 212 318 212c143 0 240 -100 240 -279c0 -212 -134 -437 -362 -437c-151 0 -236 93 -249 213z" />
    <glyph glyph-name="afii10048" unicode="&#x42e;" horiz-adv-x="1018" 
d="M124 0h-89l137 700h89l-60 -308h148c22 93 68 170 139 231c69 60 139 85 235 85c144 0 247 -103 247 -283c0 -147 -54 -264 -151 -348c-69 -60 -139 -85 -235 -85c-144 0 -247 103 -247 283v17c0 5 0 11 1 16h-153zM429 283c0 -135 59 -207 170 -207c72 0 133 31 181 82
c63 67 98 159 98 259c0 135 -59 207 -170 207c-72 0 -133 -31 -181 -82c-63 -67 -98 -159 -98 -259z" />
    <glyph glyph-name="afii10049" unicode="&#x42f;" horiz-adv-x="627" 
d="M61 0h-107l274 336c-60 18 -115 67 -115 148c0 138 112 216 246 216h233l-137 -700h-88l65 330h-105zM205 496c0 -56 40 -82 96 -82h147l39 202h-147c-83 -3 -135 -52 -135 -120z" />
    <glyph glyph-name="afii10065" unicode="&#x430;" horiz-adv-x="586" 
d="M27 197c0 165 93 315 273 315c72 0 121 -39 134 -68l11 60h85l-97 -504h-85l12 62c-39 -43 -88 -70 -149 -70c-127 0 -184 90 -184 205zM116 220c0 -92 43 -152 119 -152c123 0 174 133 174 236c0 80 -40 132 -116 132c-123 0 -177 -116 -177 -216z" />
    <glyph glyph-name="afii10066" unicode="&#x431;" horiz-adv-x="582" 
d="M27 236c0 200 100 464 341 464h47c43 0 65 12 82 47h55c-12 -85 -60 -123 -147 -123h-46c-102 0 -186 -75 -210 -182c39 36 98 70 182 70c121 0 186 -89 186 -228c0 -148 -126 -292 -282 -292c-107 0 -208 72 -208 244zM108 220c0 -93 53 -152 134 -152
c105 0 187 105 187 210c0 95 -38 158 -125 158c-115 0 -196 -107 -196 -216z" />
    <glyph glyph-name="afii10067" unicode="&#x432;" horiz-adv-x="516" 
d="M229 0h-199l97 504h187c84 0 132 -42 132 -110c0 -53 -32 -93 -79 -118c31 -19 56 -54 56 -106c0 -100 -81 -170 -194 -170zM158 230l-30 -154h107c56 0 101 28 101 84c0 44 -24 70 -71 70h-107zM197 428l-24 -122h107c47 0 79 26 79 65c0 36 -19 57 -59 57h-103z" />
    <glyph glyph-name="afii10068" unicode="&#x433;" horiz-adv-x="441" 
d="M114 0h-84l97 504h316l-14 -76h-232z" />
    <glyph glyph-name="afii10069" unicode="&#x434;" horiz-adv-x="577" 
d="M36 -114h-73l21 190h34l154 428h344l-84 -428h35l-49 -190h-74l23 114h-310zM221 428l-123 -352h250l69 352h-196z" />
    <glyph glyph-name="afii10070" unicode="&#x435;" horiz-adv-x="562" 
d="M25 204c0 151 120 308 292 308c116 0 186 -74 186 -189c0 -19 -1 -27 -5 -50l-8 -39h-373c-2 -13 -3 -25 -3 -36c0 -80 40 -130 117 -130c75 0 117 36 157 99l72 -35c-67 -99 -136 -140 -244 -140c-117 0 -191 87 -191 212zM136 310h278c0 79 -31 126 -112 126
c-76 0 -137 -53 -166 -126z" />
    <glyph glyph-name="afii10072" unicode="&#x436;" horiz-adv-x="698" 
d="M19 0h-112l282 273l-172 231h102l158 -211l41 211h85l-41 -211l216 211h115l-249 -236l171 -268h-103l-158 253l-49 -253h-85l49 252z" />
    <glyph glyph-name="afii10073" unicode="&#x437;" horiz-adv-x="417" 
d="M5 138l81 10c0 -47 30 -80 81 -80c56 0 101 41 101 104c0 48 -27 78 -71 78c-13 0 -27 -3 -41 -8l-32 52l121 134h-161l15 76h288l-5 -28l-157 -165c5 1 8 1 10 1h8c64 0 107 -47 107 -127c0 -105 -84 -193 -195 -193c-99 0 -150 66 -150 146z" />
    <glyph glyph-name="afii10074" unicode="&#x438;" horiz-adv-x="587" 
d="M122 0h-92l97 504h84l-72 -372l298 372h92l-97 -504h-84l72 372z" />
    <glyph glyph-name="afii10075" unicode="&#x439;" horiz-adv-x="587" 
d="M122 0h-92l97 504h84l-72 -372l298 372h92l-97 -504h-84l72 372zM245 678c0 7 1 15 2 22h67c-1 -3 -1 -6 -1 -10c0 -21 13 -35 36 -35c29 0 48 18 53 45h67c-17 -71 -67 -109 -132 -109c-53 0 -92 35 -92 87z" />
    <glyph glyph-name="afii10076" unicode="&#x43a;" horiz-adv-x="508" 
d="M115 0h-85l98 504h85l-41 -211l216 211h115l-249 -236l171 -268h-103l-158 253z" />
    <glyph glyph-name="afii10077" unicode="&#x43b;" horiz-adv-x="610" 
d="M-7 0l13 76c68 0 98 24 118 92l98 336h330l-97 -504h-84l83 428h-173l-87 -291c-29 -100 -94 -137 -201 -137z" />
    <glyph glyph-name="afii10078" unicode="&#x43c;" horiz-adv-x="651" 
d="M114 0h-84l97 504h102l67 -332l192 332h105l-97 -504h-84l68 352l-175 -306h-56l-67 306z" />
    <glyph glyph-name="afii10079" unicode="&#x43d;" horiz-adv-x="569" 
d="M114 0h-84l97 504h84l-38 -198h216l38 198h84l-97 -504h-84l44 230h-216z" />
    <glyph glyph-name="afii10080" unicode="&#x43e;" horiz-adv-x="573" 
d="M27 204c0 92 28 159 69 210c53 67 121 98 213 98c124 0 199 -77 199 -212c0 -92 -28 -159 -69 -210c-53 -67 -121 -98 -213 -98c-124 0 -199 77 -199 212zM116 216c0 -92 38 -148 118 -148c61 0 107 28 140 71s45 90 45 149c0 92 -38 148 -118 148
c-61 0 -107 -28 -140 -71s-45 -90 -45 -149z" />
    <glyph glyph-name="afii10081" unicode="&#x43f;" horiz-adv-x="565" 
d="M114 0h-84l97 504h380l-97 -504h-84l83 428h-212z" />
    <glyph glyph-name="afii10082" unicode="&#x440;" horiz-adv-x="605" 
d="M75 -204h-85l138 708h85l-13 -62c36 41 94 70 158 70c116 0 182 -73 182 -194c0 -171 -102 -326 -275 -326c-67 0 -114 29 -139 68zM151 198c0 -84 41 -130 121 -130c122 0 179 128 179 228c0 84 -39 140 -116 140c-124 0 -184 -137 -184 -238z" />
    <glyph glyph-name="afii10083" unicode="&#x441;" horiz-adv-x="540" 
d="M27 203c0 151 100 309 287 309c103 0 158 -48 181 -140l-76 -29c-17 64 -56 93 -120 93c-112 0 -183 -107 -183 -224c0 -91 44 -144 113 -144c68 0 110 34 151 102l71 -37c-69 -109 -134 -141 -237 -141c-115 0 -187 85 -187 211z" />
    <glyph glyph-name="afii10084" unicode="&#x442;" horiz-adv-x="430" 
d="M184 428h-135l14 76h354l-14 -76h-135l-83 -428h-84z" />
    <glyph glyph-name="afii10085" unicode="&#x443;" horiz-adv-x="466" 
d="M86 -204h-89l125 236l-81 472h89l58 -364l194 364h89z" />
    <glyph glyph-name="afii10086" unicode="&#x444;" horiz-adv-x="707" 
d="M27 216c0 160 126 293 316 296l36 188h84l-36 -188c129 0 215 -87 215 -224c0 -160 -126 -293 -316 -296l-38 -196h-84l38 196c-129 0 -215 87 -215 224zM114 224c0 -100 50 -156 135 -156h8l71 368h-8c-125 0 -206 -97 -206 -212zM412 436l-71 -368h8
c123 0 206 97 206 212c0 100 -50 156 -135 156h-8z" />
    <glyph glyph-name="afii10087" unicode="&#x445;" horiz-adv-x="462" 
d="M65 0h-101l215 275l-98 229h92l67 -160l126 160h98l-192 -238l107 -266h-89l-76 190z" />
    <glyph glyph-name="afii10088" unicode="&#x446;" horiz-adv-x="569" 
d="M362 0h-332l98 504h84l-84 -428h215l84 428h84l-84 -428h34l-55 -190h-67z" />
    <glyph glyph-name="afii10089" unicode="&#x447;" horiz-adv-x="536" 
d="M34 213c0 13 2 28 5 44l47 247h84l-45 -238c-3 -12 -4 -22 -4 -31c0 -44 26 -69 66 -69c53 0 111 41 162 104l45 234h84l-97 -504h-84l33 170c-59 -57 -109 -78 -169 -78c-80 0 -127 50 -127 121z" />
    <glyph glyph-name="afii10090" unicode="&#x448;" horiz-adv-x="821" 
d="M666 0h-636l97 504h84l-83 -428h192l83 428h84l-83 -428h192l83 428h84z" />
    <glyph glyph-name="afii10091" unicode="&#x449;" horiz-adv-x="822" 
d="M615 0h-585l98 504h84l-84 -428h192l84 428h84l-84 -428h192l84 428h84l-84 -428h34l-55 -190h-67z" />
    <glyph glyph-name="afii10092" unicode="&#x44a;" horiz-adv-x="492" 
d="M113 428h-86l14 76h170l-37 -192h106c88 0 149 -45 149 -133c0 -105 -87 -179 -202 -179h-197zM159 236l-31 -160h92c76 0 123 30 123 94c0 39 -28 66 -84 66h-100z" />
    <glyph glyph-name="afii10093" unicode="&#x44b;" horiz-adv-x="728" 
d="M227 0h-197l97 504h84l-37 -192h106c88 0 149 -45 149 -133c0 -105 -87 -179 -202 -179zM159 236l-31 -160h92c76 0 123 30 123 94c0 39 -28 66 -84 66h-100zM572 0h-85l98 504h85z" />
    <glyph glyph-name="afii10094" unicode="&#x44c;" horiz-adv-x="492" 
d="M227 0h-197l97 504h84l-37 -192h106c88 0 149 -45 149 -133c0 -105 -87 -179 -202 -179zM159 236l-31 -160h92c76 0 123 30 123 94c0 39 -28 66 -84 66h-100z" />
    <glyph glyph-name="afii10095" unicode="&#x44d;" horiz-adv-x="565" 
d="M29 128l72 33c16 -56 65 -93 126 -93c88 0 147 57 171 146h-239l15 76h239c0 7 1 11 1 18c0 75 -37 128 -121 128c-63 0 -118 -37 -155 -96l-65 40c52 80 136 132 235 132c125 0 192 -89 192 -221c0 -144 -110 -299 -283 -299c-104 0 -167 60 -188 136z" />
    <glyph glyph-name="afii10096" unicode="&#x44e;" horiz-adv-x="806" 
d="M119 0h-84l97 504h84l-41 -214h94c11 51 33 89 60 124c53 67 121 98 213 98c124 0 199 -77 199 -212c0 -92 -28 -159 -69 -210c-53 -67 -121 -98 -213 -98c-124 0 -199 77 -199 212v10h-100zM349 216c0 -92 38 -148 118 -148c61 0 107 28 140 71s45 90 45 149
c0 92 -38 148 -118 148c-61 0 -107 -28 -140 -71s-45 -90 -45 -149z" />
    <glyph glyph-name="afii10097" unicode="&#x44f;" horiz-adv-x="501" 
d="M63 0h-89l170 233c-43 19 -73 56 -73 112c0 94 83 159 182 159h183l-97 -504h-84l43 226h-71zM152 357c0 -36 28 -55 67 -55h94l25 126h-94c-48 0 -92 -23 -92 -71z" />
    <glyph glyph-name="uni0450" unicode="&#x450;" horiz-adv-x="562" 
d="M25 204c0 151 120 308 292 308c116 0 186 -74 186 -189c0 -19 -1 -27 -5 -50l-8 -39h-373c-2 -13 -3 -25 -3 -36c0 -80 40 -130 117 -130c75 0 117 36 157 99l72 -35c-67 -99 -136 -140 -244 -140c-117 0 -191 87 -191 212zM136 310h278c0 79 -31 126 -112 126
c-76 0 -137 -53 -166 -126zM326 560l-101 144h121l48 -144h-68z" />
    <glyph glyph-name="afii10071" unicode="&#x451;" horiz-adv-x="562" 
d="M25 204c0 151 120 308 292 308c116 0 186 -74 186 -189c0 -19 -1 -27 -5 -50l-8 -39h-373c-2 -13 -3 -25 -3 -36c0 -80 40 -130 117 -130c75 0 117 36 157 99l72 -35c-67 -99 -136 -140 -244 -140c-117 0 -191 87 -191 212zM136 310h278c0 79 -31 126 -112 126
c-76 0 -137 -53 -166 -126zM198 651c0 32 25 57 56 57c33 0 57 -25 57 -57s-24 -56 -57 -56c-31 0 -56 24 -56 56zM364 651c0 32 25 57 56 57c33 0 57 -25 57 -57s-24 -56 -57 -56c-31 0 -56 24 -56 56z" />
    <glyph glyph-name="afii10099" unicode="&#x452;" horiz-adv-x="584" 
d="M115 0h-85l110 572h-71l14 68h70l14 68h85l-14 -68h127l-14 -68h-126l-31 -162c44 61 111 102 190 102c73 0 123 -39 123 -112c0 -15 -2 -31 -5 -50l-73 -376c-24 -120 -81 -170 -190 -186l-8 82c61 16 99 36 115 112l67 351c3 12 3 25 3 36c0 43 -21 67 -69 67
c-70 0 -164 -82 -191 -222z" />
    <glyph glyph-name="afii10100" unicode="&#x453;" horiz-adv-x="441" 
d="M114 0h-84l97 504h316l-14 -76h-232zM297 560h-72l97 144h123z" />
    <glyph glyph-name="afii10101" unicode="&#x454;" horiz-adv-x="548" 
d="M27 201c0 153 110 311 281 311c109 0 172 -53 195 -132l-74 -36c-16 57 -61 92 -124 92c-93 0 -149 -62 -176 -146h239l-15 -76h-239c-1 -3 -1 -5 -1 -8v-8c0 -76 42 -130 121 -130c63 0 120 34 157 93l63 -37c-57 -85 -125 -132 -225 -132c-128 0 -202 86 -202 209z" />
    <glyph glyph-name="afii10102" unicode="&#x455;" horiz-adv-x="460" 
d="M16 135l74 36c12 -59 46 -103 114 -103c51 0 83 30 83 74c0 51 -36 68 -92 92c-55 24 -99 66 -99 134c0 92 64 144 163 144c64 0 118 -32 145 -84l-66 -49c-25 38 -55 57 -89 57c-36 0 -68 -22 -68 -63c0 -39 32 -58 69 -75c57 -24 126 -57 126 -140
c0 -104 -77 -166 -182 -166s-167 72 -178 143z" />
    <glyph glyph-name="afii10103" unicode="&#x456;" horiz-adv-x="276" 
d="M115 0h-85l98 504h85zM132 644c0 36 27 64 63 64s63 -28 63 -64c0 -35 -27 -62 -63 -62s-63 27 -63 62z" />
    <glyph glyph-name="afii10104" unicode="&#x457;" horiz-adv-x="276" 
d="M115 0h-85l98 504h85zM55 651c0 32 25 57 56 57c33 0 57 -25 57 -57s-24 -56 -57 -56c-31 0 -56 24 -56 56zM221 651c0 32 25 57 56 57c33 0 57 -25 57 -57s-24 -56 -57 -56c-31 0 -56 24 -56 56z" />
    <glyph glyph-name="afii10105" unicode="&#x458;" horiz-adv-x="276" 
d="M-80 -212l-8 82c61 16 99 36 115 112l101 522h85l-103 -530c-24 -120 -81 -170 -190 -186zM132 644c0 36 27 64 63 64s63 -28 63 -64c0 -35 -27 -62 -63 -62s-63 27 -63 62z" />
    <glyph glyph-name="afii10106" unicode="&#x459;" horiz-adv-x="785" 
d="M-7 0l13 76c68 0 98 24 118 92l98 336h282l-37 -192h106c88 0 149 -45 149 -133c0 -105 -87 -179 -202 -179h-197l83 428h-125l-87 -291c-31 -100 -94 -137 -201 -137zM452 236l-31 -160h92c76 0 123 30 123 94c0 39 -28 66 -84 66h-100z" />
    <glyph glyph-name="afii10107" unicode="&#x45a;" horiz-adv-x="792" 
d="M114 0h-84l97 504h84l-37 -192h216l37 192h84l-37 -192h106c88 0 149 -45 149 -133c0 -105 -87 -179 -202 -179h-197l45 236h-216zM459 236l-31 -160h92c76 0 123 30 123 94c0 39 -28 66 -84 66h-100z" />
    <glyph glyph-name="afii10108" unicode="&#x45b;" horiz-adv-x="584" 
d="M115 0h-85l110 572h-71l14 68h70l14 68h85l-14 -68h127l-14 -68h-126l-31 -162c44 61 111 102 190 102c73 0 123 -39 123 -112c0 -15 -2 -31 -5 -50l-68 -350h-85l64 333c3 12 3 25 3 36c0 43 -21 67 -69 67c-70 0 -164 -82 -191 -222z" />
    <glyph glyph-name="afii10109" unicode="&#x45c;" horiz-adv-x="508" 
d="M115 0h-85l98 504h85l-41 -211l216 211h115l-249 -236l171 -268h-103l-158 253zM314 560h-72l97 144h123z" />
    <glyph glyph-name="uni045D" unicode="&#x45d;" horiz-adv-x="592" 
d="M122 0h-92l97 504h84l-72 -372l298 372h92l-97 -504h-84l72 372zM314 560l-101 144h121l48 -144h-68z" />
    <glyph glyph-name="afii10110" unicode="&#x45e;" horiz-adv-x="466" 
d="M86 -204h-89l125 236l-81 472h89l58 -364l194 364h89zM167 678c0 7 1 15 2 22h67c-1 -3 -1 -6 -1 -10c0 -21 13 -35 36 -35c29 0 48 18 53 45h67c-17 -71 -67 -109 -132 -109c-53 0 -92 35 -92 87z" />
    <glyph glyph-name="afii10193" unicode="&#x45f;" horiz-adv-x="577" 
d="M181 0h-151l98 504h84l-84 -428h218l84 428h84l-98 -504h-151l-23 -114h-84z" />
    <glyph glyph-name="uni2000" unicode="&#x2000;" horiz-adv-x="551" 
 />
    <glyph glyph-name="uni2001" unicode="&#x2001;" horiz-adv-x="1102" 
 />
    <glyph glyph-name="uni2002" unicode="&#x2002;" horiz-adv-x="551" 
 />
    <glyph glyph-name="uni2003" unicode="&#x2003;" horiz-adv-x="1102" 
 />
    <glyph glyph-name="uni2004" unicode="&#x2004;" horiz-adv-x="367" 
 />
    <glyph glyph-name="uni2005" unicode="&#x2005;" horiz-adv-x="275" 
 />
    <glyph glyph-name="uni2006" unicode="&#x2006;" horiz-adv-x="183" 
 />
    <glyph glyph-name="uni2007" unicode="&#x2007;" horiz-adv-x="183" 
 />
    <glyph glyph-name="uni2008" unicode="&#x2008;" horiz-adv-x="137" 
 />
    <glyph glyph-name="uni2009" unicode="&#x2009;" horiz-adv-x="220" 
 />
    <glyph glyph-name="uni200A" unicode="&#x200a;" horiz-adv-x="61" 
 />
    <glyph glyph-name="uni2010" unicode="&#x2010;" horiz-adv-x="479" 
d="M394 280h-339l15 74h339z" />
    <glyph glyph-name="uni2011" unicode="&#x2011;" horiz-adv-x="479" 
d="M394 280h-339l15 74h339z" />
    <glyph glyph-name="figuredash" unicode="&#x2012;" horiz-adv-x="479" 
d="M394 280h-339l15 74h339z" />
    <glyph glyph-name="endash" unicode="&#x2013;" horiz-adv-x="545" 
d="M467 280h-412l15 74h412z" />
    <glyph glyph-name="emdash" unicode="&#x2014;" horiz-adv-x="736" 
d="M658 280h-603l15 74h603z" />
    <glyph glyph-name="quoteleft" unicode="&#x2018;" horiz-adv-x="242" 
d="M158 503l-87 205h119l29 -205h-61z" />
    <glyph glyph-name="quoteright" unicode="&#x2019;" horiz-adv-x="243" 
d="M140 503h-64l103 205h125z" />
    <glyph glyph-name="quotesinglbase" unicode="&#x201a;" horiz-adv-x="328" 
d="M59 -14h-64l103 205h125z" />
    <glyph glyph-name="quotedblleft" unicode="&#x201c;" horiz-adv-x="412" 
d="M158 503l-87 205h119l29 -205h-61zM328 503l-87 205h119l29 -205h-61z" />
    <glyph glyph-name="quotedblright" unicode="&#x201d;" horiz-adv-x="423" 
d="M140 503h-64l103 205h125zM320 503h-64l103 205h125z" />
    <glyph glyph-name="quotedblbase" unicode="&#x201e;" horiz-adv-x="508" 
d="M59 -14h-64l103 205h125zM239 -14h-64l103 205h125z" />
    <glyph glyph-name="dagger" unicode="&#x2020;" horiz-adv-x="454" 
d="M199 424h-129l14 80h130l48 246h81l-48 -246h130l-15 -80h-130l-92 -474h-81z" />
    <glyph glyph-name="daggerdbl" unicode="&#x2021;" horiz-adv-x="454" 
d="M155 196h-129l15 80h129l29 148h-129l14 80h130l48 246h81l-48 -246h130l-15 -80h-130l-29 -148h130l-15 -80h-130l-48 -246h-81z" />
    <glyph glyph-name="bullet" unicode="&#x2022;" horiz-adv-x="321" 
d="M75 330c0 43 34 77 77 77s77 -34 77 -77s-34 -77 -77 -77s-77 34 -77 77z" />
    <glyph glyph-name="ellipsis" unicode="&#x2026;" horiz-adv-x="805" 
d="M25 59c0 35 27 63 63 63c35 0 63 -28 63 -63c0 -36 -28 -63 -63 -63c-36 0 -63 27 -63 63zM290 59c0 35 27 63 63 63c35 0 63 -28 63 -63c0 -36 -28 -63 -63 -63c-36 0 -63 27 -63 63zM555 59c0 35 27 63 63 63c35 0 63 -28 63 -63c0 -36 -28 -63 -63 -63
c-36 0 -63 27 -63 63z" />
    <glyph glyph-name="uni202F" unicode="&#x202f;" horiz-adv-x="220" 
 />
    <glyph glyph-name="perthousand" unicode="&#x2030;" horiz-adv-x="1254" 
d="M116 -29l-45 44l676 718l46 -43zM77 526c0 56 21 101 58 134c33 31 70 48 131 48c72 0 134 -53 134 -138c0 -56 -21 -101 -58 -134c-33 -31 -70 -48 -131 -48c-72 0 -134 53 -134 138zM151 536c0 -53 32 -78 72 -78c28 0 51 9 70 26c20 19 33 47 33 76
c0 53 -32 78 -72 78c-28 0 -51 -9 -70 -26c-20 -19 -33 -47 -33 -76zM447 130c0 56 21 101 58 134c33 31 70 48 131 48c72 0 134 -53 134 -138c0 -56 -21 -101 -58 -134c-33 -31 -70 -48 -131 -48c-72 0 -134 53 -134 138zM521 140c0 -53 32 -78 72 -78c28 0 51 9 70 26
c20 19 33 47 33 76c0 53 -32 78 -72 78c-28 0 -51 -9 -70 -26c-20 -19 -33 -47 -33 -76zM847 130c0 56 21 101 58 134c33 31 70 48 131 48c72 0 134 -53 134 -138c0 -56 -21 -101 -58 -134c-33 -31 -70 -48 -131 -48c-72 0 -134 53 -134 138zM921 140c0 -53 32 -78 72 -78
c28 0 51 9 70 26c20 19 33 47 33 76c0 53 -32 78 -72 78c-28 0 -51 -9 -70 -26c-20 -19 -33 -47 -33 -76z" />
    <glyph glyph-name="guilsinglleft" unicode="&#x2039;" horiz-adv-x="386" 
d="M274 80l-239 199l13 62l316 204l-21 -107l-222 -135l170 -135z" />
    <glyph glyph-name="guilsinglright" unicode="&#x203a;" horiz-adv-x="386" 
d="M334 284l-316 -204l21 107l222 135l-170 135l17 88l239 -199z" />
    <glyph glyph-name="fraction" unicode="&#x2044;" horiz-adv-x="742" 
d="M55 -29l-45 44l676 718l46 -43z" />
    <glyph glyph-name="uni205F" unicode="&#x205f;" horiz-adv-x="275" 
 />
    <glyph glyph-name="uni2070" unicode="&#x2070;" horiz-adv-x="365" 
d="M42 443c0 124 59 261 197 261c79 0 118 -55 118 -147c0 -124 -59 -261 -197 -261c-79 0 -118 55 -118 147zM110 454c0 -68 23 -98 62 -98c84 0 117 118 117 190c0 68 -23 98 -62 98c-84 0 -117 -118 -117 -190z" />
    <glyph glyph-name="uni2074" unicode="&#x2074;" horiz-adv-x="389" 
d="M214 377h-177l5 26l217 297h81l-51 -263h51l-11 -60h-51l-15 -77h-64zM258 607l-121 -170h88z" />
    <glyph glyph-name="uni2075" unicode="&#x2075;" horiz-adv-x="354" 
d="M42 408l59 9c0 -35 19 -61 54 -61c51 0 85 32 85 88c0 43 -18 65 -55 65c-28 0 -57 -14 -78 -37l-48 11l63 217h210l-12 -60h-153l-32 -98c21 15 46 23 73 23c63 0 100 -40 100 -108c0 -56 -15 -91 -43 -119c-32 -31 -69 -42 -117 -42c-63 0 -106 43 -106 112z" />
    <glyph glyph-name="uni2076" unicode="&#x2076;" horiz-adv-x="357" 
d="M55 407c0 35 10 68 37 101l152 196h74l-118 -152c8 4 23 7 31 7c61 0 99 -38 99 -102c0 -93 -68 -161 -162 -161c-67 0 -113 47 -113 111zM123 418c0 -37 22 -62 57 -62c47 0 82 36 82 83c0 41 -22 60 -55 60c-43 0 -84 -30 -84 -81z" />
    <glyph glyph-name="uni2077" unicode="&#x2077;" horiz-adv-x="314" 
d="M108 300h-67l205 340h-162l11 60h244l-4 -25z" />
    <glyph glyph-name="uni2078" unicode="&#x2078;" horiz-adv-x="312" 
d="M43 399c0 55 31 94 82 117c-19 13 -34 38 -34 66c0 41 19 71 48 94c25 19 55 28 91 28c60 0 97 -33 97 -90c0 -43 -25 -74 -64 -98c21 -11 43 -39 43 -82c0 -85 -68 -138 -155 -138c-68 0 -108 43 -108 103zM111 410c0 -32 17 -54 52 -54c40 0 76 27 76 75
c0 35 -20 52 -52 52c-41 0 -76 -26 -76 -73zM153 590c0 -29 18 -47 46 -47c37 0 67 24 67 63c0 28 -21 42 -48 42c-35 0 -65 -22 -65 -58z" />
    <glyph glyph-name="uni2079" unicode="&#x2079;" horiz-adv-x="357" 
d="M64 543c0 93 68 161 162 161c67 0 113 -47 113 -111c0 -35 -10 -68 -37 -101l-152 -196h-74l118 152c-8 -4 -23 -7 -31 -7c-61 0 -99 38 -99 102zM132 561c0 -41 22 -60 55 -60c43 0 84 30 84 81c0 37 -22 62 -57 62c-47 0 -82 -36 -82 -83z" />
    <glyph glyph-name="uni2080" unicode="&#x2080;" horiz-adv-x="365" 
d="M-47 -60c0 124 59 261 197 261c79 0 118 -55 118 -147c0 -124 -59 -261 -197 -261c-79 0 -118 55 -118 147zM21 -49c0 -68 23 -98 62 -98c84 0 117 118 117 190c0 68 -23 98 -62 98c-84 0 -117 -118 -117 -190z" />
    <glyph glyph-name="uni2081" unicode="&#x2081;" horiz-adv-x="332" 
d="M101 104l-94 -41l14 73l137 61h25l-77 -400h-65z" />
    <glyph glyph-name="uni2082" unicode="&#x2082;" horiz-adv-x="447" 
d="M229 -203h-255l5 25l179 184c29 29 50 51 50 88c0 31 -15 47 -45 47c-31 0 -60 -25 -72 -69l-61 17c17 68 69 112 142 112c60 0 103 -35 103 -91c0 -54 -13 -85 -60 -132l-120 -121h146z" />
    <glyph glyph-name="uni2083" unicode="&#x2083;" horiz-adv-x="429" 
d="M-14 -88l66 9c0 -44 23 -68 59 -68c48 0 79 36 79 88c0 35 -18 58 -54 58c-15 0 -31 -6 -39 -11l-23 41l99 108h-128l12 60h227l-5 -23l-118 -126c60 0 96 -37 96 -100c0 -92 -65 -155 -157 -155c-71 0 -114 47 -114 119z" />
    <glyph glyph-name="uni2084" unicode="&#x2084;" horiz-adv-x="389" 
d="M122 -126h-177l5 26l217 297h81l-51 -263h51l-11 -60h-51l-15 -77h-64zM166 104l-121 -170h88z" />
    <glyph glyph-name="uni2085" unicode="&#x2085;" horiz-adv-x="354" 
d="M-47 -95l59 9c0 -35 19 -61 54 -61c51 0 85 32 85 88c0 43 -18 65 -55 65c-28 0 -57 -14 -78 -37l-48 11l63 217h210l-12 -60h-153l-32 -98c21 15 46 23 73 23c63 0 100 -40 100 -108c0 -56 -15 -91 -43 -119c-32 -31 -69 -42 -117 -42c-63 0 -106 43 -106 112z" />
    <glyph glyph-name="uni2086" unicode="&#x2086;" horiz-adv-x="357" 
d="M-44 -96c0 35 10 68 37 101l152 196h74l-118 -152c8 4 23 7 31 7c61 0 99 -38 99 -102c0 -93 -68 -161 -162 -161c-67 0 -113 47 -113 111zM24 -85c0 -37 22 -62 57 -62c47 0 82 36 82 83c0 41 -22 60 -55 60c-43 0 -84 -30 -84 -81z" />
    <glyph glyph-name="uni2087" unicode="&#x2087;" horiz-adv-x="314" 
d="M10 -203h-67l205 340h-162l11 60h244l-4 -25z" />
    <glyph glyph-name="uni2088" unicode="&#x2088;" horiz-adv-x="312" 
d="M-63 -104c0 55 31 94 82 117c-19 13 -34 38 -34 66c0 41 19 71 48 94c25 19 55 28 91 28c60 0 97 -33 97 -90c0 -43 -25 -74 -64 -98c21 -11 43 -39 43 -82c0 -85 -68 -138 -155 -138c-68 0 -108 43 -108 103zM5 -93c0 -32 17 -54 52 -54c40 0 76 27 76 75
c0 35 -20 52 -52 52c-41 0 -76 -26 -76 -73zM47 87c0 -29 18 -47 46 -47c37 0 67 24 67 63c0 28 -21 42 -48 42c-35 0 -65 -22 -65 -58z" />
    <glyph glyph-name="uni2089" unicode="&#x2089;" horiz-adv-x="357" 
d="M-17 40c0 93 68 161 162 161c67 0 113 -47 113 -111c0 -35 -10 -68 -37 -101l-152 -196h-74l118 152c-8 -4 -23 -7 -31 -7c-61 0 -99 38 -99 102zM51 58c0 -41 22 -60 55 -60c43 0 84 30 84 81c0 37 -22 62 -57 62c-47 0 -82 -36 -82 -83z" />
    <glyph glyph-name="Euro" unicode="&#x20ac;" horiz-adv-x="603" 
d="M106 233h-96l54 80h50l15 74h-90l55 80h57c57 164 162 241 302 241c91 0 151 -43 175 -114l-75 -37c-20 47 -58 71 -115 71c-88 0 -159 -50 -202 -161h236l-55 -80h-204l-15 -74h244l-55 -80h-196c0 -111 52 -161 143 -161c59 0 95 22 136 73l63 -39
c-55 -76 -121 -114 -214 -114c-128 0 -213 85 -213 241z" />
    <glyph glyph-name="trademark" unicode="&#x2122;" horiz-adv-x="818" 
d="M186 641h-105l11 59h282l-11 -59h-105l-66 -341h-72zM442 300h-72l77 400h75l53 -258l154 258h78l-77 -400h-72l48 250l-128 -213h-42l-45 216z" />
    <glyph glyph-name="uni2126" unicode="&#x2126;" horiz-adv-x="682" 
d="M295 0h-220v76h129c-20 36 -38 74 -54 115c-27 69 -54 158 -54 249c0 155 89 268 245 268s245 -113 245 -268c0 -91 -27 -180 -54 -249c-16 -41 -34 -79 -54 -115h129v-76h-220v23c20 41 38 85 55 131c27 79 55 182 55 286c0 119 -56 192 -156 192s-156 -73 -156 -192
c0 -104 27 -207 55 -286c16 -46 34 -90 55 -131v-23z" />
    <glyph glyph-name="onethird" unicode="&#x2153;" horiz-adv-x="867" 
d="M534 116l66 9c0 -44 23 -68 59 -68c48 0 79 36 79 88c0 35 -18 58 -54 58c-15 0 -31 -6 -39 -11l-23 41l99 108h-128l12 60h227l-5 -23l-118 -126c60 0 96 -37 96 -100c0 -92 -65 -155 -157 -155c-71 0 -114 47 -114 119zM229 607l-94 -41l14 73l137 61h25l-77 -400h-65z
M125 -29l-45 44l676 718l46 -43z" />
    <glyph glyph-name="twothirds" unicode="&#x2154;" horiz-adv-x="933" 
d="M185 -29l-45 44l676 718l46 -43zM326 300h-255l5 25l179 184c29 29 50 51 50 88c0 31 -15 47 -45 47c-31 0 -60 -25 -72 -69l-61 17c17 68 69 112 142 112c60 0 103 -35 103 -91c0 -54 -13 -85 -60 -132l-120 -121h146zM593 116l66 9c0 -44 23 -68 59 -68
c48 0 79 36 79 88c0 35 -18 58 -54 58c-15 0 -31 -6 -39 -11l-23 41l99 108h-128l12 60h227l-5 -23l-118 -126c60 0 96 -37 96 -100c0 -92 -65 -155 -157 -155c-71 0 -114 47 -114 119z" />
    <glyph glyph-name="oneeighth" unicode="&#x215b;" horiz-adv-x="836" 
d="M125 -29l-45 44l676 718l46 -43zM229 607l-94 -41l14 73l137 61h25l-77 -400h-65zM536 100c0 55 31 94 82 117c-19 13 -34 38 -34 66c0 41 19 71 48 94c25 19 55 28 91 28c60 0 97 -33 97 -90c0 -43 -25 -74 -64 -98c21 -11 43 -39 43 -82c0 -85 -68 -138 -155 -138
c-68 0 -108 43 -108 103zM604 111c0 -32 17 -54 52 -54c40 0 76 27 76 75c0 35 -20 52 -52 52c-41 0 -76 -26 -76 -73zM646 291c0 -29 18 -47 46 -47c37 0 67 24 67 63c0 28 -21 42 -48 42c-35 0 -65 -22 -65 -58z" />
    <glyph glyph-name="threeeighths" unicode="&#x215c;" horiz-adv-x="931" 
d="M96 415l66 9c0 -44 23 -68 59 -68c48 0 79 36 79 88c0 35 -18 58 -54 58c-15 0 -31 -6 -39 -11l-23 41l99 108h-128l12 60h227l-5 -23l-118 -126c60 0 96 -37 96 -100c0 -92 -65 -155 -157 -155c-71 0 -114 47 -114 119zM607 100c0 55 31 94 82 117c-19 13 -34 38 -34 66
c0 41 19 71 48 94c25 19 55 28 91 28c60 0 97 -33 97 -90c0 -43 -25 -74 -64 -98c21 -11 43 -39 43 -82c0 -85 -68 -138 -155 -138c-68 0 -108 43 -108 103zM675 111c0 -32 17 -54 52 -54c40 0 76 27 76 75c0 35 -20 52 -52 52c-41 0 -76 -26 -76 -73zM717 291
c0 -29 18 -47 46 -47c37 0 67 24 67 63c0 28 -21 42 -48 42c-35 0 -65 -22 -65 -58zM196 -29l-45 44l676 718l46 -43z" />
    <glyph glyph-name="fiveeighths" unicode="&#x215d;" horiz-adv-x="940" 
d="M196 -29l-45 44l676 718l46 -43zM607 100c0 55 31 94 82 117c-19 13 -34 38 -34 66c0 41 19 71 48 94c25 19 55 28 91 28c60 0 97 -33 97 -90c0 -43 -25 -74 -64 -98c21 -11 43 -39 43 -82c0 -85 -68 -138 -155 -138c-68 0 -108 43 -108 103zM675 111
c0 -32 17 -54 52 -54c40 0 76 27 76 75c0 35 -20 52 -52 52c-41 0 -76 -26 -76 -73zM717 291c0 -29 18 -47 46 -47c37 0 67 24 67 63c0 28 -21 42 -48 42c-35 0 -65 -22 -65 -58zM91 408l59 9c0 -35 19 -61 54 -61c51 0 85 32 85 88c0 43 -18 65 -55 65
c-28 0 -57 -14 -78 -37l-48 11l63 217h210l-12 -60h-153l-32 -98c21 15 46 23 73 23c63 0 100 -40 100 -108c0 -56 -15 -91 -43 -119c-32 -31 -69 -42 -117 -42c-63 0 -106 43 -106 112z" />
    <glyph glyph-name="seveneighths" unicode="&#x215e;" horiz-adv-x="838" 
d="M96 -29l-45 44l676 718l46 -43zM507 100c0 55 31 94 82 117c-19 13 -34 38 -34 66c0 41 19 71 48 94c25 19 55 28 91 28c60 0 97 -33 97 -90c0 -43 -25 -74 -64 -98c21 -11 43 -39 43 -82c0 -85 -68 -138 -155 -138c-68 0 -108 43 -108 103zM575 111c0 -32 17 -54 52 -54
c40 0 76 27 76 75c0 35 -20 52 -52 52c-41 0 -76 -26 -76 -73zM617 291c0 -29 18 -47 46 -47c37 0 67 24 67 63c0 28 -21 42 -48 42c-35 0 -65 -22 -65 -58zM174 300h-67l205 340h-162l11 60h244l-4 -25z" />
    <glyph glyph-name="partialdiff" unicode="&#x2202;" horiz-adv-x="607" 
d="M48 211c0 172 115 301 283 301c55 0 98 -23 121 -50c-11 108 -67 170 -146 170c-53 0 -91 -24 -118 -84l-82 21c32 84 104 139 203 139c163 0 230 -138 230 -351c0 -183 -81 -365 -285 -365c-123 0 -206 90 -206 219zM137 209c0 -83 42 -141 122 -141
c117 0 186 107 186 228c0 85 -39 140 -122 140c-117 0 -186 -118 -186 -227z" />
    <glyph glyph-name="uni2206" unicode="&#x2206;" horiz-adv-x="649" 
d="M561 0h-558v20l240 680h78l240 -680v-20zM282 579l-174 -503h348z" />
    <glyph glyph-name="product" unicode="&#x220f;" horiz-adv-x="518" 
d="M159 0h-84v700h368v-700h-84v624h-200v-624z" />
    <glyph glyph-name="summation" unicode="&#x2211;" horiz-adv-x="554" 
d="M482 0h-427v20l212 330l-212 330v20h427v-76h-300l169 -264v-20l-169 -264h300v-76z" />
    <glyph glyph-name="minus" unicode="&#x2212;" horiz-adv-x="550" 
d="M460 280h-412l15 74h412z" />
    <glyph glyph-name="radical" unicode="&#x221a;" horiz-adv-x="532" 
d="M142 313h-104v76h153l86 -257l170 576h80l-217 -708h-67z" />
    <glyph glyph-name="infinity" unicode="&#x221e;" horiz-adv-x="875" 
d="M60 359c0 113 68 191 184 191c68 0 143 -36 198 -111c55 75 130 111 198 111c116 0 184 -78 184 -191s-68 -191 -184 -191c-68 0 -143 36 -198 111c-55 -75 -130 -111 -198 -111c-116 0 -184 78 -184 191zM146 359c0 -73 45 -115 113 -115c44 0 102 38 141 115
c-39 77 -97 115 -141 115c-68 0 -113 -42 -113 -115zM484 359c39 -77 97 -115 141 -115c68 0 113 42 113 115s-45 115 -113 115c-44 0 -102 -38 -141 -115z" />
    <glyph glyph-name="integral" unicode="&#x222b;" horiz-adv-x="438" 
d="M-60 -196l31 74c15 -8 35 -14 54 -14c56 0 83 30 96 95l112 578c24 124 93 171 196 171c28 0 53 -7 69 -16l-31 -74c-15 8 -35 14 -54 14c-56 0 -83 -30 -96 -95l-112 -578c-24 -125 -99 -171 -196 -171c-28 0 -53 7 -69 16z" />
    <glyph glyph-name="approxequal" unicode="&#x2248;" horiz-adv-x="557" 
d="M76 169l-40 54c39 53 93 85 149 85c85 0 111 -50 183 -50c35 0 72 17 101 45l40 -55c-40 -55 -93 -84 -149 -84c-85 0 -111 50 -183 50c-35 0 -72 -17 -101 -45zM76 368l-40 54c39 53 93 85 149 85c85 0 111 -50 183 -50c35 0 72 17 101 45l40 -55
c-40 -55 -93 -84 -149 -84c-85 0 -111 50 -183 50c-35 0 -72 -17 -101 -45z" />
    <glyph glyph-name="notequal" unicode="&#x2260;" horiz-adv-x="595" 
d="M186 190h-88v74h131l52 92h-183v74h225l59 102l64 -37l-37 -65h88v-74h-131l-52 -92h183v-74h-225l-59 -102l-64 37z" />
    <glyph glyph-name="lessequal" unicode="&#x2264;" horiz-adv-x="563" 
d="M488 0h-440v74h440v-74zM443 172l-349 186v88l349 186v-87l-267 -143l267 -143v-87z" />
    <glyph glyph-name="greaterequal" unicode="&#x2265;" horiz-adv-x="563" 
d="M495 0h-440v74h440v-74zM449 358l-349 -186v87l267 143l-267 143v87l349 -186v-88z" />
    <glyph glyph-name="lozenge" unicode="&#x25ca;" horiz-adv-x="512" 
d="M215 0l-180 350l180 350h82l180 -350l-180 -350h-82zM256 624l-137 -274l137 -274l137 274z" />
    <glyph glyph-name="uniE000" unicode="&#xe000;" horiz-adv-x="505" 
d="M0 0v505h505v-505h-505z" />
    <glyph glyph-name="uniF8FF" unicode="&#xf8ff;" horiz-adv-x="786" 
d="M97 22v595c0 11 5 19 16 22l270 78c4 1 7 2 10 2s6 -1 10 -2l270 -78c11 -3 16 -11 16 -22v-595c0 -11 -9 -22 -22 -22c-2 0 -4 0 -7 1l-267 77l-267 -77c-3 -1 -5 -1 -7 -1c-13 0 -22 11 -22 22zM140 463v-412l231 67v204c-99 8 -183 61 -231 141zM371 669l-230 -67
c8 -124 106 -225 230 -236v303zM415 322v-204l231 -67v412c-49 -80 -132 -133 -231 -141zM415 669v-303c124 11 222 112 230 236z" />
    <glyph glyph-name="No" horiz-adv-x="1271" 
d="M124 0h-89l137 700h99l204 -547l107 547h89l-137 -700h-99l-205 545zM1095 0h-438l15 76h438zM725 400c0 92 28 159 69 210c53 67 121 98 213 98c124 0 199 -77 199 -212c0 -92 -28 -159 -69 -210c-53 -67 -121 -98 -213 -98c-124 0 -199 77 -199 212zM814 412
c0 -92 38 -148 118 -148c61 0 107 28 140 71s45 90 45 149c0 92 -38 148 -118 148c-61 0 -107 -28 -140 -71s-45 -90 -45 -149z" />
    <glyph glyph-name="zero.tn" 
d="M34 243c0 132 32 265 105 358c52 65 113 107 216 107c121 0 191 -84 191 -251c0 -132 -32 -265 -105 -358c-52 -67 -115 -107 -216 -107c-119 0 -191 84 -191 251zM123 254c0 -131 39 -182 114 -182c165 0 220 240 220 374c0 131 -39 182 -114 182
c-165 0 -220 -241 -220 -374z" />
    <glyph glyph-name="one.tn" 
d="M312 574l-141 -74l18 92l199 108h32l-137 -700h-83z" />
    <glyph glyph-name="two.tn" 
d="M435 0h-415l7 39l322 342c44 45 86 91 86 150c0 65 -30 97 -90 97c-63 0 -109 -49 -130 -120l-85 16c26 103 101 184 222 184c106 0 172 -68 172 -155c0 -83 -31 -133 -91 -196l-260 -277h277z" />
    <glyph glyph-name="three.tn" 
d="M52 184v8l84 11v-6c0 -72 44 -125 124 -125c101 0 145 64 145 173c0 83 -43 123 -115 123c-21 0 -42 -2 -65 -13l-26 47l189 218h-243l15 80h381l-5 -27l-222 -241c7 3 19 3 26 3c96 0 154 -67 154 -188c0 -148 -88 -255 -244 -255c-121 0 -198 93 -198 192z" />
    <glyph glyph-name="four.tn" 
d="M310 149h-293l7 35l386 516h97l-92 -471h83l-16 -80h-83l-29 -149h-89zM388 554l-241 -325h179z" />
    <glyph glyph-name="five.tn" 
d="M38 173v11l82 15v-8c0 -68 36 -119 108 -119c96 0 163 75 163 186c0 91 -38 126 -107 126c-51 0 -111 -27 -156 -78l-53 12l105 382h343l-15 -80h-267l-60 -203c27 23 71 47 124 47c103 0 175 -57 175 -193c0 -165 -98 -279 -263 -279c-99 0 -179 73 -179 181z" />
    <glyph glyph-name="six.tn" 
d="M44 178c0 64 25 127 66 182l266 348h102l-204 -267c11 5 23 7 36 7c100 0 175 -60 175 -188c0 -155 -106 -268 -261 -268c-115 0 -180 77 -180 186zM133 191c0 -75 32 -119 103 -119c93 0 160 80 160 176c0 83 -43 121 -108 121c-95 0 -155 -86 -155 -178z" />
    <glyph glyph-name="seven.tn" 
d="M165 0h-91l374 620h-286l16 80h393l-8 -37z" />
    <glyph glyph-name="eight.tn" 
d="M42 171c0 92 50 166 142 206c-31 23 -55 65 -55 121c0 68 25 118 72 157c41 35 92 53 160 53c104 0 163 -65 163 -161c0 -84 -50 -143 -118 -172c39 -20 78 -68 78 -144s-23 -131 -63 -171c-47 -47 -117 -68 -194 -68c-104 0 -185 72 -185 179zM131 185
c0 -71 42 -113 110 -113c88 0 154 57 154 148c0 68 -35 110 -107 110c-85 0 -157 -61 -157 -145zM214 503c0 -57 34 -93 89 -93c69 0 136 48 136 125c0 60 -30 97 -93 97c-72 0 -132 -54 -132 -129z" />
    <glyph glyph-name="nine.tn" 
d="M88 440c0 155 106 268 261 268c115 0 180 -77 180 -186c0 -64 -25 -127 -66 -182l-266 -348h-102l204 267c-11 -5 -23 -7 -36 -7c-100 0 -175 60 -175 188zM177 452c0 -83 43 -121 108 -121c95 0 155 86 155 178c0 75 -32 119 -103 119c-93 0 -160 -80 -160 -176z" />
    <glyph glyph-name="quotedblleft.alt" horiz-adv-x="412" 
d="M73 524c0 74 92 145 160 184l15 -24c-44 -27 -78 -65 -85 -102c25 -12 39 -30 39 -61c0 -36 -29 -62 -65 -62s-64 24 -64 65zM253 524c0 74 92 145 160 184l15 -24c-44 -27 -78 -65 -85 -102c25 -12 39 -30 39 -61c0 -36 -29 -62 -65 -62s-64 24 -64 65z" />
    <glyph glyph-name="quotedblright.alt" horiz-adv-x="412" 
d="M47 459l-15 24c44 27 78 65 85 102c-25 12 -39 30 -39 61c0 36 29 62 65 62s64 -24 64 -65c0 -75 -92 -143 -160 -184zM227 459l-15 24c44 27 78 65 85 102c-25 12 -39 30 -39 61c0 36 29 62 65 62s64 -24 64 -65c0 -75 -92 -143 -160 -184z" />
    <glyph glyph-name="quoteleft.alt" horiz-adv-x="232" 
d="M73 524c0 74 92 145 160 184l15 -24c-44 -27 -78 -65 -85 -102c25 -12 39 -30 39 -61c0 -36 -29 -62 -65 -62s-64 24 -64 65z" />
    <glyph glyph-name="quoteright.alt" horiz-adv-x="232" 
d="M47 459l-15 24c44 27 78 65 85 102c-25 12 -39 30 -39 61c0 36 29 62 65 62s64 -24 64 -65c0 -75 -92 -143 -160 -184z" />
    <glyph glyph-name="quotesinglbase.alt" horiz-adv-x="332" 
d="M19 -110l-15 24c44 27 78 65 85 102c-25 12 -39 30 -39 61c0 36 29 62 65 62s64 -24 64 -65c0 -75 -92 -143 -160 -184z" />
    <glyph glyph-name="quotedblbase.alt" horiz-adv-x="512" 
d="M19 -110l-15 24c44 27 78 65 85 102c-25 12 -39 30 -39 61c0 36 29 62 65 62s64 -24 64 -65c0 -75 -92 -143 -160 -184zM199 -110l-15 24c44 27 78 65 85 102c-25 12 -39 30 -39 61c0 36 29 62 65 62s64 -24 64 -65c0 -75 -92 -143 -160 -184z" />
    <glyph glyph-name="arrow.l" horiz-adv-x="645" 
d="M281 114l-236 236l236 236l53 -54l-141 -144h398v-76h-398l141 -144z" />
    <glyph glyph-name="arrow.r" horiz-adv-x="645" 
d="M452 312h-398v76h398l-141 144l53 54l236 -236l-236 -236l-53 54z" />
    <glyph glyph-name="arrow.u" horiz-adv-x="640" 
d="M138 334l-54 53l236 236l236 -236l-54 -53l-144 141v-398h-76v398z" />
    <glyph glyph-name="arrow.d" horiz-adv-x="640" 
d="M320 77l-236 236l54 53l144 -141v398h76v-398l144 141l54 -53z" />
    <glyph glyph-name="arrow.ul" horiz-adv-x="640" 
d="M187 223h-76v333h333v-76h-202l281 -282l-54 -54l-282 281v-202z" />
    <glyph glyph-name="arrow.ur" horiz-adv-x="640" 
d="M171 144l-54 54l281 282h-202v76h333v-333h-76v202z" />
    <glyph glyph-name="arrow.dl" horiz-adv-x="640" 
d="M444 144h-333v333h76v-202l282 281l54 -54l-281 -282h202v-76z" />
    <glyph glyph-name="arrow.dr" horiz-adv-x="640" 
d="M398 220l-281 282l54 54l282 -281v202h76v-333h-333v76h202z" />
    <glyph glyph-name="arrow.l.xl" horiz-adv-x="783" 
d="M281 114l-236 236l236 236l53 -54l-141 -144h536v-76h-536l141 -144z" />
    <glyph glyph-name="arrow.r.xl" horiz-adv-x="783" 
d="M590 312h-536v76h536l-141 144l53 54l236 -236l-236 -236l-53 54z" />
    <glyph glyph-name="arrow.u.xl" horiz-adv-x="640" 
d="M138 403l-54 53l236 236l236 -236l-54 -53l-144 141v-536h-76v536z" />
    <glyph glyph-name="arrow.d.xl" horiz-adv-x="640" 
d="M320 8l-236 236l54 53l144 -141v536h76v-536l144 141l54 -53z" />
    <glyph glyph-name="arrow.ul.xl" horiz-adv-x="739" 
d="M187 263h-76v333h333v-76h-202l380 -381l-54 -54l-381 380v-202z" />
    <glyph glyph-name="arrow.ur.xl" horiz-adv-x="739" 
d="M171 85l-54 54l380 381h-202v76h333v-333h-76v202z" />
    <glyph glyph-name="arrow.dl.xl" horiz-adv-x="739" 
d="M444 85h-333v333h76v-202l381 380l54 -54l-380 -381h202v-76z" />
    <glyph glyph-name="arrow.dr.xl" horiz-adv-x="739" 
d="M497 161l-380 381l54 54l381 -380v202h76v-333h-333v76h202z" />
    <glyph glyph-name="dcaron.alt" horiz-adv-x="770" 
d="M27 186c0 171 102 326 275 326c65 0 116 -29 139 -68l51 264h85l-138 -708h-85l13 62c-39 -43 -97 -70 -158 -70c-119 0 -182 78 -182 194zM116 208c0 -84 39 -140 116 -140c124 0 184 137 184 238c0 88 -49 130 -121 130c-122 0 -179 -128 -179 -228zM641 459l-15 24
c44 27 78 65 85 102c-25 12 -39 30 -39 61c0 36 29 62 65 62s64 -24 64 -65c0 -75 -92 -143 -160 -184z" />
    <glyph glyph-name="uni0123.alt" horiz-adv-x="510" 
d="M-23 -68c0 55 22 92 66 127c-13 15 -21 34 -21 63c0 55 35 88 84 113c-12 19 -22 44 -22 76c0 116 80 201 205 201c33 0 66 -8 91 -23l94 48l30 -66l-75 -38c7 -16 11 -44 11 -64c0 -114 -89 -195 -206 -195c-32 0 -58 8 -81 20c-24 -9 -47 -26 -47 -55
c0 -21 16 -38 45 -38h115c88 0 141 -36 141 -121c0 -132 -120 -192 -250 -192c-101 0 -180 55 -180 144zM62 -50c0 -46 30 -90 110 -90c67 0 146 25 146 105c0 43 -26 64 -77 64h-97c-13 0 -25 1 -36 2c-31 -16 -46 -43 -46 -81zM168 326c0 -55 33 -80 77 -80
c61 0 111 43 111 111c0 57 -33 83 -77 83c-60 0 -111 -47 -111 -114zM254 627c0 74 92 145 160 184l15 -24c-44 -27 -78 -65 -85 -102c25 -12 39 -30 39 -61c0 -36 -29 -62 -65 -62s-64 24 -64 65z" />
    <glyph glyph-name="lcaron.alt" horiz-adv-x="464" 
d="M134 0h-85l137 708h85zM335 459l-15 24c44 27 78 65 85 102c-25 12 -39 30 -39 61c0 36 29 62 65 62s64 -24 64 -65c0 -75 -92 -143 -160 -184z" />
    <glyph glyph-name="napostrophe.alt" horiz-adv-x="677" 
d="M215 0h-85l98 504h85l-18 -93c49 65 110 101 182 101c77 0 122 -39 122 -110c0 -24 0 -32 -3 -47l-69 -355h-85l64 333c3 12 4 24 4 35c0 43 -22 68 -67 68c-67 0 -160 -85 -187 -225zM47 459l-15 24c44 27 78 65 85 102c-25 12 -39 30 -39 61c0 36 29 62 65 62
s64 -24 64 -65c0 -75 -92 -143 -160 -184z" />
    <glyph glyph-name="tcaron.alt" horiz-adv-x="544" 
d="M116 428h-87l14 76h87l30 151l94 53l-40 -204h127l-14 -76h-127l-52 -268c-3 -11 -5 -28 -5 -36c0 -37 18 -56 54 -56c23 0 39 4 60 16l6 -73c-27 -15 -57 -19 -86 -19c-76 0 -119 40 -119 117c0 15 4 39 7 58zM415 459l-15 24c44 27 78 65 85 102c-25 12 -39 30 -39 61
c0 36 29 62 65 62s64 -24 64 -65c0 -75 -92 -143 -160 -184z" />
    </font>
</defs>
</svg>
