<svg xmlns="http://www.w3.org/2000/svg" width="16" height="13" viewBox="0 0 16 13"><path fill="#d0d0ce" d="M0 10.25v-8.5l.03-.1A2 2 0 0 1 1.97 0h12.06c.91 0 1.7.64 1.91 1.53l.06.22v8.5l-.03.07a1.92 1.92 0 0 1-1.54 1.62c-.39.08-.79.06-1.18.06H2.02c-.92 0-1.69-.58-1.94-1.45l-.08-.3zm5.44-4.4l-.71.72-2.55 2.54c-.15.15-.23.33-.16.54.11.38.56.47.86.17a473.71 473.71 0 0 0 3.28-3.31l.2.18 1.27 1.15c.24.22.5.22.74 0l1.32-1.2.13-.12L11 7.7l2.12 2.12c.14.15.31.22.51.16.39-.1.5-.56.2-.85a143.14 143.14 0 0 0-3.27-3.28l.13-.12 1.55-1.41 1.58-1.44c.16-.14.22-.31.17-.51a.5.5 0 0 0-.36-.36c-.2-.05-.36.02-.51.16L8.13 6.71 8 6.82 5.62 4.66l-2.76-2.5a.51.51 0 0 0-.5-.14.48.48 0 0 0-.35.36c-.05.2.02.37.17.51l1.96 1.78z"/></svg>